<svg width="835" height="734" viewBox="0 0 835 734" fill="none" xmlns="http://www.w3.org/2000/svg">
<ellipse cx="496" cy="369.5" rx="339" ry="318.5" fill="url(#paint0_linear_12_22)"/>
<g filter="url(#filter0_d_12_22)">
<rect x="87" y="6" width="194" height="174" rx="22" fill="white"/>
</g>
<path d="M225.4 86.625V97.375H247V86.625H225.4ZM214.6 122.154C219.784 125.97 226.534 131.022 231.88 135C234.04 132.151 236.2 129.249 238.36 126.4C233.014 122.423 226.264 117.37 221.08 113.5C218.92 116.402 216.76 119.305 214.6 122.154ZM238.36 57.6C236.2 54.7512 234.04 51.8487 231.88 49C226.534 52.9775 219.784 58.03 214.6 61.9C216.76 64.7487 218.92 67.6512 221.08 70.5C226.264 66.63 233.014 61.6312 238.36 57.6ZM149.8 75.875C143.86 75.875 139 80.7125 139 86.625V97.375C139 103.287 143.86 108.125 149.8 108.125H155.2V129.625H166V108.125H171.4L198.4 124.25V59.75L171.4 75.875H149.8ZM211.9 92C211.9 84.8512 208.768 78.4012 203.8 73.9937V109.952C208.768 105.599 211.9 99.1488 211.9 92Z" fill="#03A9F4" fill-opacity="0.72"/>
<path d="M808.57 303.704L818.448 298.615L641.844 196.655L631.969 201.74L808.57 303.704Z" fill="#BCBBBB"/>
<path d="M808.569 331.707L818.447 326.618V298.616L808.569 303.705V331.707Z" fill="#828484"/>
<path d="M631.969 201.74L808.57 303.705V331.707L631.969 229.746V201.74Z" fill="#52554D"/>
<path d="M487.243 283.137C487.243 294.452 491.169 302.587 497.727 306.995C506.504 312.892 525.332 323.089 525.332 323.089C551.783 307.819 603.734 254.777 603.734 228.329C603.734 216.818 578.971 208.123 572.207 203.77C563.424 198.114 550.079 198.974 535.138 207.602C508.687 222.868 487.243 256.689 487.243 283.137Z" fill="url(#paint1_linear_12_22)"/>
<path d="M513.15 298.234C513.15 324.686 534.593 333.749 561.042 318.483C587.493 303.213 608.933 269.392 608.933 242.944C608.933 216.492 587.493 207.425 561.042 222.695C534.593 237.965 513.15 271.783 513.15 298.234Z" fill="#3C414E"/>
<path d="M517.831 300.41C517.831 311.722 521.754 319.854 528.315 324.265C537.092 330.162 555.92 340.359 555.92 340.359C582.371 325.089 634.323 272.047 634.323 245.595C634.323 234.088 609.559 225.393 602.795 221.04C594.012 215.384 580.667 216.244 565.723 224.872C539.275 240.138 517.831 273.959 517.831 300.41Z" fill="url(#paint2_linear_12_22)"/>
<path d="M543.737 315.505C543.737 341.956 565.178 351.02 591.629 335.75C618.08 320.483 639.521 286.663 639.521 260.211C639.521 233.763 618.08 224.7 591.629 239.966C565.178 255.236 543.737 289.054 543.737 315.505Z" fill="#3C414E"/>
<path d="M557.885 304.781C557.885 322.335 572.116 328.349 589.669 318.217C607.223 308.084 621.454 285.64 621.454 268.083C621.454 250.529 607.223 244.515 589.669 254.647C572.116 264.783 557.885 287.227 557.885 304.781Z" fill="url(#paint3_linear_12_22)"/>
<path d="M559.844 306.207C559.844 323.761 574.075 329.778 591.629 319.643C609.182 309.511 623.413 287.066 623.413 269.513C623.413 251.956 609.182 245.941 591.629 256.074C574.075 266.209 559.844 288.653 559.844 306.207Z" fill="#D9DADB"/>
<path d="M620.141 271.396C620.141 287.158 607.376 307.282 591.614 316.388C575.908 325.445 563.091 320.043 563.091 304.337C563.091 302.591 563.254 300.792 563.583 298.991C565.928 284.32 577.654 267.466 591.614 259.341C592.761 258.686 593.908 258.087 594.996 257.598C609.178 251.053 620.141 256.777 620.141 271.396Z" fill="url(#paint4_linear_12_22)"/>
<path d="M606.289 269.757V269.975C606.289 281.922 596.636 297.137 584.692 304.008C582.509 305.318 580.382 306.191 578.365 306.735C571.709 308.536 566.418 306.465 564.294 301.118C563.965 300.463 563.747 299.753 563.584 298.991C563.91 296.863 564.457 294.684 565.164 292.501C568.875 281.101 577.381 269.376 587.582 262.013C588.888 261.032 590.253 260.159 591.615 259.341C592.599 258.797 593.524 258.305 594.453 257.869L594.997 257.598C601.653 257.325 606.178 261.687 606.289 269.757Z" fill="#E6E8E7"/>
<path d="M604.323 266.759C604.323 278.429 589.542 299.752 577.816 306.682L577.653 306.789C577.653 306.789 577.491 306.734 577.162 306.626C576.618 306.519 576.126 306.408 575.634 306.135L575.034 305.916C572.473 304.991 568.274 303.356 564.293 301.117C563.964 300.463 563.745 299.752 563.582 298.99C563.908 296.862 564.456 294.683 565.163 292.5C568.873 281.1 577.38 269.375 587.581 262.012C588.887 261.031 590.252 260.158 591.614 259.341C592.598 258.796 593.523 258.305 594.451 257.868C598.214 260.595 601.378 263.703 603.069 265.394L603.124 265.449C603.887 266.267 604.323 266.759 604.323 266.759Z" fill="url(#paint5_linear_12_22)"/>
<path d="M607.057 274.605C607.057 284.887 598.73 298.016 588.448 303.959C578.198 309.866 569.838 306.344 569.838 296.094C569.838 294.957 569.943 293.781 570.158 292.608C571.686 283.036 579.338 272.041 588.448 266.737C589.194 266.313 589.943 265.919 590.653 265.6C599.906 261.329 607.057 265.065 607.057 274.605Z" fill="#DCDDDD"/>
<path d="M598.221 280.746C598.221 285.757 594.165 292.155 589.151 295.052C584.159 297.932 580.084 296.215 580.084 291.22C580.084 290.666 580.136 290.093 580.24 289.52C580.986 284.857 584.713 279.498 589.151 276.915C589.515 276.709 589.88 276.517 590.226 276.361C594.735 274.279 598.221 276.1 598.221 280.746Z" fill="url(#paint6_linear_12_22)"/>
<path d="M590.462 281.958C590.462 283.965 588.836 286.529 586.833 287.688C584.832 288.839 583.2 288.151 583.2 286.151L583.262 285.47C583.562 283.603 585.054 281.459 586.833 280.423L587.263 280.202C589.068 279.371 590.462 280.098 590.462 281.958Z" fill="#E6E8E7"/>
<path d="M377.254 346.631C377.254 357.943 381.177 366.078 387.735 370.486C396.512 376.383 415.34 386.58 415.34 386.58C441.791 371.314 493.746 318.268 493.746 291.82C493.746 280.309 468.979 271.614 462.215 267.261C453.432 261.605 440.087 262.466 425.146 271.093C398.695 286.363 377.254 320.18 377.254 346.631Z" fill="url(#paint7_linear_12_22)"/>
<path d="M403.16 361.726C403.16 388.177 424.604 397.241 451.055 381.971C477.503 366.704 498.947 332.883 498.947 306.432C498.947 279.984 477.503 270.92 451.055 286.187C424.604 301.457 403.16 335.278 403.16 361.726Z" fill="#3C414E"/>
<path d="M407.845 363.902C407.845 375.217 411.768 383.348 418.326 387.756C427.103 393.653 445.931 403.851 445.931 403.851C472.382 388.581 524.333 335.538 524.333 309.09C524.333 297.583 499.57 288.884 492.806 284.532C484.023 278.876 470.678 279.736 455.737 288.363C429.286 303.63 407.845 337.45 407.845 363.902Z" fill="url(#paint8_linear_12_22)"/>
<path d="M433.749 378.996C433.749 405.448 455.192 414.511 481.641 399.245C508.092 383.975 529.532 350.154 529.532 323.706C529.532 297.254 508.092 288.191 481.641 303.457C455.192 318.727 433.749 352.545 433.749 378.996Z" fill="#3C414E"/>
<path d="M447.893 368.271C447.893 385.825 462.124 391.842 479.678 381.71C497.232 371.575 511.462 349.131 511.462 331.577C511.462 314.02 497.232 308.005 479.678 318.138C462.124 328.273 447.893 350.717 447.893 368.271Z" fill="url(#paint9_linear_12_22)"/>
<path d="M449.855 369.698C449.855 387.252 464.086 393.269 481.64 383.134C499.194 373.001 513.425 350.557 513.425 333.003C513.425 315.45 499.194 309.432 481.64 319.564C464.086 329.7 449.855 352.144 449.855 369.698Z" fill="#D9DADB"/>
<path d="M510.156 334.887C510.156 350.649 497.394 370.773 481.632 379.882C465.926 388.936 453.106 383.534 453.106 367.828C453.106 366.081 453.272 364.283 453.598 362.481C455.943 347.811 467.669 330.961 481.632 322.832C482.776 322.177 483.923 321.578 485.014 321.089C499.193 314.544 510.156 320.268 510.156 334.887Z" fill="url(#paint10_linear_12_22)"/>
<path d="M496.301 333.251V333.47C496.301 345.413 486.648 360.628 474.704 367.502C472.522 368.809 470.394 369.682 468.378 370.229C461.725 372.028 456.434 369.956 454.306 364.609C453.977 363.954 453.759 363.247 453.596 362.482C453.925 360.358 454.469 358.175 455.18 355.992C458.887 344.596 467.394 332.87 477.594 325.504C478.904 324.523 480.266 323.65 481.631 322.833C482.612 322.288 483.54 321.796 484.465 321.36L485.013 321.089C491.665 320.816 496.194 325.178 496.301 333.251Z" fill="#E6E8E7"/>
<path d="M494.338 330.249C494.338 341.919 479.56 363.246 467.835 370.172L467.669 370.28C467.669 370.28 467.506 370.228 467.18 370.117C466.633 370.009 466.144 369.899 465.652 369.625L465.053 369.41C462.489 368.481 458.289 366.846 454.308 364.608C453.979 363.953 453.761 363.246 453.598 362.48C453.927 360.356 454.471 358.173 455.181 355.99C458.889 344.594 467.395 332.869 477.596 325.502C478.905 324.522 480.267 323.649 481.632 322.831C482.613 322.287 483.541 321.795 484.467 321.358C488.23 324.085 491.393 327.197 493.084 328.884L493.139 328.94C493.902 329.757 494.338 330.249 494.338 330.249Z" fill="url(#paint11_linear_12_22)"/>
<path d="M497.067 338.092C497.067 348.378 488.743 361.507 478.457 367.45C468.208 373.356 459.848 369.835 459.848 359.585C459.848 358.448 459.956 357.275 460.167 356.099C461.699 346.527 469.348 335.532 478.457 330.231C479.204 329.804 479.953 329.413 480.663 329.091C489.916 324.823 497.067 328.556 497.067 338.092Z" fill="#DCDDDD"/>
<path d="M488.233 344.241C488.233 349.252 484.177 355.647 479.166 358.544C474.172 361.424 470.096 359.707 470.096 354.712C470.096 354.158 470.148 353.585 470.253 353.015C470.999 348.349 474.726 342.993 479.166 340.41C479.528 340.201 479.893 340.009 480.242 339.853C484.747 337.774 488.233 339.592 488.233 344.241Z" fill="url(#paint12_linear_12_22)"/>
<path d="M480.476 345.452C480.476 347.456 478.853 350.02 476.847 351.176C474.846 352.33 473.214 351.642 473.214 349.645L473.279 348.964C473.576 347.097 475.068 344.95 476.847 343.918L477.277 343.696C479.082 342.862 480.476 343.592 480.476 345.452Z" fill="#E6E8E7"/>
<path d="M652.712 291.716L645.02 296.156V247.411L652.712 242.97V291.716Z" fill="#6B4D88"/>
<path d="M564.463 304.141C564.463 319.144 576.624 324.285 591.627 315.625C606.63 306.963 618.792 287.78 618.792 272.777C618.792 257.774 606.63 252.633 591.627 261.293C576.624 269.955 564.463 289.138 564.463 304.141Z" fill="#ABD7B0"/>
<path d="M772.716 286.631L481.638 437.343L380.087 372.575L624.922 231.245L663.33 223.456L772.716 286.631Z" fill="#818283"/>
<path d="M772.717 286.63L726.474 296.009L624.923 231.244L663.331 223.455L772.717 286.63Z" fill="#6D6E70"/>
<path d="M488.795 318.386L607.525 249.848L675.463 288.458L556.737 356.995L488.795 318.386Z" fill="#A0A09F"/>
<path d="M628.256 294.996C628.256 309.553 610.128 321.353 587.763 321.353C565.4 321.353 547.27 309.553 547.27 294.996C547.27 280.44 565.4 268.636 587.763 268.636C610.128 268.636 628.256 280.44 628.256 294.996Z" fill="#818283"/>
<path d="M772.715 308.969L481.637 476.998V437.343L726.472 296.009L772.715 286.63V308.969Z" fill="#48484A"/>
<path d="M556.736 356.996L675.463 288.459L682.62 302.575L549.579 379.378L556.736 356.996Z" fill="#6D6E70"/>
<path d="M648.863 377.096C648.863 388.407 652.786 396.539 659.347 400.947C668.124 406.847 686.952 417.045 686.952 417.045C713.4 401.775 765.354 348.732 765.354 322.281C765.354 310.774 740.591 302.075 733.827 297.722C725.044 292.07 711.699 292.93 696.755 301.554C670.307 316.824 648.863 350.645 648.863 377.096Z" fill="url(#paint13_linear_12_22)"/>
<path d="M674.773 392.191C674.773 418.639 696.214 427.706 722.665 412.436C749.116 397.166 770.557 363.349 770.557 336.897C770.557 310.446 749.116 301.382 722.665 316.652C696.214 331.922 674.773 365.74 674.773 392.191Z" fill="#3C414E"/>
<path d="M679.455 394.364C679.455 405.679 683.377 413.811 689.939 418.219C698.716 424.119 717.543 434.316 717.543 434.316C743.991 419.046 795.946 366.004 795.946 339.552C795.946 328.045 771.182 319.35 764.419 314.994C755.635 309.341 742.291 310.201 727.346 318.825C700.898 334.095 679.455 367.916 679.455 394.364Z" fill="url(#paint14_linear_12_22)"/>
<path d="M705.362 409.461C705.362 435.909 726.802 444.976 753.254 429.706C779.702 414.436 801.146 380.619 801.146 354.167C801.146 327.716 779.702 318.652 753.254 333.923C726.802 349.189 705.362 383.01 705.362 409.461Z" fill="#3C414E"/>
<path d="M719.507 398.737C719.507 416.29 733.738 422.304 751.292 412.172C768.846 402.04 783.076 379.593 783.076 362.039C783.076 344.485 768.846 338.471 751.292 348.603C733.738 358.735 719.507 381.179 719.507 398.737Z" fill="url(#paint15_linear_12_22)"/>
<path d="M721.468 400.163C721.468 417.716 735.699 423.731 753.252 413.598C770.806 403.466 785.037 381.019 785.037 363.465C785.037 345.911 770.806 339.897 753.252 350.029C735.699 360.161 721.468 382.609 721.468 400.163Z" fill="#D9DADB"/>
<path d="M781.762 365.348C781.762 381.11 769.001 401.238 753.239 410.344C737.532 419.398 724.716 413.999 724.716 398.293C724.716 396.546 724.878 394.745 725.208 392.947C727.553 378.276 739.279 361.423 753.239 353.297C754.386 352.642 755.529 352.043 756.621 351.551C770.803 345.006 781.762 350.733 781.762 365.348Z" fill="url(#paint16_linear_12_22)"/>
<path d="M767.91 363.712V363.931C767.91 375.874 758.256 391.092 746.313 397.963C744.133 399.273 742.005 400.146 739.986 400.69C733.333 402.492 728.042 400.416 725.914 395.073C725.589 394.419 725.37 393.712 725.208 392.946C725.533 390.819 726.077 388.636 726.788 386.456C730.498 375.057 739.005 363.331 749.202 355.968C750.512 354.988 751.877 354.114 753.239 353.297C754.223 352.749 755.148 352.257 756.077 351.824L756.621 351.551C763.277 351.277 767.802 355.639 767.91 363.712Z" fill="#E6E8E7"/>
<path d="M765.948 360.712C765.948 372.386 751.166 393.712 739.441 400.635L739.278 400.746C739.278 400.746 739.115 400.691 738.786 400.583C738.242 400.472 737.75 400.365 737.258 400.091L736.659 399.873C734.095 398.944 729.895 397.309 725.914 395.074C725.588 394.419 725.37 393.712 725.207 392.946C725.533 390.819 726.077 388.636 726.787 386.457C730.498 375.057 739.004 363.332 749.202 355.969C750.512 354.988 751.877 354.115 753.238 353.297C754.222 352.75 755.148 352.258 756.076 351.825C759.839 354.551 763.003 357.66 764.693 359.35L764.749 359.406C765.511 360.224 765.948 360.712 765.948 360.712Z" fill="url(#paint17_linear_12_22)"/>
<path d="M768.68 368.558C768.68 378.84 760.352 391.973 750.067 397.915C739.821 403.822 731.458 400.3 731.458 390.05C731.458 388.91 731.565 387.737 731.78 386.564C733.308 376.989 740.961 365.994 750.067 360.693C750.816 360.266 751.563 359.875 752.276 359.556C761.525 355.285 768.68 359.022 768.68 368.558Z" fill="#DCDDDD"/>
<path d="M759.844 374.702C759.844 379.713 755.784 386.111 750.773 389.007C745.782 391.884 741.707 390.167 741.707 385.176C741.707 384.619 741.759 384.049 741.863 383.475C742.609 378.81 746.336 373.454 750.773 370.87C751.138 370.662 751.503 370.473 751.849 370.317C756.358 368.235 759.844 370.056 759.844 374.702Z" fill="url(#paint18_linear_12_22)"/>
<path d="M752.086 375.914C752.086 377.921 750.461 380.481 748.454 381.641C746.457 382.794 744.824 382.107 744.824 380.107L744.886 379.429C745.186 377.559 746.678 375.415 748.454 374.379L748.887 374.158C750.692 373.324 752.086 374.053 752.086 375.914Z" fill="#E6E8E7"/>
<path d="M538.879 440.585C538.879 451.9 542.801 460.032 549.36 464.443C558.136 470.34 576.964 480.537 576.964 480.537C603.415 465.267 655.367 412.225 655.367 385.773C655.367 374.266 630.603 365.571 623.84 361.215C615.056 355.562 601.712 356.422 586.771 365.046C560.319 380.316 538.879 414.137 538.879 440.585Z" fill="url(#paint19_linear_12_22)"/>
<path d="M564.784 455.682C564.784 482.133 586.228 491.197 612.676 475.927C639.127 460.66 660.568 426.839 660.568 400.388C660.568 373.94 639.127 364.873 612.676 380.143C586.228 395.41 564.784 429.231 564.784 455.682Z" fill="#3C414E"/>
<path d="M569.465 457.858C569.465 469.17 573.388 477.305 579.949 481.713C588.726 487.61 607.554 497.807 607.554 497.807C634.005 482.537 685.957 429.495 685.957 403.043C685.957 391.536 661.193 382.841 654.429 378.485C645.646 372.832 632.301 373.692 617.357 382.32C590.909 397.586 569.465 431.407 569.465 457.858Z" fill="url(#paint20_linear_12_22)"/>
<path d="M595.373 472.952C595.373 499.404 616.817 508.467 643.265 493.197C669.716 477.93 691.157 444.11 691.157 417.658C691.157 391.21 669.716 382.147 643.265 397.413C616.817 412.683 595.373 446.501 595.373 472.952Z" fill="#3C414E"/>
<path d="M609.518 462.226C609.518 479.78 623.749 485.794 641.303 475.662C658.857 465.53 673.087 443.083 673.087 425.529C673.087 407.975 658.857 401.961 641.303 412.093C623.749 422.225 609.518 444.672 609.518 462.226Z" fill="url(#paint21_linear_12_22)"/>
<path d="M611.48 463.653C611.48 481.207 625.711 487.221 643.265 477.089C660.818 466.957 675.049 444.51 675.049 426.956C675.049 409.402 660.818 403.388 643.265 413.52C625.711 423.652 611.48 446.099 611.48 463.653Z" fill="#D9DADB"/>
<path d="M671.778 428.843C671.778 444.601 659.014 464.729 643.252 473.835C627.545 482.889 614.728 477.491 614.728 461.784C614.728 460.038 614.891 458.239 615.22 456.438C617.566 441.767 629.291 424.914 643.252 416.788C644.398 416.133 645.545 415.534 646.633 415.042C660.815 408.497 671.778 414.224 671.778 428.843Z" fill="url(#paint22_linear_12_22)"/>
<path d="M657.926 427.204V427.422C657.926 439.366 648.273 454.584 636.329 461.455C634.146 462.765 632.019 463.638 630.002 464.182C623.346 465.984 618.059 463.911 615.931 458.565C615.602 457.91 615.384 457.203 615.221 456.438C615.547 454.31 616.094 452.131 616.804 449.948C620.512 438.548 629.018 426.823 639.219 419.46C640.529 418.479 641.891 417.606 643.252 416.788C644.236 416.241 645.162 415.752 646.09 415.316L646.634 415.042C653.29 414.772 657.815 419.134 657.926 427.204Z" fill="#E6E8E7"/>
<path d="M655.96 424.207C655.96 435.877 641.179 457.204 629.453 464.13L629.29 464.238C629.29 464.238 629.127 464.182 628.798 464.075C628.254 463.964 627.762 463.856 627.274 463.583L626.674 463.365C624.11 462.439 619.911 460.8 615.93 458.565C615.6 457.911 615.382 457.204 615.219 456.438C615.545 454.311 616.092 452.131 616.803 449.948C620.51 438.549 629.017 426.823 639.217 419.46C640.527 418.48 641.889 417.606 643.251 416.789C644.235 416.241 645.16 415.753 646.088 415.316C649.851 418.043 653.015 421.151 654.706 422.842L654.761 422.897C655.523 423.715 655.96 424.207 655.96 424.207Z" fill="url(#paint23_linear_12_22)"/>
<path d="M658.691 432.049C658.691 442.334 650.364 455.463 640.082 461.406C629.833 467.313 621.473 463.791 621.473 453.541C621.473 452.404 621.577 451.228 621.792 450.055C623.323 440.483 630.973 429.488 640.082 424.184C640.828 423.757 641.577 423.366 642.288 423.047C651.54 418.776 658.691 422.513 658.691 432.049Z" fill="#DCDDDD"/>
<path d="M649.857 438.195C649.857 443.205 645.801 449.604 640.791 452.5C635.796 455.377 631.72 453.66 631.72 448.669C631.72 448.115 631.773 447.542 631.877 446.968C632.623 442.306 636.35 436.947 640.791 434.363C641.152 434.155 641.517 433.966 641.862 433.809C646.371 431.728 649.857 433.549 649.857 438.195Z" fill="url(#paint24_linear_12_22)"/>
<path d="M642.098 439.405C642.098 441.412 640.472 443.972 638.469 445.132C636.468 446.285 634.836 445.598 634.836 443.598L634.898 442.92C635.198 441.05 636.69 438.906 638.469 437.87L638.899 437.649C640.704 436.815 642.098 437.544 642.098 439.405Z" fill="#E6E8E7"/>
<path d="M621.639 395.019C621.528 397.475 604.131 415.691 588.587 443.233C581.824 455.34 575.389 469.193 570.916 484.355L528.647 457.467C530.068 442.305 535.085 428.234 541.52 416.016C556.138 387.819 578.061 369.222 579.37 368.131L621.639 395.019Z" fill="#DB3538"/>
<path d="M621.638 395.018C621.527 397.475 604.13 415.69 588.586 443.233L541.518 416.016C556.137 387.818 578.059 369.222 579.369 368.13L621.638 395.018Z" fill="#F03F46"/>
<path d="M576.319 482.413L570.895 484.355C575.537 434.098 619.771 396.579 621.65 395.009L624.179 398.586C623.742 398.951 580.649 435.564 576.319 482.413Z" fill="#B12C22"/>
<path d="M488.795 318.386L556.736 356.996L549.578 379.378L481.637 340.765L488.795 318.386Z" fill="#48484A"/>
<path d="M489.073 307.888L498.036 352.482V400.43L513.175 391.692V418.28L498.036 427.018L493.859 429.429L480.11 437.365V313.061L489.073 307.888Z" fill="#BDC0C2"/>
<path d="M565.947 290.881V302.47C565.947 310.312 575.714 316.668 587.762 316.668C599.813 316.668 609.581 310.312 609.581 302.47V290.174L565.947 290.881Z" fill="url(#paint25_linear_12_22)"/>
<path d="M547.269 279.895V285.053C547.269 299.609 565.4 311.41 587.762 311.41C610.128 311.41 628.255 299.609 628.255 285.053V278.582L547.269 279.895Z" fill="url(#paint26_linear_12_22)"/>
<path d="M628.256 279.895C628.256 294.455 610.128 306.255 587.763 306.255C565.4 306.255 547.27 294.455 547.27 279.895C547.27 265.339 565.4 253.538 587.763 253.538C610.128 253.538 628.256 265.339 628.256 279.895Z" fill="#BAB9B8"/>
<path d="M219.964 270.701V412.66C219.964 416.713 225.013 420 231.242 420C237.469 420 242.519 416.713 242.519 412.66V270.337L219.964 270.701Z" fill="url(#paint27_linear_12_22)"/>
<path d="M242.521 270.702C242.521 274.755 237.471 278.042 231.243 278.042C225.015 278.042 219.965 274.755 219.965 270.702C219.965 266.649 225.015 263.362 231.243 263.362C237.471 263.362 242.521 266.649 242.521 270.702Z" fill="#E4F4F1"/>
<path d="M249.818 208.958C250.525 216.975 244.254 221.396 244.254 221.396L241.253 223.85C238.637 225.922 237.109 229.137 237.109 232.467V268.897C236.51 270.644 234.109 271.898 231.22 271.898C228.493 271.898 226.202 270.754 225.493 269.116V229.522C225.493 223.684 228.111 218.23 232.583 214.578L245.019 203.341C245.019 203.341 249.271 202.305 249.818 208.958Z" fill="#B9C7C4"/>
<path d="M227.879 270.988V231.391C227.879 225.556 230.497 220.102 234.969 216.45L247.404 205.214C247.404 205.214 248.023 205.07 248.822 205.249C247.391 202.767 245.019 203.34 245.019 203.34L232.583 214.577C228.111 218.229 225.493 223.683 225.493 229.521V269.115C225.9 270.053 226.864 270.799 228.097 271.288L227.879 270.988Z" fill="#E0E4E8"/>
<path d="M247.865 217.245L241.216 223.253C236.746 226.908 234.127 232.362 234.127 238.197V271.369C235.599 270.851 236.733 269.994 237.108 268.896V232.466C237.108 229.136 238.636 225.921 241.252 223.849L244.252 221.396C244.252 221.396 246.25 219.929 247.865 217.245Z" fill="#A4A7A8"/>
<path d="M112.088 458.525V464.145C112.088 470.355 119.822 475.388 129.361 475.388C138.9 475.388 146.633 470.355 146.633 464.145V457.962L112.088 458.525Z" fill="url(#paint28_linear_12_22)"/>
<path d="M110.152 449.629V455.884C110.152 462.791 118.754 468.388 129.364 468.388C139.974 468.388 148.576 462.791 148.576 455.884V449.007L110.152 449.629Z" fill="url(#paint29_linear_12_22)"/>
<path d="M148.575 449.632C148.575 456.539 139.973 462.136 129.363 462.136C118.753 462.136 110.151 456.539 110.151 449.632C110.151 442.725 118.753 437.125 129.363 437.125C139.973 437.125 148.575 442.725 148.575 449.632Z" fill="#BFCDC9"/>
<path d="M112.089 431.906V447.43C112.089 453.639 119.822 458.673 129.361 458.673C138.9 458.673 146.633 453.639 146.633 447.43V431.342L112.089 431.906Z" fill="url(#paint30_linear_12_22)"/>
<path d="M110.152 420.828V427.08C110.152 433.986 118.754 439.584 129.364 439.584C139.974 439.584 148.576 433.986 148.576 427.08V420.202L110.152 420.828Z" fill="url(#paint31_linear_12_22)"/>
<path d="M148.575 420.828C148.575 427.735 139.973 433.332 129.363 433.332C118.753 433.332 110.151 427.735 110.151 420.828C110.151 413.921 118.753 408.321 129.363 408.321C139.973 408.321 148.575 413.921 148.575 420.828Z" fill="#BFCDC9"/>
<path d="M112.089 413.87V419.493C112.089 425.703 119.822 430.736 129.361 430.736C138.9 430.736 146.633 425.703 146.633 419.493V413.309L112.089 413.87Z" fill="url(#paint32_linear_12_22)"/>
<path d="M146.635 413.872C146.635 420.078 138.902 425.112 129.363 425.112C119.825 425.112 101.313 421.524 101.313 415.315C101.313 409.105 119.825 402.628 129.363 402.628C138.902 402.628 146.635 407.662 146.635 413.872Z" fill="#E4F4F1"/>
<path d="M48.7604 602.97C48.7604 618.852 61.6359 624.293 77.5171 615.128C93.3983 605.96 106.272 577.883 106.272 562.004C106.272 546.122 93.3983 548.448 77.5171 557.616C82.2805 554.866 48.7604 612.649 48.7604 602.97Z" fill="#ABD7B0"/>
<path d="M161.334 534.56C156.588 507.727 145.845 494.093 129.429 493.985C128.501 493.985 127.52 494.037 126.538 494.148C124.847 491.203 107.434 494.959 104.986 496.575C103.759 497.383 83.1609 524.02 47.8466 586.371L15.5483 568.364C21.8198 535.368 64.527 471.567 103.249 471.567H103.522C107.941 471.567 112.849 472.385 117.648 474.679C123.266 477.35 148.844 488.531 153.59 496.275L153.645 496.328C157.843 503.309 159.098 521.854 161.334 534.56Z" fill="#C52C27"/>
<path d="M46.4228 561.306V568.565C46.4228 569.855 45.6911 570.891 44.6883 571.409C43.7806 571.875 38.9308 575.511 37.9189 574.931L21.7871 555.428C19.1322 553.913 17.4945 551.092 17.4945 548.036L8.90161 544.498C8.90161 543.394 14.1283 541.129 14.9135 540.562L15.2139 540.37C16.1378 539.849 17.3189 539.777 18.3712 540.377L42.1301 553.913C44.7847 555.428 46.4228 558.25 46.4228 561.306Z" fill="url(#paint33_linear_12_22)"/>
<path d="M40.5051 564.778V572.036C40.5051 574.49 37.8554 576.027 35.725 574.812L11.9661 561.275C9.31278 559.76 7.67468 556.939 7.67468 553.883V546.624C7.67468 544.171 10.3244 542.633 12.4547 543.848L36.2137 557.385C38.867 558.9 40.5051 561.722 40.5051 564.778Z" fill="#7C7D7F"/>
<path d="M22.2441 558.815C22.2441 559.688 22.0799 560.395 21.7528 560.943C20.8249 562.634 18.589 562.959 16.026 561.431C12.5351 559.47 9.75439 555.052 9.75439 551.56C9.75439 549.107 11.1719 547.745 13.2987 548.015C14.1171 548.07 15.0447 548.396 16.026 548.944C19.4621 550.905 22.2441 555.323 22.2441 558.815Z" fill="#BFCFE1"/>
<path d="M36.1515 567.214C36.1515 568.087 35.9873 568.794 35.6605 569.341C34.6792 571.032 32.498 571.358 29.8786 569.886C26.4438 567.869 23.6618 563.451 23.6618 560.014C23.6618 557.505 25.0797 556.196 27.1514 556.414C27.9698 556.469 28.8977 556.795 29.8786 557.342C33.3695 559.359 36.1515 563.777 36.1515 567.214Z" fill="#BFCFE1"/>
<path d="M22.2435 558.816C22.2435 559.689 22.0793 560.396 21.7522 560.943C20.9338 560.888 20.0063 560.559 19.025 560.015C15.5888 558.05 12.8082 553.632 12.8082 550.143C12.8082 549.27 12.9711 548.563 13.2982 548.016C14.1166 548.071 15.0441 548.397 16.0254 548.944C19.4616 550.906 22.2435 555.323 22.2435 558.816Z" fill="#E5ECEE"/>
<path d="M36.1517 567.214C36.1517 568.087 35.9875 568.794 35.6607 569.342C34.8423 569.342 33.9158 569.013 32.9332 568.469C29.4983 566.449 26.6616 562.034 26.6616 558.597C26.6616 557.724 26.8245 556.962 27.1516 556.414C27.97 556.47 28.8979 556.795 29.8788 557.343C33.3697 559.359 36.1517 563.777 36.1517 567.214Z" fill="#E5ECEE"/>
<path d="M47.1655 589.036L375.495 383.127V332.085L47.1655 537.997V589.036Z" fill="#A95F1D"/>
<path d="M142.283 516.931L235.397 470.948V437.545L142.283 491.294V516.931Z" fill="#75CFA3"/>
<path d="M237.443 492.721L375.495 413.028V360.533L237.443 440.225V492.721Z" fill="#75CFA3"/>
<path d="M375.497 334.287L243.579 410.439V425.096L375.497 348.945V334.287Z" fill="#75CFA3"/>
<path d="M485.485 267.353L404.649 379.691L243.579 410.439V273.824C243.579 262.642 253.744 239.771 260.497 230.867C285.763 197.548 297.687 186.439 323.858 174L485.485 267.353Z" fill="#DB3538"/>
<path d="M365.674 355.333C365.674 344.155 376.067 317.28 382.13 307.887C405.307 271.969 424.542 260.416 450.39 248.065V241.982L349.286 189.669C323.115 202.108 302.567 226.888 288.744 262.103C284.661 272.509 277.439 291.829 277.439 303.007L269.01 426.105L370.561 406.721L365.674 355.333Z" fill="#B12C22"/>
<path d="M365.674 349.254C365.674 338.076 376.067 311.201 382.13 301.809C405.307 265.89 424.542 254.337 450.39 241.983L349.286 183.587C323.115 196.026 302.567 220.806 288.744 256.021C284.661 266.43 277.439 285.75 277.439 296.928L269.01 420.027L370.561 400.642L365.674 349.254Z" fill="#F03F46"/>
<path d="M185.133 690.534L488.795 512.715V479.197L185.133 642.496V690.534Z" fill="#48484A"/>
<path d="M445.169 566.303L516.903 523.868C526.455 518.353 527.328 501.985 518.858 487.311C510.384 472.637 495.772 465.212 486.219 470.724L413.626 513.661L445.169 566.303Z" fill="url(#paint34_linear_12_22)"/>
<path d="M414.487 513.161C424.039 507.646 438.651 515.071 447.122 529.744C455.596 544.422 454.719 560.786 445.167 566.302C435.615 571.818 421.003 564.393 412.532 549.719C404.058 535.042 404.935 518.677 414.487 513.161Z" fill="#898F94"/>
<path d="M414.097 520.453C421.743 516.038 433.439 521.984 440.222 533.729C447.005 545.477 446.302 558.577 438.655 562.995C431.009 567.406 419.313 561.464 412.533 549.719C405.75 537.971 406.45 524.868 414.097 520.453Z" fill="#7A8687"/>
<path d="M303.911 635.576L397.027 581.827V548.42L303.911 602.173V635.576Z" fill="#9BA8A7"/>
<path d="M391.864 570.492V555.154L380.849 560.95V579.312L391.864 583.511V570.492Z" fill="#7A8687"/>
<path d="M397.283 580.387L310.227 630.647L320.816 636.759L407.871 586.498L397.283 580.387Z" fill="#E0E4E8"/>
<path d="M386.437 542.222L299.381 592.485L309.97 598.597L397.025 548.337L386.437 542.222Z" fill="#BDC0C2"/>
<path d="M310.228 630.646L310.225 633.106L320.813 639.218L320.816 636.758L310.228 630.646Z" fill="#828484"/>
<path d="M407.868 588.958L320.812 639.218L320.815 636.758L407.871 586.498L407.868 588.958Z" fill="#BCBBBB"/>
<path d="M381.276 564.38L294.22 614.641L304.809 620.756L391.864 570.492L381.276 564.38Z" fill="#E0E4E8"/>
<path d="M391.862 572.952L304.806 623.216L304.809 620.756L391.865 570.493L391.862 572.952Z" fill="#BCBBBB"/>
<path d="M316.923 586.935L405.207 535.971V365.479L320.943 415.567L323.4 443.1L327.944 434.701L316.923 505.47V586.935Z" fill="#B12C22"/>
<path d="M175.56 646.21L316.921 586.935V505.466C284.543 488.264 175.56 568.905 175.56 568.905V646.21Z" fill="#A92122"/>
<path d="M342.398 639.316L316.438 625.082C314.474 614.174 311.584 605.446 307.603 598.904C308.583 598.793 309.564 598.738 310.492 598.738C326.909 598.849 337.654 612.483 342.398 639.316Z" fill="#353A3F"/>
<path d="M209.999 671.858C209.999 683.173 213.922 691.305 220.481 695.713C229.259 701.61 248.086 711.807 248.086 711.807C274.538 696.541 326.489 643.498 326.489 617.047C326.489 605.54 301.725 596.844 294.962 592.488C286.178 586.836 272.834 587.696 257.889 596.319C231.441 611.589 209.999 645.41 209.999 671.858Z" fill="url(#paint35_linear_12_22)"/>
<path d="M235.904 686.958C235.904 713.406 257.345 722.473 283.796 707.203C310.247 691.933 331.688 658.115 331.688 631.664C331.688 605.212 310.247 596.149 283.796 611.419C257.345 626.686 235.904 660.506 235.904 686.958Z" fill="#3C414E"/>
<path d="M250.049 676.233C250.049 693.787 264.279 699.801 281.833 689.669C299.387 679.533 313.618 657.089 313.618 639.535C313.618 621.981 299.387 615.964 281.833 626.099C264.279 636.232 250.049 658.676 250.049 676.233Z" fill="url(#paint36_linear_12_22)"/>
<path d="M252.011 677.659C252.011 695.213 266.242 701.227 283.796 691.095C301.35 680.963 315.58 658.516 315.58 640.962C315.58 623.408 301.35 617.391 283.796 627.526C266.242 637.658 252.011 660.102 252.011 677.659Z" fill="#D9DADB"/>
<path d="M312.307 642.844C312.307 658.606 299.543 678.731 283.781 687.84C268.074 696.894 255.257 691.495 255.257 675.785C255.257 674.042 255.42 672.241 255.749 670.442C258.095 655.772 269.82 638.918 283.781 630.793C284.928 630.138 286.074 629.539 287.163 629.047C301.344 622.502 312.307 628.229 312.307 642.844Z" fill="url(#paint37_linear_12_22)"/>
<path d="M298.456 641.209V641.428C298.456 653.371 288.802 668.589 276.855 675.46C274.676 676.77 272.548 677.643 270.532 678.187C263.876 679.985 258.585 677.913 256.46 672.57C256.131 671.915 255.913 671.205 255.75 670.443C256.076 668.316 256.623 666.133 257.33 663.953C261.041 652.553 269.548 640.828 279.748 633.465C281.055 632.481 282.42 631.611 283.782 630.794C284.766 630.246 285.691 629.754 286.619 629.321L287.163 629.047C293.819 628.774 298.345 633.139 298.456 641.209Z" fill="#E6E8E7"/>
<path d="M296.49 638.208C296.49 649.881 281.709 671.204 269.983 678.131L269.821 678.242C269.821 678.242 269.658 678.186 269.329 678.075C268.784 677.968 268.293 677.86 267.801 677.587L267.201 677.369C264.64 676.44 260.441 674.804 256.46 672.569C256.131 671.915 255.912 671.204 255.749 670.442C256.075 668.315 256.623 666.132 257.33 663.952C261.04 652.553 269.547 640.827 279.747 633.464C281.054 632.48 282.419 631.611 283.781 630.793C284.765 630.245 285.69 629.753 286.618 629.32C290.381 632.047 293.545 635.155 295.236 636.846L295.291 636.901C296.054 637.719 296.49 638.208 296.49 638.208Z" fill="url(#paint38_linear_12_22)"/>
<path d="M299.221 646.054C299.221 656.336 290.893 669.469 280.611 675.411C270.362 681.318 262.002 677.793 262.002 667.547C262.002 666.406 262.106 665.234 262.321 664.057C263.849 654.486 271.502 643.493 280.611 638.189C281.357 637.763 282.107 637.372 282.817 637.052C292.07 632.781 299.221 636.518 299.221 646.054Z" fill="#DCDDDD"/>
<path d="M290.385 652.198C290.385 657.209 286.329 663.608 281.315 666.504C276.324 669.381 272.248 667.664 272.248 662.673C272.248 662.116 272.3 661.542 272.404 660.972C273.15 656.307 276.878 650.951 281.315 648.367C281.68 648.159 282.045 647.97 282.39 647.813C286.899 645.731 290.385 647.553 290.385 652.198Z" fill="url(#paint39_linear_12_22)"/>
<path d="M282.629 653.411C282.629 655.417 281.003 657.978 279 659.138C276.999 660.291 275.367 659.604 275.367 657.603L275.429 656.923C275.729 655.056 277.221 652.912 279 651.876L279.43 651.654C281.235 650.82 282.629 651.55 282.629 653.411Z" fill="#E6E8E7"/>
<path d="M332.805 488.721C330.828 488.721 328.896 487.789 327.638 486.228C326.39 484.677 325.921 482.664 326.351 480.7L333.327 434.463C334.747 427.908 338.725 422.203 344.257 418.671L367.861 403.61C369.083 402.831 370.477 402.417 371.894 402.417C376.055 402.417 379.436 405.799 379.436 409.96V451.586C379.436 458.51 375.712 464.96 369.718 468.417L336.106 487.825C335.089 488.411 333.949 488.721 332.805 488.721Z" fill="#E0E4E8"/>
<path d="M335.012 485.935L368.628 466.528C373.968 463.446 377.255 457.754 377.255 451.59V409.957C377.255 405.734 372.59 403.18 369.032 405.451L345.431 420.509C340.346 423.754 336.765 428.892 335.482 434.785L328.48 481.162C327.662 484.915 331.686 487.854 335.012 485.935Z" fill="#6BABAE"/>
<path d="M334.642 550.622C331.214 550.622 328.429 547.837 328.429 544.409V512.615C328.429 509.36 330.181 506.324 333.003 504.698L345.816 497.296C346.768 496.752 347.836 496.459 348.911 496.459C352.332 496.459 355.118 499.245 355.118 502.672V534.466C355.118 537.727 353.368 540.757 350.55 542.383L337.733 549.785C336.785 550.329 335.717 550.622 334.642 550.622Z" fill="#E0E4E8"/>
<path d="M349.462 540.493L336.642 547.892C333.961 549.44 330.612 547.504 330.612 544.409V512.612C330.612 510.129 331.938 507.832 334.091 506.588L346.911 499.189C349.59 497.641 352.939 499.577 352.939 502.672V534.469C352.939 536.952 351.613 539.249 349.462 540.493Z" fill="#529AA1"/>
<path d="M485.486 475.066L405.207 521.316V386.013C405.207 373.903 407.484 360.067 412.127 348.879C421.308 326.747 460.074 274.428 485.486 267.352V475.066Z" fill="#B12C22"/>
<path d="M485.286 470.587L387.482 527.448V542.105L390.991 544.288L488.795 472.773L485.286 470.587Z" fill="#E0E4E8"/>
<path d="M488.797 472.773L390.993 529.631V544.288L488.797 487.43V472.773Z" fill="#A4A7A8"/>
<path d="M414.129 523.128L414.1 525.467C414.087 526.51 413.51 527.481 412.601 528.008L402.665 533.791C401.863 534.257 400.876 533.684 400.886 532.765L400.895 532.107L409.213 527.272C410.122 526.741 410.702 525.773 410.715 524.731L410.734 523.05L412.35 522.118C413.152 521.652 414.139 522.226 414.129 523.128Z" fill="#7A8687"/>
<path d="M410.734 523.05L410.715 524.731C410.702 525.773 410.122 526.741 409.213 527.272L400.895 532.107L400.915 530.442C400.928 529.383 401.508 528.415 402.417 527.884L410.734 523.05Z" fill="#E4C517"/>
<path d="M484.179 481.712L484.15 484.051C484.137 485.094 483.557 486.061 482.651 486.589L472.714 492.375C471.913 492.841 470.926 492.268 470.935 491.349L470.945 490.691L479.263 485.853C480.172 485.325 480.748 484.354 480.761 483.315L480.784 481.634L482.4 480.702C483.202 480.236 484.189 480.809 484.179 481.712Z" fill="#7A8687"/>
<path d="M480.783 481.634L480.76 483.315C480.747 484.355 480.17 485.325 479.261 485.853L470.944 490.691L470.963 489.026C470.976 487.968 471.556 486.997 472.462 486.469L480.783 481.634Z" fill="#E4C517"/>
<path d="M460.829 495.517L460.8 497.856C460.786 498.899 460.207 499.87 459.298 500.398L449.364 506.181C448.563 506.65 447.576 506.073 447.585 505.154L447.595 504.496L455.913 499.661C456.822 499.13 457.402 498.163 457.415 497.12L457.434 495.439L459.05 494.507C459.851 494.041 460.839 494.615 460.829 495.517Z" fill="#7A8687"/>
<path d="M457.435 495.438L457.415 497.12C457.402 498.162 456.822 499.13 455.913 499.661L447.596 504.496L447.615 502.831C447.629 501.775 448.208 500.804 449.117 500.273L457.435 495.438Z" fill="#E4C517"/>
<path d="M437.478 509.324L437.449 511.664C437.436 512.703 436.856 513.674 435.95 514.201L426.014 519.984C425.212 520.453 424.225 519.88 424.235 518.961L424.245 518.303L432.562 513.465C433.471 512.937 434.048 511.967 434.061 510.927L434.084 509.246L435.703 508.314C436.501 507.845 437.488 508.419 437.478 509.324Z" fill="#7A8687"/>
<path d="M434.085 509.245L434.062 510.926C434.049 511.966 433.473 512.937 432.564 513.464L424.246 518.302L424.266 516.638C424.279 515.579 424.858 514.608 425.767 514.08L434.085 509.245Z" fill="#E4C517"/>
<path d="M161.772 332.221C163.9 378.836 335.825 470.554 323.399 425.578C319.75 412.37 405.206 367.785 405.206 367.785C405.206 367.785 312.817 335.811 243.579 274.428C243.579 274.428 160.629 307.207 161.772 332.221Z" fill="#F35C55"/>
<path d="M369.795 353.291C339.499 339.637 294.66 319.271 254.991 286.939C225.891 301.437 170.09 331.697 170.935 350.206C171.046 352.626 171.58 355.089 172.348 357.565C191.714 382.254 234.153 410.575 269.28 426.92C285.257 429.872 295.533 426.135 291.627 411.996C288.43 400.433 355.427 365.479 369.795 353.291Z" fill="#B12C22"/>
<path d="M369.795 353.291C339.499 339.636 294.66 316.43 254.991 284.098C225.891 298.596 170.09 328.856 170.935 347.364C171.046 349.785 171.58 352.248 172.348 354.724C191.714 379.413 234.153 407.734 269.28 424.083C285.257 427.031 295.533 423.294 291.627 409.155C288.43 397.595 353.534 361.979 369.795 353.291Z" fill="#F57564"/>
<path d="M315.29 505.789C282.649 514.986 186.524 560.33 186.524 560.33L62.2532 485.811C62.2532 485.811 107.841 452.225 155.273 412.09C190.683 382.127 309.674 498.481 316.6 505.134C316.163 505.297 315.727 505.571 315.29 505.789Z" fill="#F1454F"/>
<path d="M282.148 488.659L161.77 562.266L72.437 494.494L186.403 402.29L282.148 488.659Z" fill="#B12C22"/>
<path d="M294.633 480.696L161.77 557.668L72.437 489.893L186.403 397.693L294.633 480.696Z" fill="#F35C55"/>
<path d="M283.115 455.177L149.838 545.044L71.8575 509.637L203.364 409.979L283.115 455.177Z" fill="#F57564"/>
<path d="M106.272 517.73L126.39 502.007C109.369 490.529 87.7421 485.453 74.9901 483.326C68.4387 482.234 61.8274 484.749 57.5679 489.848L50.1 498.788L106.272 517.73Z" fill="#C8D7D3"/>
<path d="M192.576 569.846V636.354L175.56 646.226L172.615 571.319L172.506 568.537L106.271 517.729L126.366 502C140.546 508.327 167.324 532.162 182.105 545.852C186.904 550.322 190.231 556.049 191.648 562.265C192.249 564.722 192.576 567.286 192.576 569.846Z" fill="#E4F4F1"/>
<path d="M192.576 569.846V636.354L175.559 646.226L172.614 571.319L191.648 562.265C192.248 564.722 192.576 567.286 192.576 569.846Z" fill="#D0DFDB"/>
<path d="M59.258 495.914L74.7398 498.837C98.5496 506.877 120.782 518.99 140.448 534.638L169 561.334C173.185 565.247 175.559 570.72 175.559 576.451V686.071L47.1655 612.239V505.942C47.1655 499.55 52.9764 494.731 59.258 495.914Z" fill="#97AFB9"/>
<path d="M7.19 562.161L211.542 680.089L224.201 677.916L230.44 681.516L215.536 690.678L0.012085 566.302L7.19 562.161Z" fill="#E4F4F1"/>
<path d="M230.429 681.514L225.846 729.781L222.084 732.074C219.847 733.436 217.338 734.091 214.83 733.928C212.757 733.873 210.685 733.329 208.886 732.289L4.74423 614.43C1.79937 612.794 0 609.686 0 606.304V566.329L208.886 686.861C210.685 687.897 212.757 688.441 214.83 688.496C217.338 688.659 219.847 688.004 222.084 686.642L230.429 681.514Z" fill="#97AFB9"/>
<path d="M230.428 681.514L225.845 729.781L222.083 732.074C219.846 733.436 217.338 734.091 214.83 733.928V688.496C217.338 688.659 219.846 688.004 222.083 686.642L230.428 681.514Z" fill="#D0DFDB"/>
<path d="M225.838 722.456L222.09 724.763C218.053 727.245 212.98 727.314 208.876 724.945L0.0119629 604.414V606.304C0.0119629 609.666 1.80612 612.774 4.71938 614.455L208.876 732.272C212.98 734.641 218.051 734.569 222.088 732.087L225.838 729.783L226.573 722.072L225.838 722.456Z" fill="#D93B3C"/>
<path d="M35.6348 632.168L15.6518 620.687V613.438L35.6348 624.922V632.168Z" fill="#E4F4F1"/>
<path d="M289.199 567.951V573.575C289.199 579.784 296.93 584.818 306.469 584.818C316.008 584.818 323.743 579.784 323.743 573.575V567.391L289.199 567.951Z" fill="url(#paint40_linear_12_22)"/>
<path d="M287.258 559.057V565.312C287.258 572.219 295.859 577.816 306.47 577.816C317.081 577.816 325.682 572.219 325.682 565.312V558.434L287.258 559.057Z" fill="url(#paint41_linear_12_22)"/>
<path d="M325.681 559.057C325.681 565.964 317.08 571.564 306.469 571.564C295.858 571.564 287.257 565.964 287.257 559.057C287.257 552.153 295.858 546.553 306.469 546.553C317.08 546.553 325.681 552.153 325.681 559.057Z" fill="#BFCDC9"/>
<path d="M289.199 541.334V556.858C289.199 563.067 296.93 568.101 306.469 568.101C316.008 568.101 323.743 563.067 323.743 556.858V540.77L289.199 541.334Z" fill="url(#paint42_linear_12_22)"/>
<path d="M287.258 530.253V536.508C287.258 543.415 295.859 549.012 306.47 549.012C317.081 549.012 325.682 543.415 325.682 536.508V529.631L287.258 530.253Z" fill="url(#paint43_linear_12_22)"/>
<path d="M325.681 530.254C325.681 537.16 317.08 542.761 306.469 542.761C295.858 542.761 287.257 537.16 287.257 530.254C287.257 523.35 295.858 517.75 306.469 517.75C317.08 517.75 325.681 523.35 325.681 530.254Z" fill="#BFCDC9"/>
<path d="M289.199 523.297V528.92C289.199 535.13 296.93 540.163 306.469 540.163C316.008 540.163 323.743 535.13 323.743 528.92V522.737L289.199 523.297Z" fill="url(#paint44_linear_12_22)"/>
<path d="M323.744 523.297C323.744 529.507 316.009 534.54 306.47 534.54C296.931 534.54 289.2 529.507 289.2 523.297C289.2 517.087 296.931 512.054 306.47 512.054C316.009 512.054 323.744 517.087 323.744 523.297Z" fill="#E4F4F1"/>
<path d="M342.396 639.3C340.487 628.718 337.705 620.156 333.942 613.721C328.325 603.794 320.418 598.777 310.491 598.722C309.563 598.722 308.582 598.777 307.602 598.888C305.911 595.943 288.513 599.706 286.057 601.341C285.184 601.885 268.878 610.284 247.388 635.211C237.354 646.936 226.119 662.317 214.83 682.223L173.87 659.424C176.597 645.135 190.287 627.737 208.176 612.522C231.682 592.506 262.332 576.307 284.314 576.307H284.584C289.002 576.307 293.912 577.125 298.711 579.415C304.327 582.087 329.909 593.268 334.652 601.015L334.708 601.068C335.851 602.921 336.724 605.541 337.49 608.704C339.614 617.429 340.761 629.92 342.396 639.3Z" fill="#DB3538"/>
<path d="M337.49 608.705C336.288 610.34 335.144 612.031 333.942 613.722C328.326 603.795 320.419 598.778 310.492 598.723C309.563 598.723 308.582 598.778 307.602 598.889C305.911 595.944 288.513 599.706 286.057 601.342C285.184 601.886 268.878 610.285 247.388 635.212L208.177 612.523C231.682 592.506 262.332 576.308 284.314 576.308H284.584C289.002 576.308 293.912 577.126 298.711 579.416C304.327 582.088 329.909 593.269 334.653 601.016L334.708 601.068C335.851 602.922 336.725 605.541 337.49 608.705Z" fill="#F03F46"/>
<path d="M274.19 587.622L265.811 592.434L259.113 588.583L267.502 583.764L274.19 587.622Z" fill="#AF2F24"/>
<path d="M350.47 637.899L342.396 639.317C337.653 612.484 326.908 598.85 310.491 598.739C309.563 598.739 308.582 598.794 307.601 598.905C274.442 601.847 229.711 649.064 224.202 677.917L214.83 682.24C220.666 651.641 264.57 598.85 301.819 591.431C304.712 590.887 307.546 590.558 310.328 590.558H310.547C318.18 590.613 327.016 592.959 334.652 601.032L334.708 601.085C341.471 608.174 347.195 619.684 350.47 637.899Z" fill="#B12C22"/>
<path d="M327.944 434.7L316.922 505.469L225.544 461.288L215.945 456.815L214.418 456.105L155.272 412.09L168.142 338.069L230.264 382.57L239.591 387.968L327.944 434.7Z" fill="#DB3538"/>
<path d="M323.526 436.346L313.111 497.66L225.529 455.271L215.929 450.798L215.711 450.69L161.381 409.907L171.743 348.7L179.487 353.173L213.902 373.079L230.264 382.514L239.592 387.913L323.526 436.346Z" fill="#528B94"/>
<path d="M236.415 442.526L226.815 438.056L226.596 437.945L172.266 397.165L162.543 403.04L161.381 409.907L215.711 450.69L215.929 450.798L225.529 455.271L313.111 497.66L315.935 481.019L236.415 442.526Z" fill="#73A2A7"/>
<path d="M213.9 373.079C213.083 373.786 212.21 374.441 211.228 374.988L177.578 394.402C174.251 396.312 170.214 393.422 171.033 389.659L178.069 357.48C178.396 356.008 178.831 354.535 179.485 353.173L213.9 373.079Z" fill="#B5DDC1"/>
<path d="M278.38 585.312L270.001 590.124L263.302 586.273L271.692 581.455L278.38 585.312Z" fill="#CB8D19"/>
<path d="M278.39 585.312V590.065L270 594.877V590.124L278.38 585.312H278.39Z" fill="#E4C517"/>
<path d="M270.001 590.124V594.877L263.302 591.03V586.273L270.001 590.124Z" fill="#AB611D"/>
<path d="M213.611 657.87V665.129C213.611 666.419 212.879 667.455 211.876 667.97C210.97 668.439 206.118 672.071 205.108 671.495L188.975 651.993C186.322 650.478 184.684 647.656 184.684 644.6L176.09 641.062C176.09 639.958 181.317 637.69 182.103 637.126L182.402 636.934C183.327 636.41 184.507 636.338 185.56 636.941L209.319 650.474C211.973 651.993 213.611 654.814 213.611 657.87Z" fill="url(#paint45_linear_12_22)"/>
<path d="M207.694 661.344V668.602C207.694 671.056 205.044 672.593 202.913 671.378L179.156 657.841C176.501 656.326 174.863 653.505 174.863 650.449V643.187C174.863 640.737 177.513 639.196 179.643 640.415L203.402 653.951C206.055 655.466 207.694 658.288 207.694 661.344Z" fill="#7C7D7F"/>
<path d="M189.433 655.378C189.433 656.251 189.27 656.961 188.942 657.505C188.015 659.196 185.779 659.525 183.216 657.997C179.725 656.033 176.943 651.615 176.943 648.126C176.943 645.673 178.361 644.308 180.489 644.581C181.307 644.637 182.234 644.962 183.216 645.506C186.652 647.471 189.433 651.889 189.433 655.378Z" fill="#BFCFE1"/>
<path d="M203.34 663.78C203.34 664.65 203.177 665.36 202.848 665.904C201.867 667.595 199.686 667.924 197.068 666.452C193.632 664.432 190.85 660.014 190.85 656.58C190.85 654.071 192.269 652.762 194.341 652.98C195.159 653.035 196.086 653.361 197.068 653.908C200.558 655.925 203.34 660.343 203.34 663.78Z" fill="#BFCFE1"/>
<path d="M189.433 655.378C189.433 656.252 189.27 656.962 188.941 657.506C188.124 657.45 187.196 657.125 186.215 656.581C182.779 654.616 179.997 650.198 179.997 646.709C179.997 645.836 180.162 645.126 180.489 644.582C181.307 644.637 182.233 644.963 183.216 645.507C186.652 647.471 189.433 651.889 189.433 655.378Z" fill="#E5ECEE"/>
<path d="M203.341 663.78C203.341 664.65 203.178 665.36 202.849 665.904C202.033 665.904 201.105 665.578 200.123 665.031C196.687 663.014 193.851 658.596 193.851 655.159C193.851 654.289 194.015 653.524 194.342 652.98C195.16 653.035 196.087 653.361 197.069 653.908C200.559 655.925 203.341 660.343 203.341 663.78Z" fill="#E5ECEE"/>
<path d="M239.592 387.913V387.969L225.529 455.272L224.002 460.563L214.402 456.089L215.929 450.798L230.264 382.57V382.515L239.592 387.913Z" fill="#DB3538"/>
<path d="M387.483 369.225V528.705C387.483 532.762 392.529 536.046 398.759 536.046C404.988 536.046 410.034 532.762 410.034 528.705V368.861L387.483 369.225Z" fill="url(#paint46_linear_12_22)"/>
<path d="M410.034 369.226C410.034 373.282 404.987 376.566 398.758 376.566C392.529 376.566 387.482 373.282 387.482 369.226C387.482 365.173 392.529 361.885 398.758 361.885C404.987 361.885 410.034 365.173 410.034 369.226Z" fill="#E4F4F1"/>
<path d="M417.332 307.484C418.043 315.502 411.771 319.92 411.771 319.92L408.771 322.373C406.154 324.445 404.626 327.664 404.626 330.99V367.421C404.027 369.167 401.626 370.421 398.736 370.421C396.009 370.421 393.719 369.278 393.009 367.642V328.045C393.009 322.21 395.628 316.756 400.098 313.101L412.533 301.868C412.533 301.868 416.788 300.831 417.332 307.484Z" fill="#B9C7C4"/>
<path d="M395.397 369.512V329.919C395.397 324.08 398.013 318.626 402.486 314.974L414.922 303.738C414.922 303.738 415.541 303.594 416.335 303.777C414.908 301.294 412.533 301.868 412.533 301.868L400.098 313.101C395.628 316.756 393.009 322.21 393.009 328.045V367.642C393.416 368.581 394.38 369.323 395.612 369.815L395.397 369.512Z" fill="#E0E4E8"/>
<path d="M415.384 315.772L408.734 321.779C404.261 325.432 401.645 330.885 401.645 336.723V369.893C403.118 369.375 404.248 368.518 404.626 367.42V330.99C404.626 327.663 406.154 324.444 408.77 322.372L411.771 319.919C411.771 319.919 413.768 318.456 415.384 315.772Z" fill="#A4A7A8"/>
<path d="M161.772 332.222C161.772 332.222 164.075 338.611 166.317 341.347C195.912 377.423 327.944 434.701 327.944 434.701L323.4 425.578C323.4 425.578 197.036 367.786 161.772 332.222Z" fill="#A52F32"/>
<path d="M217.77 322.985L213.412 325.771C212.214 326.507 212.135 327.826 210.893 327.11L208.945 325.572C207.607 324.8 206.153 321.955 207.444 321.164L211.826 318.391C213.022 317.655 217.764 315.56 219.004 316.277L219.506 316.495C220.843 317.267 219.057 322.193 217.77 322.985Z" fill="#A83034"/>
<path d="M223.963 323.591L216.982 328.032C215.638 328.863 213.951 328.876 212.557 328.071L210.893 327.11C209.392 326.243 211.356 320.063 212.804 319.174L217.781 318.73C219.124 317.906 221.172 315.759 222.564 316.564L223.713 317.434C225.212 318.3 225.407 322.699 223.963 323.591Z" fill="#ED7324"/>
<path d="M222.203 319.705L217.844 322.487C216.646 323.223 215.142 323.236 213.9 322.52L213.377 322.288C212.039 321.516 211.981 319.561 213.273 318.766L217.654 315.997C218.851 315.261 220.352 315.248 221.592 315.965L222.093 316.183C223.429 316.955 223.491 318.91 222.203 319.705Z" fill="#EAB839"/>
<path d="M257.645 346.103L253.286 348.886C252.09 349.625 252.012 350.945 250.771 350.228L248.822 348.69C247.483 347.918 246.027 345.074 247.32 344.282L251.702 341.506C252.898 340.773 257.642 338.678 258.88 339.392L259.381 339.613C260.717 340.386 258.932 345.308 257.645 346.103Z" fill="#A83034"/>
<path d="M263.84 346.709L256.861 351.149C255.516 351.977 253.828 351.993 252.434 351.188L250.772 350.227C249.27 349.361 251.235 343.177 252.682 342.288L257.66 341.845C259.002 341.02 261.051 338.876 262.442 339.681L263.589 340.548C265.091 341.414 265.283 345.816 263.84 346.709Z" fill="#ED7324"/>
<path d="M262.077 342.82L257.718 345.602C256.522 346.342 255.017 346.355 253.775 345.638L253.254 345.407C251.915 344.635 251.857 342.677 253.147 341.885L257.529 339.113C258.728 338.38 260.226 338.367 261.467 339.083L261.969 339.302C263.305 340.074 263.367 342.025 262.077 342.82Z" fill="#EAB839"/>
<path d="M297.524 369.221L293.165 372.004C291.966 372.74 291.891 374.063 290.646 373.343L288.698 371.805C287.362 371.033 285.906 368.189 287.196 367.397L291.581 364.624C292.777 363.891 297.517 361.793 298.758 362.51L299.26 362.731C300.596 363.5 298.811 368.426 297.524 369.221Z" fill="#A83034"/>
<path d="M303.718 369.825L296.736 374.269C295.394 375.096 293.706 375.113 292.312 374.305L290.647 373.344C289.148 372.48 291.109 366.297 292.559 365.407L297.534 364.964C298.88 364.14 300.926 361.993 302.317 362.798L303.467 363.668C304.965 364.534 305.161 368.932 303.718 369.825Z" fill="#ED7324"/>
<path d="M301.956 365.938L297.597 368.72C296.401 369.457 294.896 369.473 293.655 368.753L293.13 368.522C291.795 367.753 291.736 365.795 293.026 365.003L297.408 362.23C298.604 361.494 300.106 361.484 301.347 362.198L301.849 362.419C303.184 363.192 303.243 365.143 301.956 365.938Z" fill="#EAB839"/>
<path d="M118.525 530.556C118.525 531.43 118.266 532.107 117.748 532.583C116.196 534.075 112.746 533.954 108.606 531.948C103.173 529.224 98.7745 524.239 98.7745 520.802C98.7745 518.293 101.017 517.274 104.294 517.916C105.587 518.137 107.053 518.655 108.606 519.401C114.125 522.135 118.525 527.123 118.525 530.556Z" fill="#D1452B"/>
<path d="M62.5819 587.916L157.01 642.223C159.993 643.94 163.716 641.786 163.716 638.346V579.83C163.716 575.875 161.602 572.219 158.173 570.248L63.7453 515.941C60.762 514.224 57.0398 516.378 57.0398 519.818V578.334C57.0398 582.29 59.1536 585.945 62.5819 587.916Z" fill="#7594A4"/>
<path d="M159.283 641.2L64.855 586.893C61.425 584.922 59.3125 581.267 59.3125 577.312V518.796C59.3125 517.392 59.9514 516.222 60.8907 515.421C58.8151 515.724 57.0398 517.447 57.0398 519.819V578.335C57.0398 582.29 59.1536 585.945 62.5819 587.917L157.01 642.223C158.774 643.24 160.78 642.878 162.138 641.722C161.201 641.858 160.21 641.735 159.283 641.2Z" fill="#D0DFDB"/>
<path d="M163.716 630.266V635.114C141.935 624.659 88.4051 596.882 57.0398 576.568V571.668C88.4051 591.982 141.935 619.756 163.716 630.266Z" fill="#6D7D8E"/>
<path d="M163.716 621.065V625.965C141.935 615.455 88.4051 587.677 57.0398 567.367V562.467C88.4051 582.778 141.935 610.555 163.716 621.065Z" fill="#6D7D8E"/>
<path d="M163.716 611.807V616.706C141.935 606.252 88.4051 578.478 57.0398 558.109V553.209C88.4051 573.574 141.935 601.352 163.716 611.807Z" fill="#6D7D8E"/>
<path d="M163.716 602.333V607.233C141.935 596.778 88.4051 569.001 57.0398 548.635V544.061C88.4051 564.319 141.935 591.933 163.716 602.333Z" fill="#6D7D8E"/>
<path d="M163.716 632.826V637.726C139.701 625.91 86.608 597.862 57.0398 578.855V573.955C86.608 592.959 139.701 621.01 163.716 632.826Z" fill="#97AFB9"/>
<path d="M163.716 623.568V628.471C141.935 617.961 88.4051 590.183 57.0398 569.873V564.97C88.4051 585.283 141.935 613.061 163.716 623.568Z" fill="#97AFB9"/>
<path d="M163.716 614.422V619.322C139.701 607.505 86.608 579.454 57.0398 560.451V555.551C86.608 574.554 139.701 602.602 163.716 614.422Z" fill="#97AFB9"/>
<path d="M163.716 604.838V609.738C141.935 599.283 88.4051 571.506 57.0398 551.141V546.241C88.4051 566.606 141.935 594.383 163.716 604.838Z" fill="#97AFB9"/>
<path d="M163.716 592.747V597.647C141.935 587.192 88.4051 559.418 57.0398 539.049V534.149C88.4051 554.515 141.935 582.292 163.716 592.747Z" fill="#6D7D8E"/>
<path d="M163.716 583.599V588.502C141.935 577.992 88.4051 550.215 57.0398 529.849V524.949C88.4051 545.315 141.935 573.092 163.716 583.599Z" fill="#6D7D8E"/>
<path d="M163.388 579.08C141.607 568.625 88.4046 540.955 57.257 520.756C57.4743 520.046 57.8561 519.446 58.4008 518.957C58.999 518.413 59.7079 518.032 60.4155 517.922C61.9403 518.902 75.826 527.484 82.6866 531.784L83.286 532.165C94.1774 538.427 105.122 544.418 115.522 549.918L116.339 550.351C130.388 557.268 159.142 573.525 159.142 573.525C160.231 574.18 161.156 574.994 161.864 576.03C162.571 576.903 163.116 577.992 163.388 579.08Z" fill="#6D7D8E"/>
<path d="M163.716 595.363V600.263C139.701 588.447 86.608 560.396 57.0398 541.392V536.492C86.608 555.496 139.701 583.547 163.716 595.363Z" fill="#97AFB9"/>
<path d="M163.716 586.104V591.003C141.935 580.497 88.4051 552.719 57.0398 532.354V527.451C88.4051 547.816 141.935 575.593 163.716 586.104Z" fill="#97AFB9"/>
<path d="M163.716 581.475V581.749C139.701 569.988 86.608 541.937 57.0398 522.933V521.9C57.0398 521.519 57.0945 521.138 57.2574 520.757C57.4747 520.047 57.8566 519.447 58.4013 518.958C66.2422 523.969 74.4112 529.364 82.687 534.157L83.2865 534.538C94.1778 540.8 105.122 546.791 115.522 552.291L116.339 552.724C126.359 558.008 153.587 571.894 161.864 576.031C162.572 576.904 163.116 577.993 163.389 579.081C163.606 579.843 163.716 580.661 163.716 581.475Z" fill="#97AFB9"/>
<path d="M513.174 391.692L498.034 379.931V400.43L513.174 391.692Z" fill="#A4A7A8"/>
<path d="M489.073 307.887L485.486 302.85V309.956L489.073 307.887Z" fill="#A4A7A8"/>
<path d="M75.6009 655.136L55.6193 643.652V636.403L75.6009 647.887V655.136Z" fill="#E4F4F1"/>
<path d="M115.571 678.102L95.587 666.618V659.372L115.571 670.853V678.102Z" fill="#E4F4F1"/>
<path d="M155.536 701.069L135.553 689.584V682.339L155.536 693.82V701.069Z" fill="#E4F4F1"/>
<path d="M195.502 724.033L175.519 712.552V705.303L195.502 716.784V724.033Z" fill="#E4F4F1"/>
<path d="M117.195 672.039L115.569 671.1V670.853L95.5846 659.372V659.567L75.6004 648.034V647.888L67.8894 643.457C67.7204 642.792 67.6285 642.134 67.6285 641.508L67.6275 625.254C67.6275 623.049 68.7626 621.794 70.4258 621.794C71.1679 621.794 72.014 622.045 72.9113 622.57L112.106 645.47C115.02 647.171 117.393 651.149 117.393 654.332L117.394 670.582C117.394 671.126 117.325 671.615 117.195 672.039Z" fill="#4C5961"/>
<path d="M115.57 673.88V671.101L117.197 672.039C116.913 672.971 116.338 673.603 115.57 673.88ZM95.5862 663.621L75.6019 651.944V648.035L95.5862 659.568V663.621Z" fill="#722323"/>
<path d="M75.5997 651.943L72.9132 650.373C70.573 649.005 68.5824 646.17 67.8888 643.456L75.5997 647.887V648.034V651.943Z" fill="#757F7F"/>
<path d="M114.594 674.046C113.853 674.046 113.008 673.798 112.111 673.273L95.587 663.62V659.567V659.372L115.571 670.853V671.1V673.879C115.272 673.99 114.945 674.046 114.594 674.046Z" fill="#757F7F"/>
<path d="M74.4566 647.644C71.5407 645.94 69.1699 641.965 69.1699 638.779L69.1686 622.525C69.1673 619.342 71.5384 618.136 74.454 619.84L113.648 642.74C116.562 644.444 118.934 648.419 118.934 651.602L118.936 667.853C118.936 671.042 116.564 672.248 113.651 670.544L74.4566 647.644Z" fill="#FBFEFE"/>
<path d="M72.9139 648.159C69.9996 646.451 67.6285 642.48 67.6285 639.29L67.6275 623.04C67.6275 619.854 69.997 618.651 72.9113 620.355L112.107 643.255C115.02 644.956 117.393 648.934 117.393 652.117L117.394 668.368C117.395 671.554 115.023 672.759 112.11 671.059L72.9139 648.159Z" fill="#E3E2E0"/>
<path d="M112.112 669.97L72.9157 647.073C70.5475 645.686 68.6243 642.463 68.6243 639.873L68.623 623.619C68.623 621.029 70.5449 620.052 72.9144 621.44L112.109 644.34C114.48 645.725 116.402 648.947 116.402 651.537L116.403 667.791C116.404 670.377 114.481 671.358 112.112 669.97Z" fill="#FBFEFE"/>
<path d="M116.382 651.424C116.33 648.853 114.446 645.706 112.109 644.341L72.9142 621.441C70.5789 620.072 68.6955 621.021 68.6421 623.529L116.382 651.424Z" fill="#82B2E3"/>
<path d="M68.6421 639.988C68.6968 642.558 70.5789 645.705 72.9142 647.071L112.11 669.971C114.447 671.336 116.332 670.391 116.382 667.882L68.6421 639.988Z" fill="#82B2E3"/>
<path d="M438.211 449.446C434.787 449.446 432.002 446.661 432.002 443.233V378.074C432.002 374.82 433.751 371.783 436.572 370.157L449.386 362.755C450.337 362.211 451.406 361.918 452.481 361.918C455.905 361.918 458.691 364.704 458.691 368.128V433.29C458.691 436.551 456.941 439.581 454.12 441.207L441.306 448.609C440.355 449.153 439.286 449.446 438.211 449.446Z" fill="#951A1F"/>
<path d="M453.46 439.317L440.64 446.716C437.959 448.264 434.61 446.329 434.61 443.234V378.071C434.61 375.589 435.936 373.292 438.089 372.047L450.909 364.648C453.587 363.101 456.936 365.036 456.936 368.131V433.29C456.936 435.776 455.61 438.073 453.46 439.317Z" fill="#B12C22"/>
<path d="M219.272 558.78L215.332 560.272C214.268 560.695 213.612 561.715 213.612 562.947V564.416C213.612 565.742 215.041 566.827 216.186 566.367L220.128 564.856C221.188 564.432 221.841 563.416 221.841 562.184V560.734C221.841 559.412 220.414 558.327 219.272 558.78Z" fill="#ED7324"/>
<path d="M220.288 559.862L216.348 561.351C215.284 561.774 214.629 562.794 214.629 564.025V565.495C214.629 566.821 216.058 567.906 217.202 567.45L221.145 565.938C222.205 565.511 222.858 564.495 222.858 563.263V561.817C222.858 560.491 221.431 559.406 220.288 559.862Z" fill="#EAB839"/>
<path d="M263.768 490.235L261.11 492.014C259.751 492.92 256.972 492.962 255.073 492.099L226.825 479.445C223.305 477.849 222.955 475.245 226.072 473.841L228.664 472.672C230.136 472.01 232.52 472.069 234.202 472.812L262.104 485.042C265.296 486.449 266.026 488.727 263.768 490.235Z" fill="#443940"/>
<path d="M251.512 491.516L253.776 492.197L265.677 485.424L263.807 484.417L251.512 491.516Z" fill="#F57564"/>
<path d="M245.494 489.229L247.758 489.907L259.659 483.137L257.789 482.13L245.494 489.229Z" fill="#F57564"/>
<path d="M239.476 486.942L241.74 487.619L253.644 480.846L251.774 479.843L239.476 486.942Z" fill="#F57564"/>
<path d="M233.462 484.651L235.723 485.332L247.628 478.559L245.758 477.552L233.462 484.651Z" fill="#F57564"/>
<path d="M227.825 482.166L230.088 482.843L241.992 476.07L240.122 475.067L227.825 482.166Z" fill="#F57564"/>
<path d="M223.073 479.139L225.336 479.817L237.238 473.046L235.368 472.04L223.073 479.139Z" fill="#F57564"/>
<path d="M164.015 433.651L166.712 431.947C168.091 431.077 170.474 431.246 171.889 432.321L192.969 448.087C195.592 450.074 195.265 452.899 192.266 454.166L189.773 455.222C188.357 455.821 186.336 455.573 185.078 454.645L164.189 439.359C161.805 437.599 161.728 435.097 164.015 433.651Z" fill="#443940"/>
<path d="M174.789 433.222L173.02 432.316L161.231 438.676L162.585 439.901L174.789 433.222Z" fill="#F57564"/>
<path d="M179.378 436.141L177.608 435.238L165.82 441.598L167.175 442.82L179.378 436.141Z" fill="#F57564"/>
<path d="M183.965 439.063L182.195 438.16L170.406 444.517L171.761 445.742L183.965 439.063Z" fill="#F57564"/>
<path d="M188.553 441.985L186.784 441.082L174.994 447.438L176.349 448.663L188.553 441.985Z" fill="#F57564"/>
<path d="M192.766 445.094L190.997 444.192L179.208 450.548L180.563 451.773L192.766 445.094Z" fill="#F57564"/>
<path d="M196.096 448.709L194.327 447.807L182.538 454.163L183.894 455.388L196.096 448.709Z" fill="#F57564"/>
<defs>
<filter id="filter0_d_12_22" x="82" y="0" width="214" height="194" filterUnits="userSpaceOnUse" color-interpolation-filters="sRGB">
<feFlood flood-opacity="0" result="BackgroundImageFix"/>
<feColorMatrix in="SourceAlpha" type="matrix" values="0 0 0 0 0 0 0 0 0 0 0 0 0 0 0 0 0 0 127 0" result="hardAlpha"/>
<feMorphology radius="5" operator="dilate" in="SourceAlpha" result="effect1_dropShadow_12_22"/>
<feOffset dx="5" dy="4"/>
<feGaussianBlur stdDeviation="2.5"/>
<feComposite in2="hardAlpha" operator="out"/>
<feColorMatrix type="matrix" values="0 0 0 0 0.0352941 0 0 0 0 0.823529 0 0 0 0 0.870588 0 0 0 0.57 0"/>
<feBlend mode="normal" in2="BackgroundImageFix" result="effect1_dropShadow_12_22"/>
<feBlend mode="normal" in="SourceGraphic" in2="effect1_dropShadow_12_22" result="shape"/>
</filter>
<linearGradient id="paint0_linear_12_22" x1="496" y1="51" x2="496" y2="688" gradientUnits="userSpaceOnUse">
<stop stop-color="#03A9F4"/>
<stop offset="1" stop-color="#03A9F4" stop-opacity="0"/>
</linearGradient>
<linearGradient id="paint1_linear_12_22" x1="573.188" y1="203.36" x2="509.268" y2="314.071" gradientUnits="userSpaceOnUse">
<stop stop-color="#606E79"/>
<stop offset="0.126147" stop-color="#606E79"/>
<stop offset="0.127231" stop-color="#65747E"/>
<stop offset="0.43781" stop-color="#65747E"/>
<stop offset="0.440691" stop-color="#49515A"/>
<stop offset="0.836743" stop-color="#49515A"/>
<stop offset="0.838664" stop-color="#363B40"/>
<stop offset="1" stop-color="#363B40"/>
</linearGradient>
<linearGradient id="paint2_linear_12_22" x1="603.776" y1="220.63" x2="539.857" y2="331.341" gradientUnits="userSpaceOnUse">
<stop stop-color="#606E79"/>
<stop offset="0.126147" stop-color="#606E79"/>
<stop offset="0.127231" stop-color="#65747E"/>
<stop offset="0.43781" stop-color="#65747E"/>
<stop offset="0.440691" stop-color="#49515A"/>
<stop offset="0.836743" stop-color="#49515A"/>
<stop offset="0.838664" stop-color="#363B40"/>
<stop offset="1" stop-color="#363B40"/>
</linearGradient>
<linearGradient id="paint3_linear_12_22" x1="605.676" y1="306.061" x2="573.661" y2="266.807" gradientUnits="userSpaceOnUse">
<stop stop-color="#DDE2E4"/>
<stop offset="0.126147" stop-color="#DDE2E4"/>
<stop offset="0.127231" stop-color="#E3E8EA"/>
<stop offset="0.43781" stop-color="#E3E8EA"/>
<stop offset="0.440691" stop-color="#C0C2C3"/>
<stop offset="0.836743" stop-color="#C0C2C3"/>
<stop offset="0.838664" stop-color="#A5A9AA"/>
<stop offset="1" stop-color="#A5A9AA"/>
</linearGradient>
<linearGradient id="paint4_linear_12_22" x1="610.181" y1="255.738" x2="572.628" y2="320.782" gradientUnits="userSpaceOnUse">
<stop stop-color="#72767A"/>
<stop offset="0.161336" stop-color="#72767A"/>
<stop offset="0.163257" stop-color="#8D9192"/>
<stop offset="0.559309" stop-color="#8D9192"/>
<stop offset="0.56219" stop-color="#B0B3B5"/>
<stop offset="0.872769" stop-color="#B0B3B5"/>
<stop offset="0.873853" stop-color="#ABAEB0"/>
<stop offset="1" stop-color="#ABAEB0"/>
</linearGradient>
<linearGradient id="paint5_linear_12_22" x1="597.556" y1="259.66" x2="571.289" y2="305.157" gradientUnits="userSpaceOnUse">
<stop stop-color="#72767A"/>
<stop offset="0.161336" stop-color="#72767A"/>
<stop offset="0.163257" stop-color="#8D9192"/>
<stop offset="0.559309" stop-color="#8D9192"/>
<stop offset="0.56219" stop-color="#B0B3B5"/>
<stop offset="0.872769" stop-color="#B0B3B5"/>
<stop offset="0.873853" stop-color="#ABAEB0"/>
<stop offset="1" stop-color="#ABAEB0"/>
</linearGradient>
<linearGradient id="paint6_linear_12_22" x1="595.158" y1="275.592" x2="583.165" y2="296.365" gradientUnits="userSpaceOnUse">
<stop stop-color="#72767A"/>
<stop offset="0.161336" stop-color="#72767A"/>
<stop offset="0.163257" stop-color="#8D9192"/>
<stop offset="0.559309" stop-color="#8D9192"/>
<stop offset="0.56219" stop-color="#B0B3B5"/>
<stop offset="0.872769" stop-color="#B0B3B5"/>
<stop offset="0.873853" stop-color="#ABAEB0"/>
<stop offset="1" stop-color="#ABAEB0"/>
</linearGradient>
<linearGradient id="paint7_linear_12_22" x1="463.196" y1="266.851" x2="399.276" y2="377.562" gradientUnits="userSpaceOnUse">
<stop stop-color="#606E79"/>
<stop offset="0.126147" stop-color="#606E79"/>
<stop offset="0.127231" stop-color="#65747E"/>
<stop offset="0.43781" stop-color="#65747E"/>
<stop offset="0.440691" stop-color="#49515A"/>
<stop offset="0.836743" stop-color="#49515A"/>
<stop offset="0.838664" stop-color="#363B40"/>
<stop offset="1" stop-color="#363B40"/>
</linearGradient>
<linearGradient id="paint8_linear_12_22" x1="493.787" y1="284.121" x2="429.867" y2="394.832" gradientUnits="userSpaceOnUse">
<stop stop-color="#606E79"/>
<stop offset="0.126147" stop-color="#606E79"/>
<stop offset="0.127231" stop-color="#65747E"/>
<stop offset="0.43781" stop-color="#65747E"/>
<stop offset="0.440691" stop-color="#49515A"/>
<stop offset="0.836743" stop-color="#49515A"/>
<stop offset="0.838664" stop-color="#363B40"/>
<stop offset="1" stop-color="#363B40"/>
</linearGradient>
<linearGradient id="paint9_linear_12_22" x1="495.687" y1="369.551" x2="463.673" y2="330.298" gradientUnits="userSpaceOnUse">
<stop stop-color="#DDE2E4"/>
<stop offset="0.126147" stop-color="#DDE2E4"/>
<stop offset="0.127231" stop-color="#E3E8EA"/>
<stop offset="0.43781" stop-color="#E3E8EA"/>
<stop offset="0.440691" stop-color="#C0C2C3"/>
<stop offset="0.836743" stop-color="#C0C2C3"/>
<stop offset="0.838664" stop-color="#A5A9AA"/>
<stop offset="1" stop-color="#A5A9AA"/>
</linearGradient>
<linearGradient id="paint10_linear_12_22" x1="500.199" y1="319.229" x2="462.646" y2="384.273" gradientUnits="userSpaceOnUse">
<stop stop-color="#72767A"/>
<stop offset="0.161336" stop-color="#72767A"/>
<stop offset="0.163257" stop-color="#8D9192"/>
<stop offset="0.559309" stop-color="#8D9192"/>
<stop offset="0.56219" stop-color="#B0B3B5"/>
<stop offset="0.872769" stop-color="#B0B3B5"/>
<stop offset="0.873853" stop-color="#ABAEB0"/>
<stop offset="1" stop-color="#ABAEB0"/>
</linearGradient>
<linearGradient id="paint11_linear_12_22" x1="487.572" y1="323.15" x2="461.304" y2="368.647" gradientUnits="userSpaceOnUse">
<stop stop-color="#72767A"/>
<stop offset="0.161336" stop-color="#72767A"/>
<stop offset="0.163257" stop-color="#8D9192"/>
<stop offset="0.559309" stop-color="#8D9192"/>
<stop offset="0.56219" stop-color="#B0B3B5"/>
<stop offset="0.872769" stop-color="#B0B3B5"/>
<stop offset="0.873853" stop-color="#ABAEB0"/>
<stop offset="1" stop-color="#ABAEB0"/>
</linearGradient>
<linearGradient id="paint12_linear_12_22" x1="485.171" y1="339.084" x2="473.178" y2="359.857" gradientUnits="userSpaceOnUse">
<stop stop-color="#72767A"/>
<stop offset="0.161336" stop-color="#72767A"/>
<stop offset="0.163257" stop-color="#8D9192"/>
<stop offset="0.559309" stop-color="#8D9192"/>
<stop offset="0.56219" stop-color="#B0B3B5"/>
<stop offset="0.872769" stop-color="#B0B3B5"/>
<stop offset="0.873853" stop-color="#ABAEB0"/>
<stop offset="1" stop-color="#ABAEB0"/>
</linearGradient>
<linearGradient id="paint13_linear_12_22" x1="734.805" y1="297.315" x2="670.885" y2="408.027" gradientUnits="userSpaceOnUse">
<stop stop-color="#606E79"/>
<stop offset="0.126147" stop-color="#606E79"/>
<stop offset="0.127231" stop-color="#65747E"/>
<stop offset="0.43781" stop-color="#65747E"/>
<stop offset="0.440691" stop-color="#49515A"/>
<stop offset="0.836743" stop-color="#49515A"/>
<stop offset="0.838664" stop-color="#363B40"/>
<stop offset="1" stop-color="#363B40"/>
</linearGradient>
<linearGradient id="paint14_linear_12_22" x1="765.396" y1="314.587" x2="701.477" y2="425.298" gradientUnits="userSpaceOnUse">
<stop stop-color="#606E79"/>
<stop offset="0.126147" stop-color="#606E79"/>
<stop offset="0.127231" stop-color="#65747E"/>
<stop offset="0.43781" stop-color="#65747E"/>
<stop offset="0.440691" stop-color="#49515A"/>
<stop offset="0.836743" stop-color="#49515A"/>
<stop offset="0.838664" stop-color="#363B40"/>
<stop offset="1" stop-color="#363B40"/>
</linearGradient>
<linearGradient id="paint15_linear_12_22" x1="772.315" y1="343.974" x2="730.269" y2="416.799" gradientUnits="userSpaceOnUse">
<stop stop-color="#DDE2E4"/>
<stop offset="0.126147" stop-color="#DDE2E4"/>
<stop offset="0.127231" stop-color="#E3E8EA"/>
<stop offset="0.43781" stop-color="#E3E8EA"/>
<stop offset="0.440691" stop-color="#C0C2C3"/>
<stop offset="0.836743" stop-color="#C0C2C3"/>
<stop offset="0.838664" stop-color="#A5A9AA"/>
<stop offset="1" stop-color="#A5A9AA"/>
</linearGradient>
<linearGradient id="paint16_linear_12_22" x1="771.806" y1="349.694" x2="734.253" y2="414.738" gradientUnits="userSpaceOnUse">
<stop stop-color="#72767A"/>
<stop offset="0.161336" stop-color="#72767A"/>
<stop offset="0.163257" stop-color="#8D9192"/>
<stop offset="0.559309" stop-color="#8D9192"/>
<stop offset="0.56219" stop-color="#B0B3B5"/>
<stop offset="0.872769" stop-color="#B0B3B5"/>
<stop offset="0.873853" stop-color="#ABAEB0"/>
<stop offset="1" stop-color="#ABAEB0"/>
</linearGradient>
<linearGradient id="paint17_linear_12_22" x1="759.178" y1="353.616" x2="732.91" y2="399.113" gradientUnits="userSpaceOnUse">
<stop stop-color="#ABAEB0"/>
<stop offset="0.126147" stop-color="#ABAEB0"/>
<stop offset="0.127231" stop-color="#B0B3B5"/>
<stop offset="0.43781" stop-color="#B0B3B5"/>
<stop offset="0.440691" stop-color="#8D9192"/>
<stop offset="0.836743" stop-color="#8D9192"/>
<stop offset="0.838664" stop-color="#72767A"/>
<stop offset="1" stop-color="#72767A"/>
</linearGradient>
<linearGradient id="paint18_linear_12_22" x1="756.778" y1="369.548" x2="744.785" y2="390.321" gradientUnits="userSpaceOnUse">
<stop stop-color="#72767A"/>
<stop offset="0.161336" stop-color="#72767A"/>
<stop offset="0.163257" stop-color="#8D9192"/>
<stop offset="0.559309" stop-color="#8D9192"/>
<stop offset="0.56219" stop-color="#B0B3B5"/>
<stop offset="0.872769" stop-color="#B0B3B5"/>
<stop offset="0.873853" stop-color="#ABAEB0"/>
<stop offset="1" stop-color="#ABAEB0"/>
</linearGradient>
<linearGradient id="paint19_linear_12_22" x1="624.82" y1="360.808" x2="560.901" y2="471.519" gradientUnits="userSpaceOnUse">
<stop stop-color="#606E79"/>
<stop offset="0.126147" stop-color="#606E79"/>
<stop offset="0.127231" stop-color="#65747E"/>
<stop offset="0.43781" stop-color="#65747E"/>
<stop offset="0.440691" stop-color="#49515A"/>
<stop offset="0.836743" stop-color="#49515A"/>
<stop offset="0.838664" stop-color="#363B40"/>
<stop offset="1" stop-color="#363B40"/>
</linearGradient>
<linearGradient id="paint20_linear_12_22" x1="655.41" y1="378.078" x2="591.491" y2="488.789" gradientUnits="userSpaceOnUse">
<stop stop-color="#606E79"/>
<stop offset="0.126147" stop-color="#606E79"/>
<stop offset="0.127231" stop-color="#65747E"/>
<stop offset="0.43781" stop-color="#65747E"/>
<stop offset="0.440691" stop-color="#49515A"/>
<stop offset="0.836743" stop-color="#49515A"/>
<stop offset="0.838664" stop-color="#363B40"/>
<stop offset="1" stop-color="#363B40"/>
</linearGradient>
<linearGradient id="paint21_linear_12_22" x1="662.326" y1="407.467" x2="620.28" y2="480.292" gradientUnits="userSpaceOnUse">
<stop stop-color="#DDE2E4"/>
<stop offset="0.126147" stop-color="#DDE2E4"/>
<stop offset="0.127231" stop-color="#E3E8EA"/>
<stop offset="0.43781" stop-color="#E3E8EA"/>
<stop offset="0.440691" stop-color="#C0C2C3"/>
<stop offset="0.836743" stop-color="#C0C2C3"/>
<stop offset="0.838664" stop-color="#A5A9AA"/>
<stop offset="1" stop-color="#A5A9AA"/>
</linearGradient>
<linearGradient id="paint22_linear_12_22" x1="661.819" y1="413.185" x2="624.266" y2="478.229" gradientUnits="userSpaceOnUse">
<stop stop-color="#72767A"/>
<stop offset="0.161336" stop-color="#72767A"/>
<stop offset="0.163257" stop-color="#8D9192"/>
<stop offset="0.559309" stop-color="#8D9192"/>
<stop offset="0.56219" stop-color="#B0B3B5"/>
<stop offset="0.872769" stop-color="#B0B3B5"/>
<stop offset="0.873853" stop-color="#ABAEB0"/>
<stop offset="1" stop-color="#ABAEB0"/>
</linearGradient>
<linearGradient id="paint23_linear_12_22" x1="649.193" y1="417.108" x2="622.925" y2="462.605" gradientUnits="userSpaceOnUse">
<stop stop-color="#ABAEB0"/>
<stop offset="0.126147" stop-color="#ABAEB0"/>
<stop offset="0.127231" stop-color="#B0B3B5"/>
<stop offset="0.43781" stop-color="#B0B3B5"/>
<stop offset="0.440691" stop-color="#8D9192"/>
<stop offset="0.836743" stop-color="#8D9192"/>
<stop offset="0.838664" stop-color="#72767A"/>
<stop offset="1" stop-color="#72767A"/>
</linearGradient>
<linearGradient id="paint24_linear_12_22" x1="646.795" y1="433.04" x2="634.802" y2="453.813" gradientUnits="userSpaceOnUse">
<stop stop-color="#72767A"/>
<stop offset="0.161336" stop-color="#72767A"/>
<stop offset="0.163257" stop-color="#8D9192"/>
<stop offset="0.559309" stop-color="#8D9192"/>
<stop offset="0.56219" stop-color="#B0B3B5"/>
<stop offset="0.872769" stop-color="#B0B3B5"/>
<stop offset="0.873853" stop-color="#ABAEB0"/>
<stop offset="1" stop-color="#ABAEB0"/>
</linearGradient>
<linearGradient id="paint25_linear_12_22" x1="565.947" y1="303.421" x2="609.579" y2="303.421" gradientUnits="userSpaceOnUse">
<stop stop-color="#464749"/>
<stop offset="0.161336" stop-color="#464749"/>
<stop offset="0.163257" stop-color="#5C6064"/>
<stop offset="0.559309" stop-color="#5C6064"/>
<stop offset="0.56219" stop-color="#7F8487"/>
<stop offset="0.872769" stop-color="#7F8487"/>
<stop offset="0.873853" stop-color="#7A7F82"/>
<stop offset="1" stop-color="#7A7F82"/>
</linearGradient>
<linearGradient id="paint26_linear_12_22" x1="547.269" y1="294.996" x2="628.256" y2="294.996" gradientUnits="userSpaceOnUse">
<stop stop-color="#72767A"/>
<stop offset="0.161336" stop-color="#72767A"/>
<stop offset="0.163257" stop-color="#8D9192"/>
<stop offset="0.559309" stop-color="#8D9192"/>
<stop offset="0.56219" stop-color="#B0B3B5"/>
<stop offset="0.872769" stop-color="#B0B3B5"/>
<stop offset="0.873853" stop-color="#ABAEB0"/>
<stop offset="1" stop-color="#ABAEB0"/>
</linearGradient>
<linearGradient id="paint27_linear_12_22" x1="219.964" y1="345.168" x2="242.518" y2="345.168" gradientUnits="userSpaceOnUse">
<stop stop-color="#A4A8A9"/>
<stop offset="0.161336" stop-color="#A4A8A9"/>
<stop offset="0.163257" stop-color="#BEC1C3"/>
<stop offset="0.559309" stop-color="#BEC1C3"/>
<stop offset="0.56219" stop-color="#E1E5E9"/>
<stop offset="0.872769" stop-color="#E1E5E9"/>
<stop offset="0.873853" stop-color="#DCE1E4"/>
<stop offset="1" stop-color="#DCE1E4"/>
</linearGradient>
<linearGradient id="paint28_linear_12_22" x1="112.089" y1="466.677" x2="146.633" y2="466.677" gradientUnits="userSpaceOnUse">
<stop stop-color="#A4A8A9"/>
<stop offset="0.161336" stop-color="#A4A8A9"/>
<stop offset="0.163257" stop-color="#BEC1C3"/>
<stop offset="0.559309" stop-color="#BEC1C3"/>
<stop offset="0.56219" stop-color="#E1E5E9"/>
<stop offset="0.872769" stop-color="#E1E5E9"/>
<stop offset="0.873853" stop-color="#DCE1E4"/>
<stop offset="1" stop-color="#DCE1E4"/>
</linearGradient>
<linearGradient id="paint29_linear_12_22" x1="110.153" y1="458.699" x2="148.576" y2="458.699" gradientUnits="userSpaceOnUse">
<stop stop-color="#BCBFC0"/>
<stop offset="0.161336" stop-color="#BCBFC0"/>
<stop offset="0.163257" stop-color="#D5D8DB"/>
<stop offset="0.559309" stop-color="#D5D8DB"/>
<stop offset="0.56219" stop-color="#F6FAFE"/>
<stop offset="0.872769" stop-color="#F6FAFE"/>
<stop offset="0.873853" stop-color="#F2F6FA"/>
<stop offset="1" stop-color="#F2F6FA"/>
</linearGradient>
<linearGradient id="paint30_linear_12_22" x1="112.089" y1="445.009" x2="146.633" y2="445.009" gradientUnits="userSpaceOnUse">
<stop stop-color="#A4A8A9"/>
<stop offset="0.161336" stop-color="#A4A8A9"/>
<stop offset="0.163257" stop-color="#BEC1C3"/>
<stop offset="0.559309" stop-color="#BEC1C3"/>
<stop offset="0.56219" stop-color="#E1E5E9"/>
<stop offset="0.872769" stop-color="#E1E5E9"/>
<stop offset="0.873853" stop-color="#DCE1E4"/>
<stop offset="1" stop-color="#DCE1E4"/>
</linearGradient>
<linearGradient id="paint31_linear_12_22" x1="110.153" y1="429.894" x2="148.576" y2="429.894" gradientUnits="userSpaceOnUse">
<stop stop-color="#BCBFC0"/>
<stop offset="0.161336" stop-color="#BCBFC0"/>
<stop offset="0.163257" stop-color="#D5D8DB"/>
<stop offset="0.559309" stop-color="#D5D8DB"/>
<stop offset="0.56219" stop-color="#F6FAFE"/>
<stop offset="0.872769" stop-color="#F6FAFE"/>
<stop offset="0.873853" stop-color="#F2F6FA"/>
<stop offset="1" stop-color="#F2F6FA"/>
</linearGradient>
<linearGradient id="paint32_linear_12_22" x1="112.089" y1="422.021" x2="146.633" y2="422.021" gradientUnits="userSpaceOnUse">
<stop stop-color="#A4A8A9"/>
<stop offset="0.161336" stop-color="#A4A8A9"/>
<stop offset="0.163257" stop-color="#BEC1C3"/>
<stop offset="0.559309" stop-color="#BEC1C3"/>
<stop offset="0.56219" stop-color="#E1E5E9"/>
<stop offset="0.872769" stop-color="#E1E5E9"/>
<stop offset="0.873853" stop-color="#DCE1E4"/>
<stop offset="1" stop-color="#DCE1E4"/>
</linearGradient>
<linearGradient id="paint33_linear_12_22" x1="28.3099" y1="552.884" x2="40.8669" y2="574.633" gradientUnits="userSpaceOnUse">
<stop stop-color="#DCE1E4"/>
<stop offset="0.126147" stop-color="#DCE1E4"/>
<stop offset="0.127231" stop-color="#E1E5E9"/>
<stop offset="0.43781" stop-color="#E1E5E9"/>
<stop offset="0.440691" stop-color="#BEC1C3"/>
<stop offset="0.836743" stop-color="#BEC1C3"/>
<stop offset="0.838664" stop-color="#A4A8A9"/>
<stop offset="1" stop-color="#A4A8A9"/>
</linearGradient>
<linearGradient id="paint34_linear_12_22" x1="489.474" y1="540.725" x2="458.35" y2="486.817" gradientUnits="userSpaceOnUse">
<stop stop-color="#A4A8A9"/>
<stop offset="0.161336" stop-color="#A4A8A9"/>
<stop offset="0.163257" stop-color="#BEC1C3"/>
<stop offset="0.559309" stop-color="#BEC1C3"/>
<stop offset="0.56219" stop-color="#E1E5E9"/>
<stop offset="0.872769" stop-color="#E1E5E9"/>
<stop offset="0.873853" stop-color="#DCE1E4"/>
<stop offset="1" stop-color="#DCE1E4"/>
</linearGradient>
<linearGradient id="paint35_linear_12_22" x1="295.942" y1="592.081" x2="232.023" y2="702.792" gradientUnits="userSpaceOnUse">
<stop stop-color="#606E79"/>
<stop offset="0.126147" stop-color="#606E79"/>
<stop offset="0.127231" stop-color="#65747E"/>
<stop offset="0.43781" stop-color="#65747E"/>
<stop offset="0.440691" stop-color="#49515A"/>
<stop offset="0.836743" stop-color="#49515A"/>
<stop offset="0.838664" stop-color="#363B40"/>
<stop offset="1" stop-color="#363B40"/>
</linearGradient>
<linearGradient id="paint36_linear_12_22" x1="302.857" y1="621.47" x2="260.811" y2="694.295" gradientUnits="userSpaceOnUse">
<stop stop-color="#DDE2E4"/>
<stop offset="0.126147" stop-color="#DDE2E4"/>
<stop offset="0.127231" stop-color="#E3E8EA"/>
<stop offset="0.43781" stop-color="#E3E8EA"/>
<stop offset="0.440691" stop-color="#C0C2C3"/>
<stop offset="0.836743" stop-color="#C0C2C3"/>
<stop offset="0.838664" stop-color="#A5A9AA"/>
<stop offset="1" stop-color="#A5A9AA"/>
</linearGradient>
<linearGradient id="paint37_linear_12_22" x1="302.348" y1="627.19" x2="264.795" y2="692.234" gradientUnits="userSpaceOnUse">
<stop stop-color="#72767A"/>
<stop offset="0.161336" stop-color="#72767A"/>
<stop offset="0.163257" stop-color="#8D9192"/>
<stop offset="0.559309" stop-color="#8D9192"/>
<stop offset="0.56219" stop-color="#B0B3B5"/>
<stop offset="0.872769" stop-color="#B0B3B5"/>
<stop offset="0.873853" stop-color="#ABAEB0"/>
<stop offset="1" stop-color="#ABAEB0"/>
</linearGradient>
<linearGradient id="paint38_linear_12_22" x1="289.723" y1="631.112" x2="263.456" y2="676.609" gradientUnits="userSpaceOnUse">
<stop stop-color="#ABAEB0"/>
<stop offset="0.126147" stop-color="#ABAEB0"/>
<stop offset="0.127231" stop-color="#B0B3B5"/>
<stop offset="0.43781" stop-color="#B0B3B5"/>
<stop offset="0.440691" stop-color="#8D9192"/>
<stop offset="0.836743" stop-color="#8D9192"/>
<stop offset="0.838664" stop-color="#72767A"/>
<stop offset="1" stop-color="#72767A"/>
</linearGradient>
<linearGradient id="paint39_linear_12_22" x1="287.323" y1="647.044" x2="275.329" y2="667.817" gradientUnits="userSpaceOnUse">
<stop stop-color="#72767A"/>
<stop offset="0.161336" stop-color="#72767A"/>
<stop offset="0.163257" stop-color="#8D9192"/>
<stop offset="0.559309" stop-color="#8D9192"/>
<stop offset="0.56219" stop-color="#B0B3B5"/>
<stop offset="0.872769" stop-color="#B0B3B5"/>
<stop offset="0.873853" stop-color="#ABAEB0"/>
<stop offset="1" stop-color="#ABAEB0"/>
</linearGradient>
<linearGradient id="paint40_linear_12_22" x1="289.199" y1="576.106" x2="323.743" y2="576.106" gradientUnits="userSpaceOnUse">
<stop stop-color="#A4A8A9"/>
<stop offset="0.161336" stop-color="#A4A8A9"/>
<stop offset="0.163257" stop-color="#BEC1C3"/>
<stop offset="0.559309" stop-color="#BEC1C3"/>
<stop offset="0.56219" stop-color="#E1E5E9"/>
<stop offset="0.872769" stop-color="#E1E5E9"/>
<stop offset="0.873853" stop-color="#DCE1E4"/>
<stop offset="1" stop-color="#DCE1E4"/>
</linearGradient>
<linearGradient id="paint41_linear_12_22" x1="287.258" y1="568.124" x2="325.68" y2="568.124" gradientUnits="userSpaceOnUse">
<stop stop-color="#BCBFC0"/>
<stop offset="0.161336" stop-color="#BCBFC0"/>
<stop offset="0.163257" stop-color="#D5D8DB"/>
<stop offset="0.559309" stop-color="#D5D8DB"/>
<stop offset="0.56219" stop-color="#F6FAFE"/>
<stop offset="0.872769" stop-color="#F6FAFE"/>
<stop offset="0.873853" stop-color="#F2F6FA"/>
<stop offset="1" stop-color="#F2F6FA"/>
</linearGradient>
<linearGradient id="paint42_linear_12_22" x1="289.199" y1="554.437" x2="323.743" y2="554.437" gradientUnits="userSpaceOnUse">
<stop stop-color="#A4A8A9"/>
<stop offset="0.161336" stop-color="#A4A8A9"/>
<stop offset="0.163257" stop-color="#BEC1C3"/>
<stop offset="0.559309" stop-color="#BEC1C3"/>
<stop offset="0.56219" stop-color="#E1E5E9"/>
<stop offset="0.872769" stop-color="#E1E5E9"/>
<stop offset="0.873853" stop-color="#DCE1E4"/>
<stop offset="1" stop-color="#DCE1E4"/>
</linearGradient>
<linearGradient id="paint43_linear_12_22" x1="287.258" y1="539.32" x2="325.68" y2="539.32" gradientUnits="userSpaceOnUse">
<stop stop-color="#BCBFC0"/>
<stop offset="0.161336" stop-color="#BCBFC0"/>
<stop offset="0.163257" stop-color="#D5D8DB"/>
<stop offset="0.559309" stop-color="#D5D8DB"/>
<stop offset="0.56219" stop-color="#F6FAFE"/>
<stop offset="0.872769" stop-color="#F6FAFE"/>
<stop offset="0.873853" stop-color="#F2F6FA"/>
<stop offset="1" stop-color="#F2F6FA"/>
</linearGradient>
<linearGradient id="paint44_linear_12_22" x1="289.199" y1="531.448" x2="323.743" y2="531.448" gradientUnits="userSpaceOnUse">
<stop stop-color="#A4A8A9"/>
<stop offset="0.161336" stop-color="#A4A8A9"/>
<stop offset="0.163257" stop-color="#BEC1C3"/>
<stop offset="0.559309" stop-color="#BEC1C3"/>
<stop offset="0.56219" stop-color="#E1E5E9"/>
<stop offset="0.872769" stop-color="#E1E5E9"/>
<stop offset="0.873853" stop-color="#DCE1E4"/>
<stop offset="1" stop-color="#DCE1E4"/>
</linearGradient>
<linearGradient id="paint45_linear_12_22" x1="195.498" y1="649.448" x2="208.055" y2="671.197" gradientUnits="userSpaceOnUse">
<stop stop-color="#DCE1E4"/>
<stop offset="0.126147" stop-color="#DCE1E4"/>
<stop offset="0.127231" stop-color="#E1E5E9"/>
<stop offset="0.43781" stop-color="#E1E5E9"/>
<stop offset="0.440691" stop-color="#BEC1C3"/>
<stop offset="0.836743" stop-color="#BEC1C3"/>
<stop offset="0.838664" stop-color="#A4A8A9"/>
<stop offset="1" stop-color="#A4A8A9"/>
</linearGradient>
<linearGradient id="paint46_linear_12_22" x1="387.483" y1="452.453" x2="410.037" y2="452.453" gradientUnits="userSpaceOnUse">
<stop stop-color="#A4A8A9"/>
<stop offset="0.161336" stop-color="#A4A8A9"/>
<stop offset="0.163257" stop-color="#BEC1C3"/>
<stop offset="0.559309" stop-color="#BEC1C3"/>
<stop offset="0.56219" stop-color="#E1E5E9"/>
<stop offset="0.872769" stop-color="#E1E5E9"/>
<stop offset="0.873853" stop-color="#DCE1E4"/>
<stop offset="1" stop-color="#DCE1E4"/>
</linearGradient>
</defs>
</svg>
