<svg id="eFAvZrD9wPs1" xmlns="http://www.w3.org/2000/svg" xmlns:xlink="http://www.w3.org/1999/xlink" viewBox="0 0 875 729" shape-rendering="geometricPrecision" text-rendering="geometricPrecision"><style><![CDATA[#eFAvZrD9wPs3_to {animation: eFAvZrD9wPs3_to__to 3000ms linear infinite normal forwards}@keyframes eFAvZrD9wPs3_to__to { 0% {transform: translate(641.075012px,355.486481px)} 33.333333% {transform: translate(640.075012px,354.486481px)} 66.666667% {transform: translate(640.075012px,372.486481px)} 83.333333% {transform: translate(641.075012px,377.486481px)} 100% {transform: translate(640.075012px,372.486481px)}} #eFAvZrD9wPs217_tr {animation: eFAvZrD9wPs217_tr__tr 3000ms linear infinite normal forwards}@keyframes eFAvZrD9wPs217_tr__tr { 0% {transform: translate(225.746px,240.145px) rotate(0.515325deg)} 50% {transform: translate(225.746px,240.145px) rotate(36.188812deg)} 100% {transform: translate(225.746px,240.145px) rotate(2.555771deg)}} #eFAvZrD9wPs218_tr {animation: eFAvZrD9wPs218_tr__tr 3000ms linear infinite normal forwards}@keyframes eFAvZrD9wPs218_tr__tr { 0% {transform: translate(109.765716px,541.469px) rotate(-0.31304deg)} 33.333333% {transform: translate(109.765716px,541.469px) rotate(27.515631deg)} 46.666667% {transform: translate(109.765716px,541.469px) rotate(20.521538deg)} 100% {transform: translate(109.765716px,541.469px) rotate(-3.163731deg)}} #eFAvZrD9wPs276_tr {animation: eFAvZrD9wPs276_tr__tr 3000ms linear infinite normal forwards}@keyframes eFAvZrD9wPs276_tr__tr { 0% {transform: translate(110.349445px,540.240509px) rotate(-0.31304deg)} 33.333333% {transform: translate(110.349445px,540.240509px) rotate(27.515631deg)} 46.666667% {transform: translate(110.349445px,540.240509px) rotate(20.521538deg)} 100% {transform: translate(110.349445px,540.240509px) rotate(-3.163731deg)}}]]></style><g clip-path="url(#eFAvZrD9wPs320)"><g id="eFAvZrD9wPs3_to" transform="translate(641.075012,355.486481)"><g transform="scale(0.813236,0.813236) translate(-600.075012,-355.486481)"><path d="M468.795,322.565L850.544,102.303c15.924-9.1901,30.299-10.7776,40.544-5.9387l.008-.0149.211.1314c1.103.5244,2.143,1.1169,3.136,1.7976L962.877,137.7l-7.321,6.888-24.792,27.957c-1.353,31.078-41.31,31.395-71.562,48.859L513.312,420.958l-17.011,60.998-68.981-39.801-1.72-1.001-.219-.116l8.657,4.985c-8.071-5.211-21.593-20.07-21.593-33.895c0-31.508,25.23-71.61,56.35-89.563Z" fill="#421721"/><path d="M899.12,112.087l-50.344-9.825c0,0,4.599-5.0708,6.249-6.2737l48.005,9.7057l24.089,33.132-3.496,6.629-24.503-33.368Z" fill="#4e242f"/><path d="M867.734,129.933l-50.344-9.825c0,0,4.599-5.056,6.249-6.277l48.005,9.715l24.089,33.126-3.496,6.628-24.503-33.367Z" fill="#4e242f"/><path d="M836.348,147.784l-50.344-9.834c0,0,4.599-5.056,6.249-6.267l48.006,9.708l24.088,33.132-3.496,6.629-24.503-33.368Z" fill="#4e242f"/><path d="M804.963,165.627l-50.344-9.825c0,0,4.599-5.062,6.249-6.268l48.005,9.709l24.097,33.123-3.504,6.628-24.503-33.367Z" fill="#4e242f"/><path d="M773.576,183.478l-50.344-9.824c0,0,4.599-5.071,6.249-6.275l48.005,9.706l24.089,33.126-3.488,6.635-24.511-33.368Z" fill="#4e242f"/><path d="M742.199,201.33l-50.343-9.831c0,0,4.59-5.066,6.241-6.277l48.005,9.708l24.096,33.139-3.504,6.622-24.495-33.361Z" fill="#4e242f"/><path d="M710.814,219.175L660.47,209.35c0,0,4.591-5.065,6.242-6.278l48.005,9.709l24.088,33.133-3.488,6.619-24.503-33.358Z" fill="#4e242f"/><path d="M679.427,237.017l-50.351-9.821c0,0,4.598-5.066,6.249-6.272l48.013,9.709l24.088,33.123-3.504,6.637-24.495-33.376Z" fill="#4e242f"/><path d="M648.043,254.862l-50.352-9.824c0,0,4.599-5.056,6.249-6.269l48.005,9.706l24.097,33.127-3.496,6.634-24.503-33.374Z" fill="#4e242f"/><path d="M616.656,272.714l-50.344-9.824c0,0,4.6-5.066,6.25-6.269l47.997,9.7l24.089,33.132-3.489,6.628-24.503-33.367Z" fill="#4e242f"/><path d="M585.272,290.566l-50.343-9.824c0,0,4.599-5.072,6.249-6.278l48.005,9.709l24.088,33.132-3.495,6.628-24.504-33.367Z" fill="#4e242f"/><path d="M553.886,308.408l-50.344-9.822c0,0,4.591-5.059,6.241-6.277l48.013,9.715l24.089,33.123-3.496,6.628-24.503-33.367Z" fill="#4e242f"/><path d="M522.499,326.26l-50.343-9.831c0,0,4.599-5.057,6.249-6.269l48.005,9.706l24.089,33.133-3.496,6.627-24.504-33.366Z" fill="#4e242f"/><path d="M491.546,344.597l-50.343-9.831c0,0,4.598-5.059,6.248-6.268l47.998,9.699l24.096,33.139-3.496,6.618-24.503-33.357Z" fill="#4e242f"/><path d="M469.795,373.399l-50.351-9.824c0,0,4.599-5.065,6.249-6.269l48.013,9.701l24.088,33.132-3.496,6.625-24.503-33.365Z" fill="#4e242f"/><path d="M459.66,406.178l-50.344-9.831c0,0,4.591-5.066,6.241-6.269l48.005,9.7l24.089,33.139-3.488,6.622-24.503-33.361Z" fill="#4e242f"/><path d="M459.205,442.256l-50.343-9.822c0,0,4.599-5.059,6.249-6.277l48.005,9.715l24.096,33.123-3.503,6.628-24.504-33.367Z" fill="#4e242f"/><path d="M919.438,142.054L537.689,362.317c-31.12,17.952-56.35,58.048-56.35,89.553c0,31.514,25.23,42.503,56.35,24.544L919.438,256.151c31.12-17.943,56.343-58.049,56.343-89.562c0-31.506-25.223-42.488-56.343-24.535Z" fill="#724f5b"/><path d="M492.85,445.227c0,2.806.274,5.401.79,7.76c3.942,17.993,22.196,22.831,44.048,10.225L919.437,242.943c24.714-14.258,44.83-45.528,44.83-69.711c0-20.914-15.063-29.771-35.139-22.526-3.113,1.127-6.367,2.635-9.691,4.558L537.688,375.518c-24.73,14.27-44.838,45.544-44.838,69.709Z" fill="#421721"/><path d="M492.851,445.227c0,2.806.273,5.4.79,7.76c3.112-1.123,6.366-2.64,9.69-4.564L885.08,228.163c24.722-14.258,44.838-45.537,44.838-69.703c0-2.799-.274-5.394-.79-7.755-3.113,1.128-6.366,2.636-9.69,4.559l-19.686,11.358-9.119,5.257-39.261,22.645-58.407,33.709-.243.15-12.748,7.346-9.135,5.276-25.59,14.755-40.724,23.503-51.29,29.584-5.951,3.438-1.275.736-20.468,11.8-8.759,5.065-21.265,12.265-45.886,26.473-11.943,6.894c-1.126.647-2.229,1.334-3.339,2.055-3.402,2.204-6.703,4.72-9.855,7.495-18.309,16.077-31.643,40.472-31.643,60.159Z" fill="#270b12"/><path d="M705.73,328.403c0,10.24,7.243,14.365,16.174,9.214c8.932-5.157,16.174-17.641,16.174-27.878c0-10.246-7.242-14.368-16.174-9.217-8.931,5.154-16.174,17.635-16.174,27.881Z" fill="#704e59"/><path d="M707.607,325.136c0,8.744,6.179,12.265,13.804,7.862c7.626-4.39,13.804-15.046,13.804-23.799c0-8.738-6.178-12.265-13.804-7.862-7.625,4.4-13.804,15.052-13.804,23.799Z" fill="#82646f"/><path d="M629.429,351.952c0,13.302,9.401,18.666,21.007,11.967c11.599-6.692,21-22.895,21-36.197c0-13.308-9.401-18.663-21-11.974-11.606,6.698-21.007,22.901-21.007,36.204Z" fill="#421721"/><path d="M632.378,338.172l10.488,4.565c0,0-4.732,7.8-4.443,18.453.298,10.652,2.136,9.864,2.136,9.864l10.871,3.743l27.107-52.321-14.437-8.808-16.69,8.897-15.032,15.607Z" fill="#421721"/><path d="M643.092,360.408c0,13.296,9.4,18.657,21.007,11.959c11.598-6.69,20.999-22.892,20.999-36.195c0-13.305-9.401-18.666-20.999-11.974-11.607,6.698-21.007,22.908-21.007,36.21Z" fill="#704e59"/><path d="M648.786,357.117c0,9.709,6.859,13.617,15.314,8.732c8.454-4.879,15.313-16.694,15.313-26.394s-6.859-13.608-15.313-8.732c-8.455,4.885-15.314,16.704-15.314,26.394Z" fill="#82646f"/><path d="M743.717,286.829c0,13.301,9.408,18.665,20.999,11.967c11.606-6.692,21.007-22.895,21.007-36.197c0-13.309-9.401-18.663-21.007-11.975-11.591,6.699-20.999,22.902-20.999,36.205Z" fill="#421721"/><path d="M746.666,273.05l10.48,4.558c0,0-4.724,7.807-4.434,18.459.297,10.652,2.127,9.865,2.127,9.865l10.879,3.743l27.107-52.318-14.437-8.812-16.69,8.897-15.032,15.608Z" fill="#421721"/><path d="M757.38,295.286c0,13.296,9.401,18.657,21.007,11.959c11.591-6.684,20.999-22.892,20.999-36.195c0-13.311-9.408-18.667-20.999-11.974-11.606,6.698-21.007,22.907-21.007,36.21Z" fill="#704e59"/><path d="M763.066,291.998c0,9.706,6.859,13.614,15.321,8.729c8.455-4.885,15.306-16.695,15.306-26.395c0-9.699-6.851-13.607-15.306-8.732-8.462,4.885-15.321,16.705-15.321,26.398Z" fill="#82646f"/><path d="M616.783,329.886l8.391,7.731l19.475,10.255.015-.024.008-.006l57.257-65.614l2.597-2.965-57.242,33.023-21.742,12.536-8.759,5.064Z" fill="#b7511e"/><path d="M625.542,324.822l19.122,23.026.008-.006l140.895-81.31l7.156-38.149-47.474,27.386-40.723,23.494-57.242,33.023-21.742,12.536Z" fill="#e08217"/><path d="M647.284,312.285l1.845,2.204l52.8-32.262l43.32-26.458-40.724,23.494-57.241,33.022Z" fill="#b74c1e"/><path d="M848.229,245.975c0,10.24,7.234,14.358,16.165,9.207c8.94-5.15,16.174-17.64,16.174-27.871c0-10.246-7.234-14.374-16.174-9.224-8.931,5.151-16.165,17.642-16.165,27.888Z" fill="#704e59"/><path d="M850.097,242.708c0,8.738,6.187,12.265,13.812,7.862c7.626-4.399,13.804-15.052,13.804-23.799c0-8.744-6.178-12.27-13.804-7.862-7.625,4.394-13.812,15.046-13.812,23.799Z" fill="#82646f"/><path d="M806.707,271.416c0,10.246,7.235,14.374,16.166,9.224c8.94-5.151,16.174-17.641,16.174-27.881c0-10.247-7.234-14.365-16.174-9.214-8.931,5.15-16.166,17.631-16.166,27.871Z" fill="#704e59"/><path d="M808.577,268.156c0,8.747,6.187,12.273,13.804,7.864c7.633-4.393,13.812-15.045,13.812-23.798c0-8.738-6.179-12.264-13.812-7.856-7.617,4.394-13.804,15.046-13.804,23.79Z" fill="#82646f"/><path d="M601.845,384.592c0,10.237,7.243,14.365,16.174,9.215c8.932-5.16,16.174-17.642,16.174-27.878c0-10.241-7.242-14.375-16.174-9.218-8.931,5.151-16.174,17.635-16.174,27.881Z" fill="#704e59"/><path d="M603.721,381.325c0,8.739,6.179,12.261,13.812,7.863c7.618-4.4,13.797-15.056,13.797-23.8c0-8.738-6.179-12.264-13.797-7.865-7.633,4.403-13.812,15.056-13.812,23.802Z" fill="#82646f"/><path d="M560.322,410.039c0,10.241,7.242,14.375,16.174,9.215c8.931-5.151,16.173-17.632,16.173-27.878c0-10.24-7.242-14.365-16.173-9.215-8.932,5.157-16.174,17.632-16.174,27.878Z" fill="#704e59"/><path d="M562.191,406.782c0,8.738,6.187,12.262,13.813,7.862c7.625-4.4,13.811-15.055,13.811-23.799c0-8.738-6.186-12.271-13.811-7.865-7.626,4.393-13.813,15.055-13.813,23.802Z" fill="#82646f"/><path d="M773.835,248.501l1.588,1.462.985.907.384.351l16.064,14.804l10.464,5.508.016-.015.008-.016l30.768-35.266.007-.006l10.41-11.904l9.792-11.218l13.812-15.842.008-.006l6.616-7.581-1.071-4.958-22.314,9.803-58.407,33.71-16.025,16.975-3.105,3.292Z" fill="#b7511e"/><path d="M768.735,247.578l5.991,4.573l1.682-1.282l21.085-16.062.258.296l4.184,4.97l1.142,1.353l5.999,4.573l45.244-32.891l25.935-18.873.75-2.627l2.683-9.473l6.945-10.256-39.261,22.645-58.407,33.71-.243.149-12.748,7.346-9.135,5.276-2.104,6.573Z" fill="#aaacab"/><path d="M782.986,247.037l4.583,5.505l15.767,18.975l75.777-43.729l4.365-23.278l1.751-9.323-1.094-4.962-67.761,29.826-33.388,26.986Z" fill="#e08217"/><path d="M782.986,247.037l4.583,5.505l12.6-5.55.766.866l4.802,5.723l77.201-47.162.54-1.909l1.751-9.323-1.094-4.962-67.761,29.826-33.388,26.986Z" fill="#b74c1e"/><path d="M774.725,252.151l2.065-.931l7.07-3.126l18.074-8.021l1.565-.692.727.867l4.849,5.751l35.453-21.673l39.801-24.34l1.931-1.178l3.418-12.109l13.695-10.255-3.621-9.822-9.12,5.257-39.261,22.646-58.407,33.709-.243.149-12.748,7.346-3.034,9.48-1.518,4.754-.696,2.188Z" fill="#86898a"/><path d="M527.733,391.837l1.587,1.454.986.915.391.357l16.048,14.805l10.481,5.502.007-.016.008-.006l30.776-35.281.007-.01l10.402-11.895l9.8-11.238l13.812-15.821l6.616-7.59-1.071-4.946-32.066,14.084-45.886,26.473-18.786,19.915-3.112,3.298Z" fill="#b43d20"/><path d="M522.632,390.921l5.983,4.565l1.689-1.28l21.101-16.062.243.29l4.184,4.977l1.134,1.352l6.007,4.564l45.252-32.902l25.934-18.854.743-2.635l2.683-9.473l8.423-12.442-20.468,11.801-8.759,5.064-21.265,12.265-45.886,26.474-11.943,6.893c-1.126.647-2.236,1.334-3.339,2.055-3.402,2.204-6.703,4.72-9.855,7.496l-1.861,5.852Z" fill="#aaacab"/><path d="M536.884,390.374l4.583,5.502l15.767,18.978l75.778-43.73l4.372-23.276l1.736-9.325-1.087-4.96-67.761,29.822-33.388,26.989Z" fill="#ce4121"/><path d="M536.884,390.374l4.583,5.502l12.6-5.556.766.876l4.795,5.721l77.201-47.161.555-1.908l1.736-9.325-1.087-4.96-67.761,29.822-33.388,26.989Z" fill="#9e2f1e"/><path d="M528.615,395.486l2.081-.923l7.054-3.132l18.082-8.02l1.557-.697.735.871l4.849,5.742l35.452-21.665l39.801-24.329l1.924-1.191l3.442-12.105l13.679-10.247-4.036-10.936-5.952,3.432-1.275.735-20.467,11.801-8.76,5.064-21.265,12.265-45.886,26.474-11.942,6.893c-1.126.647-2.237,1.334-3.34,2.055l-3.504,10.967-1.525,4.751-.704,2.195Z" fill="#86898a"/><path d="M497.738,433.597c0,13.302,9.401,18.658,21.007,11.965c11.599-6.698,21-22.897,21-36.203c0-13.302-9.401-18.664-21-11.965-11.606,6.689-21.007,22.892-21.007,36.203Z" fill="#421721"/><path d="M500.688,419.818l10.479,4.555c0,0-4.724,7.802-4.426,18.453.289,10.656,2.127,9.865,2.127,9.865l10.872,3.743l27.114-52.318-14.445-8.808-16.69,8.9-15.031,15.61Z" fill="#421721"/><path d="M511.403,442.054c0,13.293,9.401,18.649,21.007,11.959c11.59-6.693,20.999-22.901,20.999-36.203c0-13.297-9.409-18.658-20.999-11.969-11.606,6.693-21.007,22.902-21.007,36.213Z" fill="#704e59"/><path d="M517.096,438.763c0,9.699,6.851,13.607,15.314,8.722c8.454-4.875,15.313-16.694,15.313-26.393c0-9.691-6.859-13.599-15.313-8.723-8.463,4.885-15.314,16.694-15.314,26.394Z" fill="#82646f"/><path d="M685.161,447.407L1066.91,227.141c15.92-9.184,30.3-10.772,40.55-5.932l.01-.019.21.119c1.1.538,2.14,1.134,3.14,1.814l68.42,39.421-7.31,6.879-24.8,27.966c-1.34,31.069-41.31,31.389-71.56,48.85L729.686,545.802L712.668,606.8L643.687,567l-1.721-1.002-.219-.125l8.666,4.995c-8.087-5.211-21.602-20.071-21.602-33.904c0-31.506,25.231-71.602,56.35-89.557Z" fill="#421721"/><path d="M895.794,361.862l-50.343-9.825c0,0,4.599-5.062,6.249-6.274l48.005,9.706l24.088,33.132-3.495,6.628-24.504-33.367Z" fill="#4e242f"/><path d="M864.411,379.707l-50.344-9.825c0,0,4.591-5.056,6.242-6.277l48.005,9.715l24.096,33.123-3.496,6.628-24.503-33.364Z" fill="#4e242f"/><path d="M833.024,397.558l-50.343-9.834c0,0,4.598-5.055,6.249-6.268l48.005,9.709l24.088,33.132-3.496,6.626-24.503-33.365Z" fill="#4e242f"/><path d="M801.639,415.401l-50.343-9.816c0,0,4.598-5.074,6.249-6.277l48.005,9.709l24.088,33.123-3.496,6.628-24.503-33.367Z" fill="#4e242f"/><path d="M770.253,433.246l-50.344-9.819c0,0,4.599-5.071,6.249-6.274l48.005,9.706l24.089,33.126-3.496,6.635-24.503-33.374Z" fill="#4e242f"/><path d="M738.868,451.104l-50.336-9.831c0,0,4.591-5.056,6.241-6.277l48.005,9.709l24.089,33.138-3.496,6.62-24.503-33.359Z" fill="#4e242f"/><path d="M707.913,469.435l-50.344-9.825c0,0,4.599-5.065,6.249-6.277l48.005,9.706l24.089,33.132-3.496,6.628-24.503-33.364Z" fill="#4e242f"/><path d="M686.162,498.244l-50.343-9.834c0,0,4.591-5.056,6.241-6.268l48.013,9.709l24.089,33.129-3.496,6.628-24.504-33.364Z" fill="#4e242f"/><path d="M676.026,531.016l-50.344-9.825c0,0,4.591-5.065,6.241-6.277l48.013,9.709l24.089,33.132-3.496,6.625-24.503-33.364Z" fill="#4e242f"/><path d="M675.574,567.1l-50.336-9.825c0,0,4.591-5.071,6.241-6.274l48.005,9.706l24.097,33.126-3.496,6.635L675.574,567.1Z" fill="#4e242f"/><path d="M1135.8,266.892L754.055,487.152c-31.119,17.962-56.35,58.058-56.35,89.563s25.231,42.502,56.35,24.544L1135.8,380.996c31.12-17.961,56.35-58.055,56.35-89.563c0-31.505-25.23-42.487-56.35-24.541Z" fill="#724f5b"/><path d="M709.218,570.064c0,2.813.274,5.399.79,7.768c3.942,17.977,22.188,22.831,44.048,10.215L1135.81,367.788c24.71-14.264,44.83-45.537,44.83-69.712c0-20.914-15.07-29.771-35.14-22.525-3.12,1.117-6.37,2.634-9.69,4.548L754.056,500.353c-24.722,14.28-44.838,45.552-44.838,69.711Z" fill="#421721"/><path d="M709.219,570.065c0,2.812.274,5.398.79,7.767c3.12-1.124,6.366-2.65,9.69-4.565l381.751-220.26c24.72-14.257,44.84-45.536,44.84-69.711c0-2.79-.28-5.386-.79-7.745-3.12,1.117-6.37,2.634-9.69,4.549l-19.69,11.363-9.12,5.261-39.26,22.644-58.4,33.71-.25.14-12.748,7.355-9.134,5.276-25.591,14.756-40.723,23.502-51.29,29.585-5.952,3.438-1.267.726-20.468,11.809-8.767,5.066-21.265,12.264-45.886,26.473-11.943,6.885c-1.118.657-2.229,1.328-3.339,2.055-3.402,2.198-6.703,4.73-9.847,7.496-18.309,16.086-31.651,40.478-31.651,60.161Z" fill="#270b12"/><path d="M845.805,476.795c0,13.303,9.401,18.664,20.999,11.966c11.599-6.69,21.008-22.908,21.008-36.201c0-13.306-9.409-18.658-21.008-11.968-11.598,6.692-20.999,22.901-20.999,36.203Z" fill="#421721"/><path d="M848.745,463.016l10.487,4.556c0,0-4.731,7.801-4.434,18.453.289,10.656,2.127,9.865,2.127,9.865l10.871,3.752l27.108-52.327-14.438-8.809-16.69,8.9-15.031,15.61Z" fill="#421721"/><path d="M859.46,485.244c0,13.305,9.408,18.667,21.007,11.968c11.598-6.692,20.999-22.901,20.999-36.204c0-13.302-9.401-18.657-20.999-11.964-11.599,6.695-21.007,22.907-21.007,36.2Z" fill="#704e59"/><path d="M865.154,481.962c0,9.699,6.859,13.601,15.314,8.723c8.454-4.876,15.313-16.695,15.313-26.395c0-9.69-6.859-13.598-15.313-8.723-8.455,4.879-15.314,16.704-15.314,26.395Z" fill="#82646f"/><path d="M833.15,454.731l8.4,7.731l19.466,10.245.024-.021.007-.009l57.25-65.609l2.597-2.961-57.242,33.022-21.735,12.536-8.767,5.066Z" fill="#b43d20"/><path d="M841.916,449.666l19.123,23.021.008-.01l140.893-81.301l7.15-38.157-47.474,27.386-40.723,23.502-57.242,33.023-21.735,12.536Z" fill="#ce4121"/><path d="M863.651,437.129l1.846,2.205l52.799-32.266l43.32-26.464-40.723,23.503-57.242,33.022Z" fill="#9e2f1e"/><path d="M818.213,509.427c0,10.241,7.242,14.374,16.174,9.214c8.931-5.15,16.174-17.631,16.174-27.878c0-10.246-7.243-14.364-16.174-9.214-8.932,5.151-16.174,17.638-16.174,27.878Z" fill="#704e59"/><path d="M820.088,506.169c0,8.738,6.186,12.262,13.812,7.862c7.617-4.4,13.804-15.055,13.804-23.799c0-8.747-6.187-12.27-13.804-7.865-7.626,4.393-13.812,15.055-13.812,23.802Z" fill="#82646f"/><path d="M776.689,534.875c0,10.249,7.243,14.374,16.174,9.224c8.932-5.157,16.174-17.642,16.174-27.878c0-10.247-7.242-14.368-16.174-9.217-8.931,5.153-16.174,17.634-16.174,27.871Z" fill="#704e59"/><path d="M778.567,531.617c0,8.747,6.178,12.264,13.804,7.862c7.625-4.391,13.812-15.046,13.812-23.8c0-8.746-6.187-12.264-13.812-7.861-7.626,4.4-13.804,15.052-13.804,23.799Z" fill="#82646f"/><path d="M744.101,516.666l1.587,1.469.994.913.391.354l16.04,14.81l10.48,5.502.008-.015.008-.009l30.784-35.279.007-.009l10.394-11.895l9.8-11.242l13.812-15.818l6.616-7.59-1.071-4.955-32.066,14.093-45.886,26.473-18.786,19.907-3.112,3.291Z" fill="#b43d20"/><path d="M739.001,515.759l5.99,4.565l1.69-1.276l21.093-16.069.243.296l4.184,4.974l1.134,1.349l6.006,4.574l45.252-32.907l25.935-18.849.743-2.635l2.682-9.48l8.431-12.444-20.467,11.809-8.768,5.065-21.265,12.264-45.885,26.473-11.943,6.885c-1.118.657-2.229,1.328-3.34,2.055-3.402,2.198-6.702,4.73-9.846,7.496l-1.869,5.855Z" fill="#aaacab"/><path d="M753.251,515.219l4.583,5.502l15.767,18.978l75.785-43.73l4.364-23.283l1.744-9.327-1.095-4.962-67.761,29.832-33.387,26.99Z" fill="#e55d1b"/><path d="M753.251,515.219l4.583,5.502l12.599-5.557.767.867l4.802,5.731L853.203,474.6l.547-1.914l1.744-9.327-1.095-4.962-67.761,29.832-33.387,26.99Z" fill="#9e2f1e"/><path d="M744.99,520.324l2.081-.922l7.054-3.127l18.075-8.026l1.564-.696.727.873l4.849,5.746l35.453-21.665l39.801-24.34l1.931-1.181l3.434-12.106l13.679-10.246-4.036-10.942-5.952,3.438-1.267.726-20.467,11.809-8.768,5.066-21.265,12.264-45.885,26.473-11.943,6.885c-1.118.657-2.229,1.328-3.34,2.055l-3.503,10.967-1.525,4.76-.697,2.189Z" fill="#86898a"/><path d="M714.113,558.433c0,13.302,9.401,18.666,21,11.968c11.598-6.692,20.999-22.895,20.999-36.197c0-13.309-9.401-18.664-20.999-11.975-11.599,6.699-21,22.901-21,36.204Z" fill="#421721"/><path d="M717.054,544.654l10.488,4.558c0,0-4.731,7.807-4.434,18.459.289,10.653,2.127,9.865,2.127,9.865l10.871,3.743l27.108-52.318-14.438-8.811-16.69,8.897-15.032,15.607Z" fill="#421721"/><path d="M727.769,566.89c0,13.297,9.4,18.658,21.007,11.959c11.598-6.689,20.999-22.892,20.999-36.195c0-13.311-9.401-18.666-20.999-11.974-11.607,6.699-21.007,22.907-21.007,36.21Z" fill="#704e59"/><path d="M733.462,563.598c0,9.709,6.851,13.617,15.313,8.732c8.455-4.885,15.306-16.695,15.306-26.394c0-9.7-6.851-13.608-15.306-8.732-8.462,4.885-15.313,16.704-15.313,26.394Z" fill="#82646f"/><path d="M676.58,453.012l45.471,26.318L858.05,394.509c0,0,29.266-1.609,74.894-19.25c45.635-17.647,53.331-51.075,53.331-51.075L1136.2,237.747l-28.52-16.438-446.241,107.32L693.38,442.461l-16.8,10.551Z" fill="#270b12"/><path d="M996.936,275.92h-334.503v9.666h.305c-1.689,25.982,14.555,52.336,49.038,72.237c65.524,37.812,171.42,37.983,236.545.429c34.545-19.93,50.461-46.468,48.208-72.666h.407v-9.666Z" fill="#241e21"/><path d="M948.321,344.355c-65.125,37.571-171.021,37.392-236.545-.421-65.516-37.807-65.837-98.906-.727-136.467c65.102-37.579,170.998-37.377,236.522.429c65.519,37.789,65.859,98.912.75,136.459Z" transform="translate(.000001 0)" fill="#3b3236"/><path d="M226.922,180.556l-7.039-4.058l33.967-.014-14.242,5.605-12.686-1.533Z" fill="#fabd22"/><path d="M226.922,229.131v-48.575l12.686,1.533v48.575l-12.686-1.533Z" fill="#cb4720"/><path d="M625.878,198.213l-55.099-87.148L545.22,96.3155L490.145,82.0757L215.519,191.795l-29.9,22.666-3.144,15.806l25.559,14.755l245.618-76.025l56.953,7.752l77.107,51.61l13.373,36.499l25.567,14.741-.774-81.386Z" fill="#d33e21"/><path d="M490.146,82.0757l25.559,14.7557L265.168,196.836l-25.559-14.747L490.146,82.0757Z" fill="#fabd22"/><path d="M290.78,182.089l37.682-15.672h5.264l111.918-47.27l3.269-5.713-7.18-3.496-122.414,51.579-.273,3.267-33.803,14.499l5.537,2.806Z" fill="#cb4b1f"/><path d="M617.603,164.278l3.895-3.096-41.843-52.196c-1.885-.907-46.472-22.2207-62.802-19.6015-15.861,2.5222-76.411,24.4165-78.976,25.3475l1.697,4.68c.625-.226,62.661-22.6571,78.053-25.1121c12.232-1.8836,46.457,12.7771,59.346,18.9291l40.63,51.049Z" fill="#270b12"/><path d="M606.092,156.241l3.895-3.095-41.85-52.196c-1.885-.907-46.512-22.2115-62.803-19.601-15.962,2.5402-72.391,28.198-74.784,29.286l2.065,4.534c.579-.266,58.204-26.4589,73.501-28.9045c12.178-1.8837,46.449,12.7806,59.338,18.9295l40.638,51.047Z" fill="#270b12"/><path d="M441.022,118.093c-.587,1.453-1.455,2.359-2.44,2.702-1.346.476-135.241,25.557-135.241,25.557l-2.338-16.303c0,0,133.223-25.011,134.231-25.332c1.338-.431,2.863.165,4.169,1.838c2.291,2.937,3.019,8.112,1.619,11.538Z" fill="#e55d1b"/><path d="M306.383,143.516c-1.392,3.441-4.38,3.832-6.671.892-2.292-2.941-3.019-8.113-1.619-11.545c1.392-3.44,4.38-3.831,6.671-.891c2.292,2.946,3.019,8.113,1.619,11.544Z" fill="#f6891e"/><path d="M208.231,160.156l-.501-8.488l91.897-17.546c2.526-.477,4.895,1.368,5.052,3.932.117,2.095-1.33,3.948-3.394,4.336l-93.054,17.766Z" fill="#727a7e"/><path d="M651.438,212.968L570.78,111.065L515.705,96.8311L265.168,196.835l.102,47.07l213.95-60.161l56.937,7.755l77.122,51.6l13.374,36.5l39.34-33.975-14.555-32.656Z" fill="#bc3821"/><path d="M224.185,222.005l-7.047-4.057l44.994-17.07l7.047,4.063-44.994,17.064Z" fill="#fabd22"/><path d="M269.179,204.942l-7.047-4.064l10.058-13.812l7.047,4.066-10.058,13.81Z" fill="#fabd22"/><path d="M269.179,253.51v-48.569l10.058-13.809v48.575L269.179,253.51Z" fill="#cb4720"/><path d="M539.417,193.678l-13.092-41.174-13.413-29.957-6.734,3.493l24.769,64.747l5.209.711l3.261,2.18Z" fill="#85261b"/><path d="M617.188,388.421c-1.548-.281-2.604-.947-3.151-1.836-.736-1.22-76.137-184.074-76.137-184.074l15.493-5.602c0,0,75.198,182.212,75.715,183.134.696,1.212.43,2.83-.947,4.445-2.416,2.845-7.336,4.604-10.973,3.933Z" fill="#e55d1b"/><path d="M541.302,204.918c-3.652-.673-4.646-3.515-2.237-6.354c2.417-2.846,7.336-4.605,10.981-3.939c3.652.665,4.646,3.517,2.229,6.354-2.417,2.84-7.336,4.604-10.973,3.939Z" fill="#f6891e"/><path d="M706.903,249.352L896.155,358.541l2.87-122.164L709.781,127.183l-2.878,4.96v117.209Z" fill="#b43d20"/><path d="M814.082,239.221l68.121,38.98v-45.068l3.198-4.619-70.85-45.143-.469,55.85Z" fill="#bc3821"/><path d="M706.904,180.571L896.156,289.769v9.95L706.904,190.531v-9.96Z" fill="#aaacab"/><path d="M956.447,0.000488L709.781,127.182l-2.878,4.961v117.209l241.84-139.53l5.037-9.098l3.598-12.3956l10.941-57.2126-6.835-29.89598-5.037-1.219332Z" fill="#c6511f"/><path d="M956.447,0.000488L1125.58,97.8022L1085.7,128.675L899.026,236.377L709.781,127.182L896.296,19.5717L956.447,0.000488Z" fill="#fabd22"/><path d="M871.457,145.721l75.387,43.026.304.416-2.025,1.258-74.072-43.84.406-.86Z" fill="#e55d1b"/><path d="M873.052,144.775l73.791,43.973-1.314.821-74.073-43.848l1.596-.946Z" fill="#f8e92b"/><path d="M788.172,96.2236l75.386,43.0244.305.416-2.025,1.258-74.065-43.8401.399-.8583Z" fill="#e55d1b"/><path d="M789.775,95.2769l73.783,43.9701-1.314.822-74.072-43.8456l1.603-.9465Z" fill="#f8e92b"/><path d="M792.896,93.4487l75.386,43.0183.297.421-2.025,1.258-74.065-43.8462.407-.8511Z" fill="#e55d1b"/><path d="M794.49,92.502l73.791,43.965-1.322.812-74.065-43.8305l1.596-.9465Z" fill="#f8e92b"/><path d="M797.611,90.6729l75.386,43.0121.297.421-2.018,1.253-74.072-43.8342.407-.8519Z" fill="#e55d1b"/><path d="M799.206,89.7202l73.791,43.9648-1.314.818-74.073-43.83l1.596-.9528Z" fill="#f8e92b"/><path d="M802.327,87.8828L877.714,130.91l.305.416-2.026,1.257-74.072-43.8397.406-.8605Z" fill="#e55d1b"/><path d="M803.922,86.9365L877.713,130.91l-1.314.812-74.072-43.839l1.595-.9465Z" fill="#f8e92b"/><path d="M807.052,85.1074L882.43,128.129l.304.412-2.024,1.257-74.065-43.8386.407-.852Z" fill="#e55d1b"/><path d="M808.64,84.1548l73.79,43.9742-1.314.818-74.064-43.8394l1.588-.9528Z" fill="#f8e92b"/><path d="M811.768,82.3257l75.379,43.0273.305.412-2.018,1.261-74.073-43.8484.407-.8519Z" fill="#e55d1b"/><path d="M813.363,81.3789l73.783,43.9741-1.314.812-74.064-43.8395l1.595-.9466Z" fill="#f8e92b"/><path d="M899.026,236.377l108.784-62.76-2.54-1.478-106.244,60.94-8.392-4.955l51.454-30.467-88.596-50.538.774,3.621.97,4.516l30.165,73.259l13.625,7.862Zm111.264-64.198l75.41-43.504l39.88-30.8728-40.82,28.7448-76.99,44.16l2.53,1.472" fill="#f9da22"/><path d="M780.069,167.745l51.164-29.529l105.333,60.778-51.165,29.52-105.332-60.769Z" fill="#c6511f"/><path d="M548.153,200.823l.719-.727c1.174-1.196,1.518-2.961.884-4.509l-30.963-74.728-7.407,7.526L540.817,199.4c1.22,2.971,5.083,3.713,7.336,1.423Z" fill="#727a7e"/><path d="M566.509,140.71l5.146,6.549c5.647,7.434,10.23,19.729,10.23,27.45v40.457c0,7.721-9.385,8.423-12.357-2.018l-3.051-4.916c-5.646-7.44-7.68-15.943-7.68-23.667l-1.626-37.642c-2.48-7.776,3.691-13.644,9.338-6.213Z" fill="#18110e"/><path d="M566.751,143.596l2.628,3.663c5.655,7.435,10.238,19.729,10.238,27.45v40.457c0,7.722-4.583,7.963-10.238.532l-5.177-7.465c-5.639-7.441-7.673-15.943-7.673-23.668v-40.453c0-7.725,4.575-7.957,10.222-.516Z" fill="#282321"/><path d="M571.538,136.562v73.265l-1.9.305-.946-.647-.72-1.087.094-73.555c.016-6.943,7.876-10.766,13.116-6.373l23.744,19.901-2.041,4.76-23.197-20.423c-3.199-2.814-8.15-.476-8.15,3.854Z" fill="#261f1b"/><path d="M720.222,41.1763L601.906,114.237l-7.196,10.349-2.878,8.263l3.95,2.671-15.376,141.813-2.526,46.851l4.677,33.614l2.158,16.093l2.167,14.569l121.467,70.68l49.828-260.687L724.539,41.5732l-4.317-.3969Z" fill="#270b12"/><path d="M724.539,41.5736L846.007,112.246l-4.317-.399L719.229,41.1914l5.31.3822Z" fill="#86898a"/><path d="M584.496,294.388l12.709,7.33l35.625,20.548l61.739,35.626l15.892-149.901-39.582-22.84-60.566-34.936-9.932-5.737-15.885,149.91Z" fill="#582a36"/><path d="M584.498,294.388l12.912,20.157l13.186,20.563l2.73,4.253l59.572,34.359l21.672-15.827-61.739-35.627-35.624-20.547-12.709-7.331Z" fill="#582a36"/><path d="M577.881,324.184l30.346,38.618l63.553,36.976l27.577-4.916l8.994,64.278-121.468-70.68-9.002-64.276Z" fill="#e37318"/><path d="M706.191,444.571l-36.289-19.436-5.396-14.976-53.191-31.539-9.409,4.574-17.19-9.303-6.836-49.707l30.346,38.619l63.553,36.975l27.577-4.915l6.835,49.708Z" fill="#aaacab"/><path d="M597.034,280.255l58.837-33.935l16.901-39.815-1.893-21.354-60.565-34.936-13.28,130.04Z" fill="#6d7173"/><path d="M597.033,290.69l59.814-34.218-59.814,34.218Z" fill="#402329"/><path d="M719.229,41.1909L841.69,111.846l-118.316,73.07-121.467-70.68L719.229,41.1909Z" fill="#cfd0ce"/><path d="M597.035,290.691l.172,11.028.204,12.826l13.186,20.562l22.235-12.841l17.003-9.806l7.148-23.467-.133-32.521-59.815,34.219Z" fill="#6d7173"/><path d="M841.691,111.847L723.375,184.916l-7.195,10.341-2.879,8.27l3.958,2.672-15.384,141.814-2.518,46.849l4.677,33.615l2.158,16.093l2.159,14.57l171.303-98.833v-91.18L846.008,112.246l-4.317-.399Z" fill="#e55d1b"/><path d="M717.259,206.199l-3.958-2.671l2.879-8.271l7.195-10.34l118.316-73.07l4.317.399l33.646,156.881-11.528,62.161-21.195,34.882-140.739,78.401-6.835-49.708l2.518-46.85l15.384-141.814Z" fill="#86898a"/><path d="M727.097,194.195L709.186,348.199v51.72L717,428.423l96.792-55.844l41.256-62.95l6.968-31.062-16.487-97.049-11.629-49.46-106.803,62.137Z" fill="#270b12"/><path d="M718.51,350.944l58.837-33.954l16.893-39.806-6.616-74.682-2.784-31.435-25.825,14.615-25.082,14.195L718.51,350.944Z" fill="#402329"/><path d="M778.317,327.151l.141,32.516-7.148,23.478-46.84,27.014-5.436-16.432-.532-32.356l59.815-34.22Z" fill="#402329"/><path d="M801.75,161.313l6.303,53.213l6.155,51.926l25.192,17.48l12.068-14.799-16.01-81.802-9.119-40.212-7.563,4.378-17.026,9.816Z" fill="#402329"/><path d="M757.013,233.234l6.898.697c5.655,1.166,10.23,8.381,10.23,16.101v44.842c0,7.727-4.575,13.043-10.23,11.88l-9.447-1.668c-5.647-1.163-7.681-7.407-7.681-15.131v-44.847c0-7.721,4.576-13.046,10.23-11.874Z" fill="#18110e"/><path d="M757.013,234.486l6.898.696c5.655,1.164,10.23,8.378,10.23,16.099v44.851c0,7.721-4.575,13.042-10.23,11.87l-9.447-1.663c-5.647-1.164-7.681-7.401-7.681-15.132v-44.847c0-7.725,4.576-13.046,10.23-11.874Z" fill="#282321"/><path d="M725.011,196.134l25.621,25.075c6.28,6.149,9.831,14.66,9.831,23.554v56.244l-.329.196-1.306.4c-1.337.21-2.041.015-2.643-.571v-53.875c0-8.717-3.402-17.07-9.456-23.192L723.086,200.05l-.265-2.915l2.19-1.001Z" fill="#261f1b"/><path d="M713.301,203.528L591.826,132.849l2.886-8.262l7.195-10.35l121.468,70.679-7.196,10.341-2.878,8.271Z" fill="#dadbd8"/><path d="M820.355,98.7856L700.694,169.302l-.462.679l3.403,2.063l117.447-71.866-.727-1.3924Z" fill="#979f9f"/><path d="M817.671,97.2222L700.693,169.302l2.213,1.344L820.354,98.7853l-2.683-1.5631Z" fill="#dadbd8"/><path d="M800.512,87.3911L680.844,157.914l-.454.678l3.402,2.064L801.24,88.7893l-.728-1.3982Z" fill="#979f9f"/><path d="M797.823,85.834l-116.978,72.08l2.221,1.335L800.514,87.3916l-2.691-1.5576Z" fill="#dadbd8"/><path d="M780.662,76.0029L661.001,146.517l-.461.681l3.41,2.064L781.397,77.3956l-.735-1.3927Z" fill="#979f9f"/><path d="M777.98,74.4399L661.002,146.517l2.213,1.347L780.663,76.0031l-2.683-1.5632Z" fill="#dadbd8"/><path d="M760.812,64.605L641.151,135.123l-.461.687l3.41,2.063L761.547,66.0064l-.735-1.4014Z" fill="#979f9f"/><path d="M758.139,63.0513L641.152,135.123l2.214,1.344L760.813,64.605l-2.674-1.5537Z" fill="#dadbd8"/><path d="M740.971,53.2017L621.31,123.735l-.461.681l3.41,2.055L741.706,54.6094l-.735-1.4077Z" fill="#979f9f"/><path d="M738.288,51.6572L621.309,123.735l2.214,1.343L740.97,53.2016l-2.682-1.5444Z" fill="#dadbd8"/><path d="M677.106,420.24l17.401,10.176-1.126-13.013-21.594-9.638l5.319,12.475Z" fill="#edeeeb"/><path d="M677.107,420.24l6.202-3.221l10.073.385-1.361-12.155-20.233,2.516l5.319,12.475Z" fill="#d7f1eb"/><path d="M671.787,407.765l5.319,12.475l17.401,10.177.063,1.321-18.567-10.857-5.373-12.114l1.157-1.002Z" fill="#343133"/><path d="M687.891,420.991l5.491,3.218-.172-3.587-5.499-3.218.18,3.587Z" fill="#fff"/><path d="M694.507,430.417l.063,1.321-18.567-10.857l1.103-.641l17.401,10.177Z" fill="#616062"/><path d="M589.815,365.865l13.021,7.4l5.772-4.118-22.821-29.365l4.028,26.083Z" fill="#edeeeb"/><path d="M589.815,365.865l5.091-6.138l11.614,8.904-3.684,4.634l5.772-4.118-22.821-29.365.204,14.703l3.824,11.38Z" fill="#d7f1eb"/><path d="M585.787,339.782l1.259,13.851l2.769,12.232l13.022,7.4-2.12.089-12.005-6.839-2.721-12.03-1.361-15.381l1.157.678Z" fill="#343133"/><path d="M598.856,365.708l5.498,3.213-.172-3.588-5.498-3.211.172,3.586Z" fill="#fff"/><path d="M602.837,373.265l-2.12.089-12.005-6.839l1.103-.651l13.022,7.401Z" fill="#616062"/><path d="M416.401,195.266l-14.5-5.144-89.127,24.715l14.5,5.144l89.127-24.715Z" fill="#959da7"/><path d="M341.07,216.159l-14.5-5.144-6.984,1.932l14.492,5.15l6.992-1.938Z" fill="#ee2c2f"/><path d="M356.132,211.985l-14.5-5.144-6.984,1.932l14.5,5.142l6.984-1.93Z" fill="#ee2c2f"/><path d="M371.196,207.811l-14.5-5.151-6.992,1.94l14.508,5.141l6.984-1.93Z" fill="#ee2c2f"/><path d="M386.258,203.628l-14.5-5.15-6.985,1.938l14.501,5.151l6.984-1.939Z" fill="#ee2c2f"/><path d="M401.321,199.449l-14.5-5.144-6.984,1.938l14.5,5.151l6.984-1.945Z" fill="#ee2c2f"/><path d="M416.386,195.275l-14.5-5.144-6.985,1.93l14.493,5.15l6.992-1.936Z" fill="#ee2c2f"/><path d="M505.325,123.696c0,1.071.32,1.868.852,2.345.735.64,8.642,5.501,8.642,5.501l5.679-9.73-8.056-5.105c-.735-.622-1.854-.632-3.113.089-2.213,1.273-4.004,4.369-4.004,6.9Z" fill="#270b12"/><path d="M513.616,128.962c0,2.534,1.791,3.557,4.004,2.283c2.206-1.282,4.005-4.369,4.005-6.903c0-2.53-1.799-3.554-4.005-2.28-2.213,1.273-4.004,4.369-4.004,6.9Z" fill="#533841"/><path d="M818.776,151.496l-17.027,9.817l6.304,53.212l28.007,16.474-17.284-79.503Z" fill="#563b41"/><path d="M759.015,185.682l28.609,16.82-2.784-31.435-25.825,14.615Z" fill="#563b41"/><path d="M820.355,63.3874l1.244-.7175-.617-.354-.627,1.0715Z" fill="#dcca54"/><path d="M1005.27,172.138l2.5-1.431L821.598,62.6699l-1.244.7174-.625,1.0779L1005.27,172.138Z" fill="#e49619"/><path d="M868.986,272.104l4.012-2.275c4.935-2.797,7.43-8.402,6.226-13.935l-20.945-95.58c-1.134-5.183-4.497-9.538-9.237-11.943l-.563-.29-4.802.14.133,4.98l3.512-.095c3.113,1.759,5.318,4.745,6.085,8.271l20.944,95.59c.735,3.382-.798,6.814-3.809,8.533l-4.012,2.275l2.456,4.329Z" fill="#270b12"/><path d="M586.882,388.461l-.571-4.08h-.008l.579,4.08Z" fill="#1b0a0e"/><path d="M708.351,459.14l-.743-5.035-121.303-69.724.578,4.08l8.009,4.665l2.135,1.236l29.861,17.375l11.395,6.634l70.068,40.769Z" fill="#a14a1c"/><path d="M708.351,459.14l171.303-98.833v-4.674L707.608,454.114l.743,5.026Z" fill="#a33c1e"/><path d="M841.69,111.847L720.707,183.371l-7.727,6.855-112.747-66.335l4.372-8.081L719.229,41.1914L601.907,114.237l-7.195,10.35l121.467,70.67l7.195-10.34l118.316-73.07Z" fill="#f4f3f2"/><path d="M686.004,187.621l-3.324-9.825-58.399-33.655-4.731,4.821l66.454,38.659Z" fill="#282321"/><path d="M674.236,174.6l6.898,3.987v3.307l-8.016-6.674l1.118-.62Z" fill="#db6133"/><path d="M673.117,175.22l6.905,3.984v3.306l-6.905-4.063v-3.227Z" fill="#f57734"/><path d="M680.024,179.204l1.11-.617v3.307l-1.11.616v-3.306Z" fill="#d94f20"/><path d="M650.756,161.102l6.898,3.987v3.307l-8.016-6.678l1.118-.616Z" fill="#db6133"/><path d="M649.639,161.719l6.905,3.978v3.316l-6.905-4.064v-3.23Z" fill="#f57734"/><path d="M656.544,165.697l1.11-.607v3.306l-1.11.617v-3.316Z" fill="#d94f20"/><path d="M627.277,147.605l6.907,3.978v3.315l-8.025-6.677l1.118-.616Z" fill="#db6133"/><path d="M626.16,148.221l6.905,3.987v3.307l-6.905-4.064v-3.23Z" fill="#f57734"/><path d="M633.065,152.208l1.119-.625v3.315l-1.119.617v-3.307Z" fill="#d94f20"/><path d="M204.656,227.413l14.039-1.249l5.49-4.159l44.994-17.063l10.058-13.81l18.144-7.153-18.144-11.302-20.585,6.057-19.044,3.355l25.559,14.747-3.035,4.042-44.994,17.07-12.482,9.465Z" fill="#cb4b1f"/><path d="M653.908,121.968l9.807-.742l17.934-11.053-26.584-.516-1.157,12.311Zm18.481-1.408l13.46-1.022v-.016c1.83-.156,3.621-.471,5.084-1.118c4.02-1.773,4.27-4.768.571-6.668-.884-.451-1.909-.787-3.012-1.031l-16.103,9.855Z" fill="#a9abaa"/><path d="M668.925,120.826l3.465-.266l16.103-9.855c-.782-.162-1.611-.282-2.448-.351l-17.12,10.472Z" fill="#7c8486"/><path d="M663.716,121.226l5.209-.401l17.12-10.471c-.305-.025-.618-.04-.923-.056l-.008-.061-3.465-.064-17.933,11.053Z" fill="#b2b4b3"/><path d="M665.382,108.274l-22.939-.335v8.393-.007c-.11,1.392.891,2.812,3.034,3.915c4.302,2.204,11.56,2.329,16.213.259c2.346-1.041,3.582-2.43,3.692-3.828v-8.397Z" fill="#a6cbc7"/><path d="M664.326,87.4221l-19.756-.2204-2.127,20.7373c-.11,1.398.891,2.814,3.034,3.908c4.302,2.22,11.56,2.329,16.213.274c2.346-1.041,3.582-2.433,3.692-3.847l-1.056-20.8519Z" fill="#d75e1c"/><path d="M661.706,84.0752c-3.707-1.8985-9.948-2.0087-13.96-.2314-4.02,1.7891-4.263,4.7747-.563,6.674c3.699,1.9047,9.948,2.0087,13.96.2259c4.004-1.7836,4.27-4.7693.563-6.6685Z" fill="#f79924"/><path d="M661.823,104.351c-3.989-2.055-10.723-2.165-15.048-.25-4.325,1.923-4.591,5.135-.602,7.19c3.981,2.058,10.723,2.164,15.048.244c4.317-1.917,4.59-5.135.602-7.184Z" fill="#f78e1e"/><path d="M650.976,96.5504c-1.033,2.7754-1.471,7.2236-.376,9.7946c1.087,2.561,5.874,1.85,6.906-.932c1.033-2.766.736-4.204-.352-6.7742-1.095-2.5738-5.146-4.863-6.178-2.0884Z" fill="#f78e1e"/><path d="M654.846,98.9198c-.852,2.8362-.813,6.8142.102,8.8872.915,2.076,2.354,1.453,3.214-1.386.853-2.827.814-6.8142-.101-8.8846-.915-2.0728-2.355-1.453-3.215,1.3834Z" fill="#f79924"/><g id="eFAvZrD9wPs217_tr" transform="translate(225.746,240.145) rotate(0.515325)"><g transform="translate(-225.746,-240.145)"><g id="eFAvZrD9wPs218_tr" transform="translate(109.765716,541.469) rotate(-0.31304)"><g transform="translate(-109.765716,-541.469)"><path d="M264.657,553.382h-.008l4.122,2.375-4.114-2.375Z" fill="#2a2427"/><path d="M67.4434,551.87l-7.2988-3.621-3.3018-1.849l7.2987,3.615l3.3019,1.855Z" fill="#2e272a"/><path d="M114,525.5l-15.5,4-5.5-3" fill="none" stroke="#000"/><path d="M74.0556,555.56l-7.2985-3.616-3.302-1.849l7.291,3.625l3.3095,1.84Z" fill="#2e272a"/><path d="M60.1791,556.737l6.5772-4.793l7.2986,3.616-7.1206,9.796-2.2161,5.717-6.06-5.165l1.5209-9.171Z" fill="#241e21"/><path d="M90.5714,564.742l-7.2908-3.607-3.3021-1.855l7.291,3.622l3.3019,1.84Z" fill="#2e272a"/><path d="M97.1751,568.447l-7.2912-3.625-3.3019-1.846l7.2911,3.616l3.302,1.855Z" fill="#2e272a"/><path d="M49.9522,518.602l-15.7565,3.842-10.4563,16.001L8.00195,626.839c0,0,4.31985,20.799,4.36455,24.167.0448,3.376,96.1115,54.724,96.1115,54.724l-9.4995-95.192l93.9025-99.915-46.679,28.908-36.211,2.63-60.0388-23.559Z" fill="#241e21"/><path d="M113.344,546.086l34.179-2.483l2.824-1.751l17.766-10.999l12.442,6.955l28.914-17.907l4.145,2.327-15.128,9.364-.008.006-13.778,8.531l14.847,8.316l28.921-17.907l4.145,2.311-15.128,9.364-.008.006-13.785,8.54l14.862,8.307l28.913-17.908l4.137,2.321-15.12,9.361-.008.009-13.785,8.537l14.862,8.316l28.913-17.917l4.145,2.321-15.128,9.355-.008.009-13.793,8.546l12.443,6.965-14.942,9.248-.688.049-31.108,2.257-2.446.173-10.268-4.022h-.008l-8.956-3.524-.283-.112-16.55-6.504-3.546-1.382-5.115-2.857-11.284-6.314h-.008-.008l-6.58-3.687h.008l-12.411-6.95-.016.01-6.588-3.696h.008l-9.992-5.584Z" fill="#2a2427"/><path d="M113.343,546.086l30.299,16.935l4.138,2.324l49.253-52.402-15.135,9.363v.007l-31.552,19.538-2.816,1.757-34.187,2.478Z" fill="#241e21"/><path d="M23.7384,538.445l10.4563-16.001l15.7565-3.843.0236.009l19.2791,7.567l94.2941,52.748-19.287-7.57v.009l-15.764,3.843-10.449,15.991-15.745,88.397l4.373,24.174-94.3105-52.763-4.36452-24.168L23.7384,538.445Z" fill="#2e272a"/><path d="M23.7374,538.445l94.3096,52.753-15.745,88.397L8,626.839l15.7374-88.394Z" fill="#3b3236"/><path d="M128.497,575.206l-10.449,15.992-94.3097-52.753l10.4563-16.001l94.3024,52.762Z" fill="#4c4045"/><path d="M34.1953,522.443l94.3027,52.763l15.764-3.842-94.3101-52.763-15.7566,3.842Z" fill="#3b3236"/><path d="M144.263,571.364l-15.765,3.842-10.448,15.992-15.745,88.397l4.372,24.179c.045,3.361,24.049,11.611,37.921,4.202c13.886-7.405,48.683-44.675,48.683-44.675l93.911-99.925-46.679,28.918-36.211,2.62-60.039-23.55Z" fill="#241e21"/><path d="M131.113,701.004c3.613-.048,6.655-.675,8.799-1.82c9.032-4.819,33.056-28.744,46.074-42.681l50.704-53.945-33.929,2.459-59.198-23.226-8.865,2.157-7.19,10.999-15.068,84.636l3.369,18.669c3.16,1.231,9.134,2.834,15.304,2.752Z" fill="#1d191b"/><path d="M127.458,697.786c3.613-.048,6.655-.675,8.79-1.821c9.041-4.819,33.064-28.743,46.082-42.68l47.187-50.201l7.174-.526-50.704,53.945c-13.018,13.938-37.042,37.862-46.074,42.681-2.144,1.145-5.186,1.772-8.799,1.82-6.17.082-12.144-1.521-15.304-2.752l-.381-2.135c3.258.918,7.579,1.728,12.029,1.669Z" fill="#2a2427"/><path d="M58.4225,536.202l1.9712-28.276-5.4607-3.054-1.9711,28.276l5.4606,3.054Z" fill="#2e272a"/><path d="M60.3916,507.926l16.0693-3.871L71.0076,501l-16.0769,3.872l5.4609,3.054Z" fill="#2e272a"/><path d="M69.2637,526.178l94.2943,52.747l40.744,15.99l36.211-2.621l46.679-28.909-4.145-2.315-28.921,17.911-86.012-48.128l28.921-17.91-4.153-2.327-46.679,28.915-36.211,2.621-40.7283-15.974Z" fill="#3b3236"/><path d="M60.3922,507.926l16.0691-3.871l14.8455,5.906-5.6127,26.761-11.2042-4.401-16.069,3.88l1.9713-28.275Z" fill="#241e21"/><path d="M113.344,546.086l16.587,9.27l17.849,9.989l1.143.648h.007l11.285,6.314l4.153,2.314.961.543l3.53,1.382l16.567,6.504.283.112l8.963,3.524l10.269,4.022l2.446-.173l31.108-2.257.688-.049l14.941-9.248-86.012-48.128-17.766,10.999-2.823,1.751-34.179,2.483Z" fill="#2a2427"/><path d="M129.916,555.356l19.007,10.636h.008l11.284,6.314l4.145,2.324.008-.01l9.826-10.457l39.412-41.935-15.12,9.364-.008.006-31.551,19.539-2.824,1.75-34.171,2.469h-.016Z" fill="#241e21"/><path d="M148.931,565.993l11.285,6.313l4.145,2.324.008-.01.961.543l3.53,1.382l16.567,6.504l7.782-8.27l39.397-41.93-15.121,9.364-.007.006-31.552,19.539-2.824,1.75-8.907.656-25.264,1.829Z" fill="#241e21"/><path d="M168.859,576.546l16.566,6.504.283.112l8.964,3.524l10.268,4.022l2.446-.173l44.217-47.065-15.12,9.37-.007.009-31.552,19.539-2.816,1.748-8.9.643-24.349,1.767Z" fill="#241e21"/><path d="M194.673,586.686l10.269,4.022l33.554-2.43l32.116-34.172-15.129,9.355-.007.009-31.551,19.545-2.817,1.741-26.435,1.93Z" fill="#241e21"/></g></g><g><path d="M152.028,220.293l29.899-22.666l44.994-17.07v48.574l-38.698,10.882-39.34-3.918l3.145-15.802Z" fill="#cb4b1f"/><path d="M181.927,197.626l-7.039-4.058l44.994-17.07l7.039,4.058-44.994,17.07Z" fill="#fabd22"/><path d="M152.029,220.293l-7.039-4.064l29.9-22.66l7.039,4.058-29.9,22.666Z" fill="#fccb27"/><path d="M152.028,220.293l-7.039-4.064-3.151,15.803l7.046,4.063l3.144-15.802Z" fill="#f6891e"/><path d="M232.649,152.124l-25.753-14.408-15.052-.252-42.294,59.937L70.8037,534.723l25.7604,14.409L232.649,152.124Z" fill="#f6891e"/><path d="M150.066,218.639c0,0,2.323-6.519,4.536-6.558c2.22-.036,8.349,2.023,8.396,5.596.047,3.562-45.097,203.534-45.097,203.534l-6.002,2.721L88.6259,526.223l-3.9843-1.406L105.689,424.015c0,0,.055-6.459.651-10.522.595-4.066,43.726-194.854,43.726-194.854Z" fill="#cb4b1f"/><path d="M236.707,214.959l-4.078-62.705-15.06-.255-42.279,59.937L96.5449,549.261l15.6621,2.003l124.5-336.305Z" fill="#e55d1b"/><path d="M181.754,255.9l11.544,11.181l10.321,7.338l10.334,1.932l22.774-61.522-.844-12.886-26.935,11.395-20.477,18.296-6.717,24.266Z" fill="#bc3821"/><path d="M103.006,412.175l-.705-.092c-1.802-.21-3.1159.354-3.3985,1.453L72.0427,530.806c-.4366,1.881.8627,3.717,2.7744,3.958c2.1857.261,4.2237-1.174,4.7193-3.315L106.248,414.813c.333-1.433-1.338-2.412-3.242-2.638Z" fill="#727a7e"/><path d="M96.0504,411.963c-1.1021-1.119-1.5868-2.276-1.5068-3.318.0907-1.421,43.5294-194.366,43.5294-194.366l15.911,4.314c0,0-43.251,192.301-43.354,193.356-.123,1.394-1.28,2.567-3.33,3.094-3.609.94-8.6491-.44-11.2496-3.08Z" fill="#e55d1b"/><path d="M139.476,218.193c-2.6-2.64-1.786-5.537,1.823-6.473c3.617-.933,8.649.438,11.257,3.084c2.601,2.64,1.779,5.543-1.838,6.473-3.601.94-8.641-.438-11.242-3.084Z" fill="#f6891e"/><path d="M191.843,137.464l25.745,14.406-42.279,59.936-25.76-14.405l42.294-59.937Z" fill="#fccb27"/><path d="M139.944,398.999l11.558-10.141l1.706-7.042-11.559,10.144-1.705,7.039Z" fill="#ee2c2f"/><path d="M136.252,414.173l11.567-10.143l1.705-7.034-11.558,10.145-1.714,7.032Z" fill="#ee2c2f"/><path d="M147.005,369.937l11.559-10.15l21.819-89.83-11.559,10.15-21.819,89.83Z" fill="#959da7"/><path d="M165.45,294.012l11.559-10.15l1.713-7.043-11.558,10.15-1.714,7.043Z" fill="#ee2c2f"/><path d="M161.764,309.193l11.559-10.151l1.713-7.033-11.559,10.145-1.713,7.039Z" fill="#ee2c2f"/><path d="M158.071,324.369l11.559-10.144l1.721-7.033-11.559,10.144-1.721,7.033Z" fill="#ee2c2f"/><path d="M154.384,339.559l11.559-10.153l1.714-7.04-11.56,10.142-1.713,7.051Z" fill="#ee2c2f"/><path d="M150.7,354.732l11.559-10.141l1.713-7.043-11.567,10.151-1.705,7.033Z" fill="#ee2c2f"/><path d="M147.012,369.913l11.559-10.141l1.714-7.043-11.567,10.144-1.706,7.04Z" fill="#ee2c2f"/><path d="M223.344,163.511c.014,1.063.345,1.855.891,2.319.736.637,8.707,5.395,8.707,5.395l5.548-9.814-8.122-4.988c-.736-.61-1.862-.611-3.112.133-2.188,1.305-3.946,4.415-3.912,6.955Z" fill="#270b12"/><path d="M231.711,168.653c.034,2.549,1.831,3.533,4.027,2.23c2.196-1.302,3.938-4.407,3.904-6.947-.033-2.54-1.83-3.532-4.026-2.221-2.196,1.303-3.938,4.407-3.905,6.938Z" fill="#533841"/><path d="M206.896,137.716l25.753,14.409-15.06-.255-25.745-14.406l15.052.252Z" fill="#fabd22"/><path d="M148.207,217.686c.267-.489,26.505-49.089,34.235-59.579c2.404-3.269,11.162-14.039,22.76-15.405c5.949-.765,11.819,1.282,17.325,5.929l3.219-3.81c-6.613-5.57-13.754-7.906-21.126-7.075-13.597,1.612-23.487,13.725-26.191,17.403-7.937,10.768-33.526,58.163-34.61,60.171l4.388,2.366Z" fill="#270b12"/><path d="M125.188,459.743l11.559-10.141l21.827-89.83-11.559,10.141-21.827,89.83Z" fill="#959da7"/><path d="M143.631,383.817l11.559-10.141l1.706-7.042-11.559,10.141-1.706,7.042Z" fill="#ee2c2f"/><path d="M132.566,429.364l11.559-10.144l1.713-7.048-11.566,10.15-1.706,7.042Z" fill="#ee2c2f"/><path d="M128.88,444.547l11.559-10.151l1.705-7.036-11.558,10.144-1.706,7.043Z" fill="#ee2c2f"/><path d="M125.194,459.721l11.559-10.144l1.705-7.042-11.558,10.15-1.706,7.036Z" fill="#ee2c2f"/></g><g id="eFAvZrD9wPs276_tr" transform="translate(110.349445,540.240509) rotate(-0.31304)"><g transform="translate(-110.349445,-540.240509)"><path d="M98.6035,529.305l16.0775-3.871-5.461-3.054-16.0696,3.871l5.4531,3.054Z" fill="#2e272a"/><path d="M129.527,531.718l-14.846-5.907-5.461-3.054l14.846,5.916l5.461,3.045Z" fill="#2e272a"/><path d="M96.6403,557.581l1.9633-28.275-5.4528-3.055-1.9789,28.276l5.4684,3.054Z" fill="#2e272a"/><path d="M98.604,529.305l16.077-3.871l14.846,5.906-5.613,26.761L112.71,553.7l-16.0694,3.88l1.9634-28.275Z" fill="#241e21"/><path d="M102.966,542.083c.02,1.515.489,2.635,1.256,3.297c1.052.902,4.488,2.792,4.488,2.792l7.856-13.891c0,0-2.86-1.58-3.651-2.226-1.052-.871-2.64-.872-4.409.184-3.104,1.846-5.588,6.248-5.54,9.844Z" fill="#727a7e"/><path d="M106.957,544.546c.048,3.587,2.608,4.992,5.713,3.152c3.104-1.855,5.588-6.257,5.54-9.844-.048-3.594-2.609-5.006-5.713-3.152-3.104,1.84-5.588,6.249-5.54,9.844Z" fill="#5d6062"/></g></g><g transform="matrix(.999218 0.039535-.039535 0.999218 19.763565-4.664202)"><path d="M34.212,529.6l70.987-66.175-2.843,16.157-57.333,53.664-.6288,11.552l16.0396,23.964-2.6512,13.59-24.8041-37.838L34.212,529.6Z" fill="#cb4b1f"/><path d="M32.9795,544.513l1.2336-14.914-5.4532-3.054-1.2413,14.924l5.4609,3.044Z" fill="#f6891e"/><path d="M32.9803,544.514l24.8042,37.838-5.453-3.045-24.812-37.838l5.4608,3.045Z" fill="#e55d1b"/><path d="M34.2119,529.6l70.9871-66.175-5.4532-3.06-70.987,66.18l5.4531,3.055Z" fill="#f6891e"/><path d="M35.1362,539.639c.0142,1.069.3456,1.87.8836,2.334.7437.637,3.1704,1.973,3.1704,1.973l5.5483-9.814-2.5783-1.566c-.7433-.61-1.862-.611-3.1115.133-2.1884,1.305-3.9461,4.406-3.9125,6.94Z" fill="#270b12"/><path d="M37.9507,541.381c.0336,2.534,1.8458,3.533,4.0341,2.222c2.1962-1.303,3.9462-4.413,3.9126-6.947-.0337-2.54-1.8381-3.529-4.0344-2.227-2.1884,1.302-3.9459,4.422-3.9123,6.952Z" fill="#533841"/><path d="M94.5932,478.091c.0142,1.071.3452,1.855.8833,2.324.7437.64,3.1705,1.976,3.1705,1.976l5.548-9.813-2.578-1.575c-.743-.61-1.8623-.611-3.1116.132-2.1883,1.306-3.9458,4.422-3.9122,6.956Z" fill="#270b12"/><path d="M97.4077,479.818c.0337,2.54,1.8465,3.542,4.0343,2.231c2.196-1.303,3.946-4.416,3.912-6.946-.033-2.54-1.838-3.533-4.034-2.228-2.1878,1.302-3.9458,4.413-3.9123,6.943Z" fill="#533841"/><path d="M61.5087,544.87l70.9873-66.174-2.844,16.157-57.3322,53.664-.6289,11.552l16.0319,23.964-2.6434,13.59-24.804-37.838l1.2333-14.915Z" fill="#cb4b1f"/><path d="M61.5087,544.87l70.9873-66.174-5.461-3.06-70.9793,66.18l5.453,3.054Z" fill="#f6891e"/><path d="M121.89,493.362c.015,1.071.346,1.855.884,2.323.744.641,3.178,1.976,3.178,1.976l5.541-9.812-2.579-1.576c-.743-.61-1.862-.61-3.111.133-2.196,1.306-3.946,4.422-3.913,6.956Z" fill="#270b12"/><path d="M124.704,495.089c.034,2.541,1.846,3.542,4.034,2.231c2.197-1.302,3.947-4.416,3.913-6.946-.034-2.54-1.838-3.533-4.034-2.228-2.189,1.302-3.946,4.413-3.913,6.943Z" fill="#533841"/><path d="M49.8458,579.455l1.5054-9.164-3.2941-1.856-1.5132,9.165l3.3019,1.855Z" fill="#3b3236"/><path d="M51.3498,570.291l6.5769-4.799-3.3018-1.849-6.5692,4.792l3.2941,1.856Z" fill="#2e272a"/><path d="M51.349,570.29l6.5769-4.798l7.2988,3.621-7.1208,9.787-2.208,5.714-6.0521-5.159l1.5052-9.165Z" fill="#241e21"/><path d="M56.4412,583.151l1.5209-9.171-3.3018-1.849-1.5207,9.174l3.3016,1.846Z" fill="#3b3236"/><path d="M57.963,573.98l6.5768-4.793-3.3019-1.849-6.5768,4.792l3.3019,1.85Z" fill="#4c4045"/><path d="M58.0628,578.659c.0102.767.2525,1.34.6401,1.674l2.2873,1.423l4.0124-7.073-1.8768-1.148c-.5298-.432-1.3354-.437-2.2434.1-1.5831.944-2.844,3.19-2.8196,5.024Z" fill="#727a7e"/><path d="M60.097,579.905c.0243,1.829,1.3242,2.547,2.9073,1.614c1.5829-.952,2.8513-3.199,2.827-5.027-.0241-1.82-1.332-2.544-2.9149-1.601-1.5831.934-2.8437,3.179-2.8194,5.014Z" fill="#5d6062"/><path d="M60.2755,559.785l24.8039,37.838-5.4529-3.045-24.812-37.838l5.461,3.045Z" fill="#e55d1b"/><path d="M72.9659,592.336l1.5208-9.174-3.3019-1.847-1.5207,9.175l3.3018,1.846Z" fill="#3b3236"/><path d="M74.4855,583.161l6.5771-4.783-3.302-1.855-6.577,4.792l3.3019,1.846Z" fill="#2e272a"/><path d="M74.4857,583.162l6.5771-4.784l7.2908,3.608-7.1129,9.794-2.216,5.721-6.0599-5.165l1.5209-9.174Z" fill="#241e21"/><path d="M60.2756,559.784L61.509,544.87l-5.4532-3.054-1.2413,14.924l5.4611,3.044Z" fill="#f6891e"/><path d="M62.4341,554.91c.0142,1.069.3455,1.87.8836,2.334.7437.637,3.1704,1.973,3.1704,1.973l5.5483-9.814-2.5785-1.566c-.7433-.61-1.8619-.617-3.1113.126-2.1961,1.312-3.9462,4.413-3.9125,6.947Z" fill="#270b12"/><path d="M65.2485,556.653c.0337,2.534,1.846,3.527,4.0344,2.221c2.1963-1.302,3.9462-4.412,3.9125-6.952-.0337-2.534-1.8379-3.524-4.0342-2.221-2.1885,1.302-3.9463,4.421-3.9127,6.952Z" fill="#533841"/><path d="M79.578,596.025l1.5132-9.158-3.3017-1.856-1.5209,9.165l3.3094,1.849Z" fill="#3b3236"/><path d="M81.0909,586.866l6.5768-4.801-3.3017-1.846-6.5769,4.792l3.3018,1.855Z" fill="#4c4045"/><path d="M81.0884,586.866l6.5769-4.801l7.2909,3.625-7.113,9.786-2.2079,5.72-6.0601-5.171l1.5132-9.159Z" fill="#241e21"/><path d="M81.7142,591.532c.0103.782.2448,1.356.6404,1.696l2.2948,1.423l4.0275-7.113-1.8765-1.138c-.5298-.439-1.3434-.444-2.2514.091-1.5908.952-2.8591,3.213-2.8348,5.041Z" fill="#727a7e"/><path d="M83.7562,592.795c.0245,1.843,1.3324,2.562,2.9233,1.619c1.5908-.953,2.8592-3.205,2.8348-5.048-.0244-1.839-1.3324-2.563-2.9232-1.611-1.5908.95-2.8593,3.205-2.8349,5.04Z" fill="#5d6062"/></g></g></g><path d="M191.78,244.027l29.604-23.068L266.147,203.3l.645,48.565-38.558,11.394-39.388-3.395l2.934-15.837Z" fill="#cb4b1f"/><path d="M191.78,244.027l-7.093-3.979l29.597-23.052l7.1,3.964-29.604,23.067Z" fill="#fccb27"/><path d="M191.78,244.027l-7.092-3.98-2.934,15.853l7.092,3.964l2.934-15.837Z" fill="#f6891e"/><path d="M211.483,246.455c.027,2.024.649,3.534,1.678,4.418c1.408,1.208,6.009,3.734,6.009,3.734l10.516-18.586c0,0-3.829-2.123-4.889-2.991-1.407-1.148-3.543-1.15-5.902.25-4.151,2.479-7.476,8.377-7.412,13.175Z" fill="#270b12"/><path d="M216.831,249.746c.063,4.805,3.475,6.689,7.643,4.228c4.151-2.479,7.468-8.377,7.404-13.185-.064-4.796-3.483-6.689-7.635-4.219-4.168,2.477-7.476,8.377-7.412,13.176Z" fill="#533841"/></g></g><clipPath id="eFAvZrD9wPs320"><rect width="875" height="729" rx="0" ry="0" fill="#fff"/></clipPath></g></svg>