<svg width="875" height="729" viewBox="0 0 875 729" fill="none" xmlns="http://www.w3.org/2000/svg">
<path d="M468.795 322.565L850.544 102.303C866.468 93.1127 880.843 91.5252 891.088 96.3641L891.096 96.3492L891.307 96.4806C892.41 97.005 893.45 97.5975 894.443 98.2782L962.877 137.7L955.556 144.588L930.764 172.545C929.411 203.623 889.454 203.94 859.202 221.404L513.312 420.958L496.301 481.956L427.32 442.155L425.6 441.154L425.381 441.038L434.038 446.023C425.967 440.812 412.445 425.953 412.445 412.128C412.445 380.62 437.675 340.518 468.795 322.565Z" fill="#421721"/>
<path d="M899.12 112.087L848.776 102.262C848.776 102.262 853.375 97.1914 855.025 95.9885L903.03 105.694L927.119 138.826L923.623 145.455L899.12 112.087Z" fill="#4E242F"/>
<path d="M867.734 129.933L817.39 120.108C817.39 120.108 821.989 115.052 823.639 113.831L871.644 123.546L895.733 156.672L892.237 163.3L867.734 129.933Z" fill="#4E242F"/>
<path d="M836.348 147.784L786.004 137.95C786.004 137.95 790.603 132.894 792.253 131.683L840.259 141.391L864.347 174.523L860.851 181.152L836.348 147.784Z" fill="#4E242F"/>
<path d="M804.963 165.627L754.619 155.802C754.619 155.802 759.218 150.74 760.868 149.534L808.873 159.243L832.97 192.366L829.466 198.994L804.963 165.627Z" fill="#4E242F"/>
<path d="M773.576 183.478L723.232 173.654C723.232 173.654 727.831 168.583 729.481 167.379L777.486 177.085L801.575 210.211L798.087 216.846L773.576 183.478Z" fill="#4E242F"/>
<path d="M742.199 201.33L691.856 191.499C691.856 191.499 696.446 186.433 698.097 185.222L746.102 194.93L770.198 228.069L766.694 234.691L742.199 201.33Z" fill="#4E242F"/>
<path d="M710.814 219.175L660.47 209.35C660.47 209.35 665.061 204.285 666.712 203.072L714.717 212.781L738.805 245.914L735.317 252.533L710.814 219.175Z" fill="#4E242F"/>
<path d="M679.427 237.017L629.076 227.196C629.076 227.196 633.674 222.13 635.325 220.924L683.338 230.633L707.426 263.756L703.922 270.393L679.427 237.017Z" fill="#4E242F"/>
<path d="M648.043 254.862L597.691 245.038C597.691 245.038 602.29 239.982 603.94 238.769L651.945 248.475L676.042 281.602L672.546 288.236L648.043 254.862Z" fill="#4E242F"/>
<path d="M616.657 272.714L566.313 262.89C566.313 262.89 570.912 257.824 572.562 256.621L620.559 266.321L644.648 299.453L641.16 306.081L616.657 272.714Z" fill="#4E242F"/>
<path d="M585.272 290.566L534.929 280.742C534.929 280.742 539.528 275.67 541.178 274.464L589.183 284.173L613.271 317.305L609.776 323.933L585.272 290.566Z" fill="#4E242F"/>
<path d="M553.886 308.408L503.542 298.586C503.542 298.586 508.133 293.527 509.783 292.309L557.796 302.024L581.885 335.147L578.389 341.775L553.886 308.408Z" fill="#4E242F"/>
<path d="M522.499 326.26L472.156 316.429C472.156 316.429 476.755 311.372 478.405 310.16L526.41 319.866L550.499 352.999L547.003 359.626L522.499 326.26Z" fill="#4E242F"/>
<path d="M491.546 344.597L441.203 334.766C441.203 334.766 445.801 329.707 447.451 328.498L495.449 338.197L519.545 371.336L516.049 377.954L491.546 344.597Z" fill="#4E242F"/>
<path d="M469.795 373.399L419.444 363.575C419.444 363.575 424.043 358.51 425.693 357.306L473.706 367.007L497.794 400.139L494.298 406.764L469.795 373.399Z" fill="#4E242F"/>
<path d="M459.66 406.178L409.316 396.347C409.316 396.347 413.907 391.281 415.557 390.078L463.562 399.778L487.651 432.917L484.163 439.539L459.66 406.178Z" fill="#4E242F"/>
<path d="M459.205 442.256L408.862 432.434C408.862 432.434 413.461 427.375 415.111 426.157L463.116 435.872L487.212 468.995L483.709 475.623L459.205 442.256Z" fill="#4E242F"/>
<path d="M919.438 142.054L537.689 362.317C506.569 380.269 481.339 420.365 481.339 451.87C481.339 483.384 506.569 494.373 537.689 476.414L919.438 256.151C950.558 238.208 975.781 198.102 975.781 166.589C975.781 135.083 950.558 124.101 919.438 142.054Z" fill="#724F5B"/>
<path d="M492.85 445.227C492.85 448.033 493.124 450.628 493.64 452.987C497.582 470.98 515.836 475.818 537.688 463.212L919.437 242.943C944.151 228.685 964.267 197.415 964.267 173.232C964.267 152.318 949.204 143.461 929.128 150.706C926.015 151.833 922.761 153.341 919.437 155.264L537.688 375.518C512.958 389.788 492.85 421.062 492.85 445.227Z" fill="#421721"/>
<path d="M492.851 445.227C492.851 448.033 493.124 450.627 493.641 452.987C496.753 451.864 500.007 450.347 503.331 448.423L885.08 228.163C909.802 213.905 929.918 182.626 929.918 158.46C929.918 155.661 929.644 153.066 929.128 150.705C926.015 151.833 922.762 153.341 919.438 155.264L899.752 166.622L890.633 171.879L851.372 194.524L792.965 228.233L792.722 228.383L779.974 235.729L770.839 241.005L745.249 255.76L704.525 279.263L653.235 308.847L647.284 312.285L646.009 313.021L625.541 324.821L616.782 329.886L595.517 342.151L549.631 368.624L537.688 375.518C536.562 376.165 535.459 376.852 534.349 377.573C530.947 379.777 527.646 382.293 524.494 385.068C506.185 401.145 492.851 425.54 492.851 445.227Z" fill="#270B12"/>
<path d="M705.73 328.403C705.73 338.643 712.972 342.768 721.903 337.617C730.835 332.46 738.077 319.976 738.077 309.739C738.077 299.493 730.835 295.371 721.903 300.522C712.972 305.676 705.73 318.157 705.73 328.403Z" fill="#704E59"/>
<path d="M707.607 325.136C707.607 333.88 713.786 337.401 721.411 332.998C729.037 328.608 735.215 317.952 735.215 309.199C735.215 300.461 729.037 296.934 721.411 301.337C713.786 305.737 707.607 316.389 707.607 325.136Z" fill="#82646F"/>
<path d="M629.429 351.952C629.429 365.254 638.83 370.618 650.436 363.919C662.035 357.227 671.436 341.024 671.436 327.722C671.436 314.414 662.035 309.059 650.436 315.748C638.83 322.446 629.429 338.649 629.429 351.952Z" fill="#421721"/>
<path d="M632.378 338.172L642.866 342.737C642.866 342.737 638.134 350.537 638.423 361.19C638.721 371.842 640.559 371.054 640.559 371.054L651.43 374.797L678.537 322.476L664.1 313.668L647.41 322.565L632.378 338.172Z" fill="#421721"/>
<path d="M643.092 360.408C643.092 373.704 652.492 379.065 664.099 372.367C675.697 365.677 685.098 349.475 685.098 336.172C685.098 322.867 675.697 317.506 664.099 324.198C652.492 330.896 643.092 347.106 643.092 360.408Z" fill="#704E59"/>
<path d="M648.786 357.117C648.786 366.826 655.645 370.734 664.1 365.849C672.554 360.97 679.413 349.155 679.413 339.455C679.413 329.755 672.554 325.847 664.1 330.723C655.645 335.608 648.786 347.427 648.786 357.117Z" fill="#82646F"/>
<path d="M743.717 286.829C743.717 300.13 753.125 305.494 764.716 298.796C776.322 292.104 785.723 275.901 785.723 262.599C785.723 249.29 776.322 243.936 764.716 250.624C753.125 257.323 743.717 273.526 743.717 286.829Z" fill="#421721"/>
<path d="M746.666 273.05L757.146 277.608C757.146 277.608 752.422 285.415 752.712 296.067C753.009 306.719 754.839 305.932 754.839 305.932L765.718 309.675L792.825 257.357L778.388 248.545L761.698 257.442L746.666 273.05Z" fill="#421721"/>
<path d="M757.38 295.286C757.38 308.582 766.781 313.943 778.387 307.245C789.978 300.561 799.386 284.353 799.386 271.05C799.386 257.739 789.978 252.383 778.387 259.076C766.781 265.774 757.38 281.983 757.38 295.286Z" fill="#704E59"/>
<path d="M763.066 291.998C763.066 301.704 769.925 305.612 778.387 300.727C786.842 295.842 793.693 284.032 793.693 274.332C793.693 264.633 786.842 260.725 778.387 265.6C769.925 270.485 763.066 282.305 763.066 291.998Z" fill="#82646F"/>
<path d="M616.783 329.886L625.174 337.617L644.649 347.872L644.664 347.848L644.672 347.842L701.929 282.228L704.526 279.263L647.284 312.286L625.542 324.822L616.783 329.886Z" fill="#B7511E"/>
<path d="M625.542 324.822L644.664 347.848L644.672 347.842L785.567 266.532L792.723 228.383L745.249 255.769L704.526 279.263L647.284 312.286L625.542 324.822Z" fill="#E08217"/>
<path d="M647.284 312.285L649.129 314.489L701.929 282.227L745.249 255.769L704.525 279.263L647.284 312.285Z" fill="#B74C1E"/>
<path d="M848.228 245.975C848.228 256.215 855.463 260.333 864.394 255.182C873.334 250.032 880.568 237.542 880.568 227.311C880.568 217.065 873.334 212.937 864.394 218.087C855.463 223.238 848.228 235.729 848.228 245.975Z" fill="#704E59"/>
<path d="M850.097 242.708C850.097 251.446 856.284 254.973 863.909 250.57C871.535 246.171 877.713 235.518 877.713 226.771C877.713 218.027 871.535 214.501 863.909 218.909C856.284 223.303 850.097 233.955 850.097 242.708Z" fill="#82646F"/>
<path d="M806.707 271.416C806.707 281.662 813.942 285.79 822.873 280.64C831.813 275.489 839.047 262.999 839.047 252.759C839.047 242.512 831.813 238.394 822.873 243.545C813.942 248.695 806.707 261.176 806.707 271.416Z" fill="#704E59"/>
<path d="M808.577 268.156C808.577 276.903 814.764 280.429 822.381 276.02C830.014 271.627 836.193 260.975 836.193 252.222C836.193 243.484 830.014 239.958 822.381 244.366C814.764 248.76 808.577 259.412 808.577 268.156Z" fill="#82646F"/>
<path d="M601.845 384.592C601.845 394.829 609.088 398.957 618.019 393.807C626.951 388.647 634.193 376.165 634.193 365.929C634.193 355.688 626.951 351.554 618.019 356.711C609.088 361.862 601.845 374.346 601.845 384.592Z" fill="#704E59"/>
<path d="M603.721 381.325C603.721 390.064 609.9 393.586 617.533 389.188C625.151 384.788 631.33 374.132 631.33 365.388C631.33 356.65 625.151 353.124 617.533 357.523C609.9 361.926 603.721 372.579 603.721 381.325Z" fill="#82646F"/>
<path d="M560.322 410.039C560.322 420.28 567.564 424.414 576.496 419.254C585.427 414.103 592.669 401.622 592.669 391.376C592.669 381.136 585.427 377.011 576.496 382.161C567.564 387.318 560.322 399.793 560.322 410.039Z" fill="#704E59"/>
<path d="M562.191 406.782C562.191 415.52 568.378 419.044 576.004 414.644C583.629 410.244 589.815 399.589 589.815 390.845C589.815 382.107 583.629 378.574 576.004 382.98C568.378 387.373 562.191 398.035 562.191 406.782Z" fill="#82646F"/>
<path d="M773.835 248.501L775.423 249.963L776.408 250.87L776.792 251.221L792.856 266.025L803.32 271.533L803.336 271.518L803.344 271.502L834.112 236.236L834.119 236.23L844.529 224.326L854.321 213.108L868.133 197.266L868.141 197.26L874.757 189.679L873.686 184.721L851.372 194.524L792.965 228.234L776.94 245.209L773.835 248.501Z" fill="#B7511E"/>
<path d="M768.735 247.578L774.726 252.151L776.408 250.869L797.493 234.807L797.751 235.103L801.935 240.073L803.077 241.426L809.076 245.999L854.32 213.108L880.255 194.235L881.005 191.608L883.688 182.135L890.633 171.879L851.372 194.524L792.965 228.234L792.722 228.383L779.974 235.729L770.839 241.005L768.735 247.578Z" fill="#AAACAB"/>
<path d="M782.986 247.037L787.569 252.542L803.336 271.517L879.113 227.788L883.478 204.51L885.229 195.187L884.135 190.225L816.374 220.051L782.986 247.037Z" fill="#E08217"/>
<path d="M782.986 247.037L787.569 252.542L800.169 246.992L800.935 247.858L805.737 253.581L882.938 206.419L883.478 204.51L885.229 195.187L884.135 190.225L816.374 220.051L782.986 247.037Z" fill="#B74C1E"/>
<path d="M774.725 252.151L776.79 251.22L783.86 248.094L801.934 240.073L803.499 239.381L804.226 240.248L809.075 245.999L844.528 224.326L884.329 199.986L886.26 198.808L889.678 186.699L903.373 176.444L899.752 166.622L890.632 171.879L851.371 194.525L792.964 228.234L792.721 228.383L779.973 235.729L776.939 245.209L775.421 249.963L774.725 252.151Z" fill="#86898A"/>
<path d="M527.733 391.837L529.32 393.291L530.306 394.206L530.697 394.563L546.745 409.368L557.226 414.87L557.233 414.854L557.241 414.848L588.017 379.567L588.024 379.557L598.426 367.662L608.226 356.424L622.038 340.603L628.654 333.013L627.583 328.067L595.517 342.151L549.631 368.624L530.845 388.539L527.733 391.837Z" fill="#B43D20"/>
<path d="M522.632 390.921L528.615 395.486L530.304 394.206L551.405 378.144L551.648 378.434L555.832 383.411L556.966 384.763L562.973 389.327L608.225 356.425L634.159 337.571L634.902 334.936L637.585 325.463L646.008 313.021L625.54 324.822L616.781 329.886L595.516 342.151L549.63 368.625L537.687 375.518C536.561 376.165 535.451 376.852 534.348 377.573C530.946 379.777 527.645 382.293 524.493 385.069L522.632 390.921Z" fill="#AAACAB"/>
<path d="M536.884 390.374L541.467 395.876L557.234 414.854L633.012 371.124L637.384 347.848L639.12 338.523L638.033 333.563L570.272 363.385L536.884 390.374Z" fill="#CE4121"/>
<path d="M536.884 390.374L541.467 395.876L554.067 390.32L554.833 391.196L559.628 396.917L636.829 349.756L637.384 347.848L639.12 338.523L638.033 333.563L570.272 363.385L536.884 390.374Z" fill="#9E2F1E"/>
<path d="M528.615 395.486L530.696 394.563L537.75 391.431L555.832 383.411L557.389 382.714L558.124 383.585L562.973 389.327L598.425 367.662L638.226 343.333L640.15 342.142L643.592 330.037L657.271 319.79L653.235 308.854L647.283 312.286L646.008 313.021L625.541 324.822L616.781 329.886L595.516 342.151L549.63 368.625L537.688 375.518C536.562 376.165 535.451 376.852 534.348 377.573L530.844 388.54L529.319 393.291L528.615 395.486Z" fill="#86898A"/>
<path d="M497.738 433.597C497.738 446.899 507.139 452.255 518.745 445.562C530.344 438.864 539.745 422.665 539.745 409.359C539.745 396.057 530.344 390.695 518.745 397.394C507.139 404.083 497.738 420.286 497.738 433.597Z" fill="#421721"/>
<path d="M500.687 419.818L511.167 424.373C511.167 424.373 506.443 432.175 506.741 442.826C507.03 453.482 508.868 452.691 508.868 452.691L519.739 456.434L546.854 404.116L532.409 395.308L515.719 404.208L500.687 419.818Z" fill="#421721"/>
<path d="M511.403 442.054C511.403 455.347 520.804 460.703 532.41 454.013C544 447.32 553.409 431.112 553.409 417.81C553.409 404.513 544 399.152 532.41 405.841C520.804 412.534 511.403 428.743 511.403 442.054Z" fill="#704E59"/>
<path d="M517.096 438.763C517.096 448.462 523.947 452.37 532.41 447.485C540.864 442.61 547.723 430.791 547.723 421.092C547.723 411.401 540.864 407.493 532.41 412.369C523.947 417.254 517.096 429.063 517.096 438.763Z" fill="#82646F"/>
<path d="M685.161 447.407L1066.91 227.141C1082.83 217.957 1097.21 216.369 1107.46 221.209L1107.47 221.19L1107.68 221.309C1108.78 221.847 1109.82 222.443 1110.82 223.123L1179.24 262.544L1171.93 269.423L1147.13 297.389C1145.79 328.458 1105.82 328.778 1075.57 346.239L729.686 545.802L712.668 606.8L643.687 567L641.966 565.998L641.747 565.873L650.413 570.868C642.326 565.657 628.811 550.797 628.811 536.964C628.811 505.458 654.042 465.362 685.161 447.407Z" fill="#421721"/>
<path d="M895.794 361.862L845.451 352.037C845.451 352.037 850.05 346.975 851.7 345.763L899.705 355.469L923.793 388.601L920.298 395.229L895.794 361.862Z" fill="#4E242F"/>
<path d="M864.411 379.707L814.067 369.882C814.067 369.882 818.658 364.826 820.309 363.605L868.314 373.32L892.41 406.443L888.914 413.071L864.411 379.707Z" fill="#4E242F"/>
<path d="M833.024 397.558L782.681 387.724C782.681 387.724 787.279 382.669 788.93 381.456L836.935 391.165L861.023 424.297L857.527 430.923L833.024 397.558Z" fill="#4E242F"/>
<path d="M801.639 415.401L751.296 405.585C751.296 405.585 755.894 400.511 757.545 399.308L805.55 409.017L829.638 442.14L826.142 448.768L801.639 415.401Z" fill="#4E242F"/>
<path d="M770.253 433.246L719.909 423.427C719.909 423.427 724.508 418.356 726.158 417.153L774.163 426.859L798.252 459.985L794.756 466.62L770.253 433.246Z" fill="#4E242F"/>
<path d="M738.868 451.104L688.532 441.273C688.532 441.273 693.123 436.217 694.773 434.996L742.778 444.705L766.867 477.843L763.371 484.463L738.868 451.104Z" fill="#4E242F"/>
<path d="M707.913 469.435L657.569 459.61C657.569 459.61 662.168 454.545 663.818 453.333L711.823 463.039L735.912 496.171L732.416 502.799L707.913 469.435Z" fill="#4E242F"/>
<path d="M686.162 498.244L635.819 488.41C635.819 488.41 640.41 483.354 642.06 482.142L690.073 491.851L714.162 524.98L710.666 531.608L686.162 498.244Z" fill="#4E242F"/>
<path d="M676.026 531.016L625.682 521.191C625.682 521.191 630.273 516.126 631.923 514.914L679.936 524.623L704.025 557.755L700.529 564.38L676.026 531.016Z" fill="#4E242F"/>
<path d="M675.574 567.1L625.238 557.275C625.238 557.275 629.829 552.204 631.479 551.001L679.484 560.707L703.581 593.833L700.085 600.468L675.574 567.1Z" fill="#4E242F"/>
<path d="M1135.8 266.892L754.055 487.152C722.936 505.114 697.705 545.21 697.705 576.715C697.705 608.22 722.936 619.217 754.055 601.259L1135.8 380.996C1166.92 363.035 1192.15 322.941 1192.15 291.433C1192.15 259.928 1166.92 248.946 1135.8 266.892Z" fill="#724F5B"/>
<path d="M709.218 570.064C709.218 572.877 709.492 575.463 710.008 577.832C713.95 595.809 732.196 600.663 754.056 588.047L1135.81 367.788C1160.52 353.524 1180.64 322.251 1180.64 298.076C1180.64 277.162 1165.57 268.305 1145.5 275.551C1142.38 276.668 1139.13 278.185 1135.81 280.099L754.056 500.353C729.334 514.633 709.218 545.905 709.218 570.064Z" fill="#421721"/>
<path d="M709.219 570.065C709.219 572.877 709.493 575.463 710.009 577.832C713.129 576.708 716.375 575.182 719.699 573.267L1101.45 353.007C1126.17 338.75 1146.29 307.471 1146.29 283.296C1146.29 280.506 1146.01 277.91 1145.5 275.551C1142.38 276.668 1139.13 278.185 1135.81 280.1L1116.12 291.463L1107 296.724L1067.74 319.368L1009.34 353.078L1009.09 353.218L996.342 360.573L987.208 365.849L961.617 380.605L920.894 404.107L869.604 433.692L863.652 437.13L862.385 437.856L841.917 449.665L833.15 454.731L811.885 466.995L765.999 493.468L754.056 500.353C752.938 501.01 751.827 501.681 750.717 502.408C747.315 504.606 744.014 507.138 740.87 509.904C722.561 525.99 709.219 550.382 709.219 570.065Z" fill="#270B12"/>
<path d="M845.805 476.795C845.805 490.098 855.206 495.459 866.804 488.761C878.403 482.071 887.812 465.853 887.812 452.56C887.812 439.254 878.403 433.902 866.804 440.592C855.206 447.284 845.805 463.493 845.805 476.795Z" fill="#421721"/>
<path d="M848.745 463.016L859.232 467.572C859.232 467.572 854.501 475.373 854.798 486.025C855.087 496.681 856.925 495.89 856.925 495.89L867.796 499.642L894.904 447.315L880.466 438.506L863.776 447.406L848.745 463.016Z" fill="#421721"/>
<path d="M859.46 485.244C859.46 498.549 868.868 503.911 880.467 497.212C892.065 490.52 901.466 474.311 901.466 461.008C901.466 447.706 892.065 442.351 880.467 449.044C868.868 455.739 859.46 471.951 859.46 485.244Z" fill="#704E59"/>
<path d="M865.154 481.962C865.154 491.661 872.013 495.563 880.468 490.685C888.922 485.809 895.781 473.99 895.781 464.29C895.781 454.6 888.922 450.692 880.468 455.567C872.013 460.446 865.154 472.271 865.154 481.962Z" fill="#82646F"/>
<path d="M833.15 454.731L841.55 462.462L861.016 472.707L861.04 472.686L861.047 472.677L918.297 407.068L920.894 404.107L863.652 437.129L841.917 449.665L833.15 454.731Z" fill="#B43D20"/>
<path d="M841.916 449.666L861.039 472.687L861.047 472.677L1001.94 391.376L1009.09 353.219L961.616 380.605L920.893 404.107L863.651 437.13L841.916 449.666Z" fill="#CE4121"/>
<path d="M863.651 437.129L865.497 439.334L918.296 407.068L961.616 380.604L920.893 404.107L863.651 437.129Z" fill="#9E2F1E"/>
<path d="M818.213 509.427C818.213 519.668 825.455 523.801 834.387 518.641C843.318 513.491 850.561 501.01 850.561 490.763C850.561 480.517 843.318 476.399 834.387 481.549C825.455 486.7 818.213 499.187 818.213 509.427Z" fill="#704E59"/>
<path d="M820.088 506.169C820.088 514.907 826.274 518.431 833.9 514.031C841.517 509.631 847.704 498.976 847.704 490.232C847.704 481.485 841.517 477.962 833.9 482.367C826.274 486.76 820.088 497.422 820.088 506.169Z" fill="#82646F"/>
<path d="M776.689 534.875C776.689 545.124 783.932 549.249 792.863 544.099C801.795 538.942 809.037 526.457 809.037 516.221C809.037 505.974 801.795 501.853 792.863 507.004C783.932 512.157 776.689 524.638 776.689 534.875Z" fill="#704E59"/>
<path d="M778.567 531.617C778.567 540.364 784.745 543.881 792.371 539.479C799.996 535.088 806.183 524.433 806.183 515.679C806.183 506.933 799.996 503.415 792.371 507.818C784.745 512.218 778.567 522.87 778.567 531.617Z" fill="#82646F"/>
<path d="M744.101 516.666L745.688 518.135L746.682 519.048L747.073 519.402L763.113 534.212L773.593 539.714L773.601 539.699L773.609 539.69L804.393 504.411L804.4 504.402L814.794 492.507L824.594 481.265L838.406 465.447L845.022 457.857L843.951 452.902L811.885 466.995L765.999 493.468L747.213 513.375L744.101 516.666Z" fill="#B43D20"/>
<path d="M739.001 515.759L744.991 520.324L746.681 519.048L767.774 502.979L768.017 503.275L772.201 508.249L773.335 509.598L779.341 514.172L824.593 481.265L850.528 462.416L851.271 459.781L853.953 450.301L862.384 437.857L841.917 449.666L833.149 454.731L811.884 466.995L765.999 493.468L754.056 500.353C752.938 501.01 751.827 501.681 750.716 502.408C747.314 504.606 744.014 507.138 740.87 509.904L739.001 515.759Z" fill="#AAACAB"/>
<path d="M753.251 515.219L757.834 520.721L773.601 539.699L849.386 495.969L853.75 472.686L855.494 463.359L854.399 458.397L786.638 488.229L753.251 515.219Z" fill="#E55D1B"/>
<path d="M753.251 515.219L757.834 520.721L770.433 515.164L771.2 516.031L776.002 521.762L853.203 474.6L853.75 472.686L855.494 463.359L854.399 458.397L786.638 488.229L753.251 515.219Z" fill="#9E2F1E"/>
<path d="M744.99 520.324L747.071 519.402L754.125 516.275L772.2 508.249L773.764 507.553L774.491 508.426L779.34 514.172L814.793 492.507L854.594 468.167L856.525 466.986L859.959 454.88L873.638 444.634L869.602 433.692L863.65 437.13L862.383 437.856L841.916 449.665L833.148 454.731L811.883 466.995L765.998 493.468L754.055 500.353C752.937 501.01 751.826 501.681 750.715 502.408L747.212 513.375L745.687 518.135L744.99 520.324Z" fill="#86898A"/>
<path d="M714.113 558.433C714.113 571.735 723.514 577.099 735.113 570.401C746.711 563.709 756.112 547.506 756.112 534.204C756.112 520.895 746.711 515.54 735.113 522.229C723.514 528.928 714.113 545.13 714.113 558.433Z" fill="#421721"/>
<path d="M717.054 544.654L727.542 549.212C727.542 549.212 722.811 557.019 723.108 567.671C723.397 578.324 725.235 577.536 725.235 577.536L736.106 581.279L763.214 528.961L748.776 520.15L732.086 529.047L717.054 544.654Z" fill="#421721"/>
<path d="M727.769 566.89C727.769 580.187 737.169 585.548 748.776 578.849C760.374 572.16 769.775 555.957 769.775 542.654C769.775 529.343 760.374 523.988 748.776 530.68C737.169 537.379 727.769 553.587 727.769 566.89Z" fill="#704E59"/>
<path d="M733.462 563.598C733.462 573.307 740.313 577.215 748.775 572.33C757.23 567.445 764.081 555.635 764.081 545.936C764.081 536.236 757.23 532.328 748.775 537.204C740.313 542.089 733.462 553.908 733.462 563.598Z" fill="#82646F"/>
<path d="M676.58 453.012L722.051 479.33L858.05 394.509C858.05 394.509 887.316 392.9 932.944 375.259C978.579 357.612 986.275 324.184 986.275 324.184L1136.2 237.747L1107.68 221.309L661.439 328.629L693.38 442.461L676.58 453.012Z" fill="#270B12"/>
<path d="M996.936 275.92H662.433V285.586H662.738C661.049 311.568 677.293 337.922 711.776 357.823C777.3 395.635 883.196 395.806 948.321 358.252C982.866 338.322 998.782 311.784 996.529 285.586H996.936V275.92Z" fill="#241E21"/>
<path d="M948.321 344.355C883.196 381.926 777.3 381.747 711.776 343.934C646.26 306.127 645.939 245.028 711.049 207.467C776.151 169.888 882.047 170.09 947.571 207.896C1013.09 245.685 1013.43 306.808 948.321 344.355Z" fill="#3B3236"/>
<path d="M152.028 220.293L181.927 197.627L226.921 180.557V229.131L188.223 240.013L148.883 236.095L152.028 220.293Z" fill="#CB4B1F"/>
<path d="M181.927 197.626L174.888 193.568L219.882 176.498L226.921 180.556L181.927 197.626Z" fill="#FABD22"/>
<path d="M226.922 180.556L219.883 176.498L253.85 176.484L239.608 182.089L226.922 180.556Z" fill="#FABD22"/>
<path d="M226.922 229.131V180.556L239.608 182.089V230.664L226.922 229.131Z" fill="#CB4720"/>
<path d="M152.029 220.293L144.99 216.229L174.89 193.569L181.929 197.627L152.029 220.293Z" fill="#FCCB27"/>
<path d="M152.028 220.293L144.989 216.229L141.838 232.032L148.884 236.095L152.028 220.293Z" fill="#F6891E"/>
<path d="M625.878 198.213L570.779 111.065L545.22 96.3154L490.145 82.0756L215.519 191.795L185.619 214.461L182.475 230.267L208.034 245.022L453.652 168.997L510.605 176.749L587.712 228.359L601.085 264.858L626.652 279.599L625.878 198.213Z" fill="#D33E21"/>
<path d="M490.146 82.0756L515.705 96.8313L265.168 196.836L239.609 182.089L490.146 82.0756Z" fill="#FABD22"/>
<path d="M290.78 182.089L328.462 166.417H333.726L445.644 119.147L448.913 113.434L441.733 109.938L319.319 161.517L319.046 164.784L285.243 179.283L290.78 182.089Z" fill="#CB4B1F"/>
<path d="M617.603 164.278L621.498 161.182L579.655 108.986C577.77 108.079 533.183 86.7653 516.853 89.3845C500.992 91.9067 440.442 113.801 437.877 114.732L439.574 119.412C440.199 119.186 502.235 96.7549 517.627 94.2999C529.859 92.4163 564.084 107.077 576.973 113.229L617.603 164.278Z" fill="#270B12"/>
<path d="M606.092 156.241L609.987 153.146L568.137 100.95C566.252 100.043 521.625 78.7385 505.334 81.349C489.372 83.8892 432.943 109.547 430.55 110.635L432.615 115.169C433.194 114.903 490.819 88.7101 506.116 86.2645C518.294 84.3808 552.565 99.0451 565.454 105.194L606.092 156.241Z" fill="#270B12"/>
<path d="M441.022 118.093C440.435 119.546 439.567 120.452 438.582 120.795C437.236 121.271 303.341 146.352 303.341 146.352L301.003 130.049C301.003 130.049 434.226 105.038 435.234 104.717C436.572 104.286 438.097 104.882 439.403 106.555C441.694 109.492 442.422 114.667 441.022 118.093Z" fill="#E55D1B"/>
<path d="M306.383 143.516C304.991 146.957 302.003 147.348 299.712 144.408C297.42 141.467 296.693 136.295 298.093 132.863C299.485 129.423 302.473 129.032 304.764 131.972C307.056 134.918 307.783 140.085 306.383 143.516Z" fill="#F6891E"/>
<path d="M208.231 160.156L207.73 151.668L299.627 134.122C302.153 133.645 304.522 135.49 304.679 138.054C304.796 140.149 303.349 142.002 301.285 142.39L208.231 160.156Z" fill="#727A7E"/>
<path d="M651.438 212.968L570.78 111.065L515.705 96.8312L265.168 196.835L265.27 243.905L479.22 183.744L536.157 191.499L613.279 243.099L626.653 279.599L665.993 245.624L651.438 212.968Z" fill="#BC3821"/>
<path d="M224.185 222.005L217.138 217.948L262.132 200.878L269.179 204.941L224.185 222.005Z" fill="#FABD22"/>
<path d="M269.179 204.942L262.132 200.878L272.19 187.066L279.237 191.132L269.179 204.942Z" fill="#FABD22"/>
<path d="M269.179 253.51V204.941L279.237 191.132V239.707L269.179 253.51Z" fill="#CB4720"/>
<path d="M539.417 193.678L526.325 152.504L512.912 122.547L506.178 126.04L530.947 190.787L536.156 191.498L539.417 193.678Z" fill="#85261B"/>
<path d="M263.439 569.625H263.431L267.553 572L263.439 569.625Z" fill="#2A2427"/>
<path d="M617.188 388.421C615.64 388.14 614.584 387.474 614.037 386.585C613.301 385.365 537.9 202.511 537.9 202.511L553.393 196.909C553.393 196.909 628.591 379.121 629.108 380.043C629.804 381.255 629.538 382.873 628.161 384.488C625.745 387.333 620.825 389.092 617.188 388.421Z" fill="#E55D1B"/>
<path d="M541.302 204.918C537.65 204.245 536.656 201.403 539.065 198.564C541.482 195.718 546.401 193.959 550.046 194.625C553.698 195.29 554.692 198.142 552.275 200.979C549.858 203.819 544.939 205.583 541.302 204.918Z" fill="#F6891E"/>
<path d="M706.903 249.352L896.155 358.541L899.025 236.377L709.781 127.183L706.903 132.143V249.352Z" fill="#B43D20"/>
<path d="M814.082 239.221L882.203 278.201V233.133L885.401 228.514L814.551 183.371L814.082 239.221Z" fill="#BC3821"/>
<path d="M706.904 180.571L896.156 289.769V299.719L706.904 190.531V180.571Z" fill="#AAACAB"/>
<path d="M956.447 0.000473022L709.781 127.182L706.903 132.143V249.352L948.743 109.822L953.78 100.724L957.378 88.3284L968.319 31.1158L961.484 1.2198L956.447 0.000473022Z" fill="#C6511F"/>
<path d="M956.447 0.000717163L1125.58 97.8024L1085.7 128.675L899.026 236.377L709.781 127.182L896.296 19.5719L956.447 0.000717163Z" fill="#FABD22"/>
<path d="M871.457 145.721L946.844 188.747L947.148 189.163L945.123 190.421L871.051 146.581L871.457 145.721Z" fill="#E55D1B"/>
<path d="M873.052 144.775L946.843 188.748L945.529 189.569L871.456 145.721L873.052 144.775Z" fill="#F8E92B"/>
<path d="M788.172 96.2234L863.558 139.248L863.863 139.664L861.838 140.922L787.773 97.0817L788.172 96.2234Z" fill="#E55D1B"/>
<path d="M789.775 95.2768L863.558 139.247L862.244 140.069L788.172 96.2233L789.775 95.2768Z" fill="#F8E92B"/>
<path d="M792.896 93.4487L868.282 136.467L868.579 136.888L866.554 138.146L792.489 94.2998L792.896 93.4487Z" fill="#E55D1B"/>
<path d="M794.49 92.502L868.281 136.467L866.959 137.279L792.894 93.4485L794.49 92.502Z" fill="#F8E92B"/>
<path d="M797.611 90.673L872.997 133.685L873.294 134.106L871.276 135.359L797.204 91.5249L797.611 90.673Z" fill="#E55D1B"/>
<path d="M799.206 89.7204L872.997 133.685L871.683 134.503L797.61 90.6732L799.206 89.7204Z" fill="#F8E92B"/>
<path d="M802.327 87.883L877.714 130.91L878.019 131.326L875.993 132.583L801.921 88.7435L802.327 87.883Z" fill="#E55D1B"/>
<path d="M803.922 86.9367L877.713 130.91L876.399 131.722L802.327 87.8832L803.922 86.9367Z" fill="#F8E92B"/>
<path d="M807.052 85.1076L882.43 128.129L882.735 128.541L880.71 129.798L806.645 85.9596L807.052 85.1076Z" fill="#E55D1B"/>
<path d="M808.64 84.155L882.43 128.129L881.116 128.947L807.052 85.1078L808.64 84.155Z" fill="#F8E92B"/>
<path d="M811.768 82.3256L887.147 125.353L887.452 125.765L885.434 127.026L811.361 83.1775L811.768 82.3256Z" fill="#E55D1B"/>
<path d="M813.363 81.3789L887.146 125.353L885.832 126.165L811.768 82.3255L813.363 81.3789Z" fill="#F8E92B"/>
<path d="M899.026 236.377L1007.81 173.617L1005.27 172.139L899.026 233.079L890.634 228.124L942.088 197.657L853.492 147.119L854.266 150.74L855.236 155.256L885.401 228.515L899.026 236.377ZM1010.29 172.179L1085.7 128.675L1125.58 97.8024L1084.76 126.547L1007.77 170.707L1010.3 172.179" fill="#F9DA22"/>
<path d="M780.069 167.745L831.233 138.216L936.566 198.994L885.401 228.514L780.069 167.745Z" fill="#C6511F"/>
<path d="M548.153 200.823L548.872 200.096C550.046 198.9 550.39 197.135 549.756 195.587L518.793 120.859L511.386 128.385L540.817 199.4C542.037 202.371 545.9 203.113 548.153 200.823Z" fill="#727A7E"/>
<path d="M566.509 140.71L571.655 147.259C577.302 154.693 581.885 166.988 581.885 174.709V215.166C581.885 222.887 572.5 223.589 569.528 213.148L566.477 208.232C560.831 200.792 558.797 192.289 558.797 184.565L557.171 146.923C554.691 139.147 560.862 133.279 566.509 140.71Z" fill="#18110E"/>
<path d="M566.751 143.596L569.379 147.259C575.034 154.694 579.617 166.988 579.617 174.709V215.166C579.617 222.888 575.034 223.129 569.379 215.698L564.202 208.233C558.563 200.792 556.529 192.29 556.529 184.565V144.112C556.529 136.387 561.104 136.155 566.751 143.596Z" fill="#282321"/>
<path d="M571.538 136.562V209.827L569.638 210.132L568.692 209.485L567.972 208.398L568.066 134.843C568.082 127.9 575.942 124.077 581.182 128.47L604.926 148.371L602.885 153.131L579.688 132.708C576.489 129.894 571.538 132.232 571.538 136.562Z" fill="#261F1B"/>
<path d="M720.222 41.1765L601.906 114.237L594.71 124.586L591.832 132.849L595.782 135.52L580.406 277.333L577.88 324.184L582.557 357.798L584.715 373.891L586.882 388.46L708.349 459.14L758.177 198.453L724.539 41.5734L720.222 41.1765Z" fill="#270B12"/>
<path d="M724.539 41.5734L846.007 112.246L841.69 111.847L719.229 41.1912L724.539 41.5734Z" fill="#86898A"/>
<path d="M584.496 294.388L597.205 301.718L632.83 322.266L694.569 357.892L710.461 207.991L670.879 185.151L610.313 150.215L600.381 144.478L584.496 294.388Z" fill="#582A36"/>
<path d="M584.498 294.388L597.41 314.545L610.596 335.108L613.326 339.361L672.898 373.72L694.57 357.893L632.831 322.266L597.207 301.719L584.498 294.388Z" fill="#582A36"/>
<path d="M577.881 324.184L608.227 362.802L671.78 399.778L699.357 394.862L708.351 459.14L586.883 388.46L577.881 324.184Z" fill="#E37318"/>
<path d="M706.191 444.571L669.902 425.135L664.506 410.159L611.315 378.62L601.906 383.194L584.716 373.891L577.88 324.184L608.226 362.803L671.779 399.778L699.356 394.863L706.191 444.571Z" fill="#AAACAB"/>
<path d="M597.034 280.255L655.871 246.32L672.772 206.505L670.879 185.151L610.314 150.215L597.034 280.255Z" fill="#6D7173"/>
<path d="M597.033 290.69L656.847 256.472L597.033 290.69Z" fill="#402329"/>
<path d="M719.229 41.1909L841.69 111.846L723.374 184.916L601.907 114.236L719.229 41.1909Z" fill="#CFD0CE"/>
<path d="M597.035 290.691L597.207 301.719L597.411 314.545L610.597 335.107L632.832 322.266L649.835 312.46L656.983 288.993L656.85 256.472L597.035 290.691Z" fill="#6D7173"/>
<path d="M841.691 111.847L723.375 184.916L716.18 195.257L713.301 203.527L717.259 206.199L701.875 348.013L699.357 394.862L704.034 428.477L706.192 444.57L708.351 459.14L879.654 360.307V269.127L846.008 112.246L841.691 111.847Z" fill="#E55D1B"/>
<path d="M717.259 206.199L713.301 203.528L716.18 195.257L723.375 184.917L841.691 111.847L846.008 112.246L879.654 269.127L868.126 331.288L846.931 366.17L706.192 444.571L699.357 394.863L701.875 348.013L717.259 206.199Z" fill="#86898A"/>
<path d="M727.097 194.195L709.186 348.199V399.919L717 428.423L813.792 372.579L855.048 309.629L862.016 278.567L845.529 181.518L833.9 132.058L727.097 194.195Z" fill="#270B12"/>
<path d="M718.51 350.944L777.347 316.99L794.24 277.184L787.624 202.502L784.84 171.067L759.015 185.682L733.933 199.877L718.51 350.944Z" fill="#402329"/>
<path d="M778.317 327.151L778.458 359.667L771.31 383.145L724.47 410.159L719.034 393.727L718.502 361.371L778.317 327.151Z" fill="#402329"/>
<path d="M801.75 161.313L808.053 214.526L814.208 266.452L839.4 283.932L851.468 269.133L835.458 187.331L826.339 147.119L818.776 151.497L801.75 161.313Z" fill="#402329"/>
<path d="M757.013 233.234L763.911 233.931C769.566 235.097 774.141 242.312 774.141 250.032V294.874C774.141 302.601 769.566 307.917 763.911 306.754L754.464 305.086C748.817 303.923 746.783 297.679 746.783 289.955V245.108C746.783 237.387 751.359 232.062 757.013 233.234Z" fill="#18110E"/>
<path d="M757.013 234.486L763.911 235.182C769.566 236.346 774.141 243.56 774.141 251.281V296.132C774.141 303.853 769.566 309.174 763.911 308.002L754.464 306.339C748.817 305.175 746.783 298.938 746.783 291.207V246.36C746.783 238.635 751.359 233.314 757.013 234.486Z" fill="#282321"/>
<path d="M725.011 196.134L750.632 221.209C756.912 227.358 760.463 235.869 760.463 244.763V301.007L760.134 301.203L758.828 301.603C757.491 301.813 756.787 301.618 756.185 301.032V247.157C756.185 238.44 752.783 230.087 746.729 223.965L723.086 200.05L722.821 197.135L725.011 196.134Z" fill="#261F1B"/>
<path d="M713.301 203.528L591.826 132.849L594.712 124.587L601.907 114.237L723.375 184.916L716.179 195.257L713.301 203.528Z" fill="#DADBD8"/>
<path d="M820.355 98.7855L700.694 169.302L700.232 169.981L703.635 172.044L821.082 100.178L820.355 98.7855Z" fill="#979F9F"/>
<path d="M817.671 97.2222L700.693 169.302L702.906 170.646L820.354 98.7853L817.671 97.2222Z" fill="#DADBD8"/>
<path d="M800.512 87.3909L680.844 157.914L680.39 158.592L683.792 160.656L801.24 88.7891L800.512 87.3909Z" fill="#979F9F"/>
<path d="M797.823 85.8338L680.845 157.914L683.066 159.249L800.514 87.3914L797.823 85.8338Z" fill="#DADBD8"/>
<path d="M780.662 76.0028L661.001 146.517L660.54 147.198L663.95 149.262L781.397 77.3955L780.662 76.0028Z" fill="#979F9F"/>
<path d="M777.98 74.4399L661.002 146.517L663.215 147.864L780.663 76.0031L777.98 74.4399Z" fill="#DADBD8"/>
<path d="M760.812 64.605L641.151 135.123L640.69 135.81L644.1 137.873L761.547 66.0064L760.812 64.605Z" fill="#979F9F"/>
<path d="M758.139 63.0514L641.152 135.123L643.366 136.467L760.813 64.6051L758.139 63.0514Z" fill="#DADBD8"/>
<path d="M740.971 53.2019L621.31 123.735L620.849 124.416L624.259 126.471L741.706 54.6096L740.971 53.2019Z" fill="#979F9F"/>
<path d="M738.288 51.6573L621.309 123.735L623.523 125.078L740.97 53.2017L738.288 51.6573Z" fill="#DADBD8"/>
<path d="M677.106 420.24L694.507 430.416L693.381 417.403L671.787 407.765L677.106 420.24Z" fill="#EDEEEB"/>
<path d="M677.107 420.24L683.309 417.019L693.382 417.404L692.021 405.249L671.788 407.765L677.107 420.24Z" fill="#D7F1EB"/>
<path d="M671.787 407.765L677.106 420.24L694.507 430.417L694.57 431.738L676.003 420.881L670.63 408.767L671.787 407.765Z" fill="#343133"/>
<path d="M687.891 420.991L693.382 424.209L693.21 420.622L687.711 417.404L687.891 420.991Z" fill="white"/>
<path d="M694.507 430.417L694.57 431.738L676.003 420.881L677.106 420.24L694.507 430.417Z" fill="#616062"/>
<path d="M589.815 365.865L602.836 373.265L608.608 369.147L585.787 339.782L589.815 365.865Z" fill="#EDEEEB"/>
<path d="M589.815 365.865L594.906 359.727L606.52 368.631L602.836 373.265L608.608 369.147L585.787 339.782L585.991 354.485L589.815 365.865Z" fill="#D7F1EB"/>
<path d="M585.787 339.782L587.046 353.633L589.815 365.865L602.837 373.265L600.717 373.354L588.712 366.515L585.991 354.485L584.63 339.104L585.787 339.782Z" fill="#343133"/>
<path d="M598.856 365.708L604.354 368.921L604.182 365.333L598.684 362.122L598.856 365.708Z" fill="white"/>
<path d="M602.837 373.265L600.717 373.354L588.712 366.515L589.815 365.864L602.837 373.265Z" fill="#616062"/>
<path d="M416.401 195.266L401.901 190.122L312.774 214.837L327.274 219.981L416.401 195.266Z" fill="#959DA7"/>
<path d="M341.07 216.159L326.57 211.015L319.586 212.947L334.078 218.097L341.07 216.159Z" fill="#EE2C2F"/>
<path d="M356.132 211.985L341.632 206.841L334.648 208.773L349.148 213.915L356.132 211.985Z" fill="#EE2C2F"/>
<path d="M371.196 207.811L356.696 202.66L349.704 204.6L364.212 209.741L371.196 207.811Z" fill="#EE2C2F"/>
<path d="M386.258 203.628L371.758 198.478L364.773 200.416L379.274 205.567L386.258 203.628Z" fill="#EE2C2F"/>
<path d="M401.321 199.449L386.821 194.305L379.837 196.243L394.337 201.394L401.321 199.449Z" fill="#EE2C2F"/>
<path d="M416.386 195.275L401.886 190.131L394.901 192.061L409.394 197.211L416.386 195.275Z" fill="#EE2C2F"/>
<path d="M505.325 123.696C505.325 124.767 505.645 125.564 506.177 126.041C506.912 126.681 514.819 131.542 514.819 131.542L520.498 121.812L512.442 116.707C511.707 116.085 510.588 116.075 509.329 116.796C507.116 118.069 505.325 121.165 505.325 123.696Z" fill="#270B12"/>
<path d="M513.616 128.962C513.616 131.496 515.407 132.519 517.62 131.245C519.826 129.963 521.625 126.876 521.625 124.342C521.625 121.812 519.826 120.788 517.62 122.062C515.407 123.335 513.616 126.431 513.616 128.962Z" fill="#533841"/>
<path d="M818.776 151.496L801.749 161.313L808.053 214.525L836.06 230.999L818.776 151.496Z" fill="#563B41"/>
<path d="M759.015 185.682L787.624 202.502L784.84 171.067L759.015 185.682Z" fill="#563B41"/>
<path d="M820.355 63.3875L821.599 62.67L820.981 62.316L820.355 63.3875Z" fill="#DCCA54"/>
<path d="M1005.27 172.138L1007.77 170.707L821.598 62.6699L820.355 63.3873L819.729 64.4652L1005.27 172.138Z" fill="#E49619"/>
<path d="M868.986 272.104L872.998 269.829C877.933 267.032 880.428 261.427 879.224 255.894L858.279 160.314C857.145 155.131 853.782 150.776 849.042 148.371L848.479 148.081L843.677 148.221L843.81 153.201L847.322 153.106C850.435 154.865 852.64 157.851 853.407 161.377L874.351 256.967C875.086 260.349 873.553 263.781 870.542 265.5L866.53 267.775L868.986 272.104Z" fill="#270B12"/>
<path d="M586.882 388.461L586.311 384.381H586.303L586.882 388.461Z" fill="#1B0A0E"/>
<path d="M708.351 459.14L707.608 454.105L586.305 384.381L586.883 388.461L594.892 393.126L597.027 394.362L626.888 411.737L638.283 418.371L708.351 459.14Z" fill="#A14A1C"/>
<path d="M708.351 459.14L879.654 360.307V355.633L707.608 454.114L708.351 459.14Z" fill="#A33C1E"/>
<path d="M841.69 111.847L720.707 183.371L712.98 190.226L600.233 123.891L604.605 115.81L719.229 41.1915L601.907 114.237L594.712 124.587L716.179 195.257L723.374 184.917L841.69 111.847Z" fill="#F4F3F2"/>
<path d="M686.004 187.621L682.68 177.796L624.281 144.141L619.55 148.962L686.004 187.621Z" fill="#282321"/>
<path d="M674.236 174.6L681.134 178.587V181.894L673.118 175.22L674.236 174.6Z" fill="#DB6133"/>
<path d="M673.117 175.22L680.022 179.204V182.51L673.117 178.447V175.22Z" fill="#F57734"/>
<path d="M680.024 179.204L681.134 178.587V181.894L680.024 182.51V179.204Z" fill="#D94F20"/>
<path d="M650.756 161.102L657.654 165.089V168.396L649.638 161.718L650.756 161.102Z" fill="#DB6133"/>
<path d="M649.639 161.719L656.544 165.697V169.013L649.639 164.949V161.719Z" fill="#F57734"/>
<path d="M656.544 165.697L657.654 165.09V168.396L656.544 169.013V165.697Z" fill="#D94F20"/>
<path d="M627.277 147.605L634.184 151.583V154.898L626.159 148.221L627.277 147.605Z" fill="#DB6133"/>
<path d="M626.16 148.221L633.065 152.208V155.515L626.16 151.451V148.221Z" fill="#F57734"/>
<path d="M633.065 152.208L634.184 151.583V154.898L633.065 155.515V152.208Z" fill="#D94F20"/>
<path d="M204.656 227.413L218.695 226.164L224.185 222.005L269.179 204.942L279.237 191.132L297.381 183.979L279.237 172.677L258.652 178.734L239.608 182.089L265.167 196.836L262.132 200.878L217.138 217.948L204.656 227.413Z" fill="#CB4B1F"/>
<path d="M653.908 121.968L663.715 121.226L681.649 110.173L655.065 109.657L653.908 121.968ZM672.389 120.56L685.849 119.538V119.522C687.679 119.366 689.47 119.051 690.933 118.404C694.953 116.631 695.203 113.636 691.504 111.736C690.62 111.285 689.595 110.949 688.492 110.705L672.389 120.56Z" fill="#A9ABAA"/>
<path d="M668.925 120.826L672.39 120.56L688.493 110.705C687.711 110.543 686.882 110.423 686.045 110.354L668.925 120.826Z" fill="#7C8486"/>
<path d="M663.716 121.226L668.925 120.825L686.045 110.354C685.74 110.329 685.427 110.314 685.122 110.298L685.114 110.237L681.649 110.173L663.716 121.226Z" fill="#B2B4B3"/>
<path d="M665.382 108.274L642.443 107.939V116.332V116.325C642.333 117.717 643.334 119.137 645.477 120.24C649.779 122.444 657.037 122.569 661.69 120.499C664.036 119.458 665.272 118.069 665.382 116.671V108.274Z" fill="#A6CBC7"/>
<path d="M664.326 87.422L644.57 87.2016L642.443 107.939C642.333 109.337 643.334 110.753 645.477 111.847C649.779 114.067 657.037 114.176 661.69 112.121C664.036 111.08 665.272 109.688 665.382 108.274L664.326 87.422Z" fill="#D75E1C"/>
<path d="M661.706 84.075C657.999 82.1765 651.758 82.0663 647.746 83.8436C643.726 85.6327 643.483 88.6183 647.183 90.5176C650.882 92.4223 657.131 92.5263 661.143 90.7435C665.147 88.9599 665.413 85.9742 661.706 84.075Z" fill="#F79924"/>
<path d="M661.823 104.351C657.834 102.296 651.1 102.186 646.775 104.101C642.45 106.024 642.184 109.236 646.173 111.291C650.154 113.349 656.896 113.455 661.221 111.535C665.538 109.618 665.811 106.4 661.823 104.351Z" fill="#F78E1E"/>
<path d="M650.976 96.5503C649.943 99.3257 649.505 103.774 650.6 106.345C651.687 108.906 656.474 108.195 657.506 105.413C658.539 102.647 658.242 101.209 657.154 98.6387C656.059 96.0649 652.008 93.7757 650.976 96.5503Z" fill="#F78E1E"/>
<path d="M654.846 98.9199C653.994 101.756 654.033 105.734 654.948 107.807C655.863 109.883 657.302 109.26 658.162 106.421C659.015 103.594 658.976 99.6069 658.061 97.5365C657.146 95.4637 655.706 96.0835 654.846 98.9199Z" fill="#F79924"/>
<path d="M66.2251 568.113L58.9263 564.492L55.6245 562.643L62.9232 566.258L66.2251 568.113Z" fill="#2E272A"/>
<path d="M72.8364 571.803L65.5379 568.187L62.2359 566.338L69.5269 569.963L72.8364 571.803Z" fill="#2E272A"/>
<path d="M58.9605 572.98L65.5377 568.187L72.8363 571.803L65.7157 581.599L63.4996 587.316L57.4396 582.151L58.9605 572.98Z" fill="#241E21"/>
<path d="M89.353 580.985L82.0622 577.378L78.7601 575.523L86.0511 579.145L89.353 580.985Z" fill="#2E272A"/>
<path d="M95.9561 584.69L88.6649 581.065L85.363 579.219L92.6541 582.835L95.9561 584.69Z" fill="#2E272A"/>
<path d="M48.7333 534.845L32.9768 538.687L22.5205 554.688L6.7831 643.082C6.7831 643.082 11.1029 663.881 11.1476 667.249C11.1924 670.625 107.259 721.973 107.259 721.973L97.7596 626.781L191.662 526.866L144.983 555.774L108.772 558.404L48.7333 534.845Z" fill="#241E21"/>
<path d="M232.649 152.124L206.896 137.716L191.844 137.464L149.55 197.401L70.8041 534.723L96.5645 549.132L232.649 152.124Z" fill="#F6891E"/>
<path d="M150.066 218.639C150.066 218.639 152.389 212.12 154.602 212.081C156.822 212.045 162.951 214.104 162.998 217.677C163.045 221.239 117.901 421.211 117.901 421.211L111.899 423.932L88.6259 526.223L84.6416 524.817L105.689 424.015C105.689 424.015 105.744 417.556 106.34 413.493C106.935 409.427 150.066 218.639 150.066 218.639Z" fill="#CB4B1F"/>
<path d="M236.707 214.959L232.629 152.254L217.569 151.999L175.29 211.936L96.5445 549.261L112.207 551.264L236.707 214.959Z" fill="#E55D1B"/>
<path d="M181.754 255.9L193.298 267.081L203.619 274.419L213.953 276.351L236.727 214.829L235.883 201.943L208.948 213.338L188.471 231.634L181.754 255.9Z" fill="#BC3821"/>
<path d="M112.125 562.329L146.304 559.846L149.128 558.095L166.894 547.096L179.336 554.051L208.25 536.144L212.395 538.471L197.267 547.835L197.259 547.841L183.481 556.372L198.328 564.688L227.249 546.781L231.394 549.092L216.266 558.456L216.258 558.462L202.473 567.002L217.335 575.309L246.248 557.401L250.385 559.722L235.265 569.083L235.257 569.092L221.472 577.629L236.334 585.945L265.247 568.028L269.392 570.349L254.264 579.704L254.256 579.713L240.463 588.259L252.906 595.224L237.964 604.472L237.276 604.521L206.168 606.778L203.722 606.951L193.454 602.929L193.446 602.929L184.49 599.405L184.207 599.293L167.657 592.789L164.111 591.407L158.996 588.55L147.712 582.236L147.704 582.236L147.696 582.236L141.116 578.549L141.124 578.549L128.713 571.599L128.697 571.609L122.109 567.913L122.117 567.913L112.125 562.329Z" fill="#2A2427"/>
<path d="M112.124 562.329L142.423 579.264L146.561 581.588L195.814 529.186L180.679 538.549L180.679 538.556L149.127 558.094L146.311 559.851L112.124 562.329Z" fill="#241E21"/>
<path d="M22.5197 554.688L32.976 538.687L48.7325 534.844L48.7561 534.853L68.0352 542.42L162.329 595.168L143.042 587.598L143.042 587.607L127.278 591.45L116.829 607.441L101.084 695.838L105.457 720.012L11.1468 667.249L6.78231 643.081L22.5197 554.688Z" fill="#2E272A"/>
<path d="M22.5187 554.688L116.828 607.441L101.083 695.838L6.78132 643.082L22.5187 554.688Z" fill="#3B3236"/>
<path d="M127.278 591.449L116.829 607.441L22.5196 554.688L32.9759 538.687L127.278 591.449Z" fill="#4C4045"/>
<path d="M32.9764 538.686L127.279 591.449L143.043 587.607L48.733 534.844L32.9764 538.686Z" fill="#3B3236"/>
<path d="M143.044 587.607L127.279 591.449L116.831 607.441L101.086 695.838L105.458 720.017C105.503 723.378 129.507 731.628 143.379 724.219C157.265 716.814 192.062 679.544 192.062 679.544L285.973 579.619L239.294 608.537L203.083 611.157L143.044 587.607Z" fill="#241E21"/>
<path d="M129.895 717.247C133.508 717.199 136.55 716.572 138.694 715.427C147.726 710.608 171.75 686.683 184.768 672.746L235.472 618.801L201.543 621.26L142.345 598.034L133.48 600.191L126.29 611.19L111.222 695.826L114.591 714.495C117.751 715.726 123.725 717.329 129.895 717.247Z" fill="#1D191B"/>
<path d="M126.239 714.029C129.852 713.981 132.894 713.354 135.029 712.208C144.07 707.389 168.093 683.465 181.111 669.528L228.298 619.327L235.472 618.801L184.768 672.746C171.75 686.684 147.726 710.608 138.694 715.427C136.55 716.572 133.508 717.199 129.895 717.247C123.725 717.329 117.751 715.726 114.591 714.495L114.21 712.36C117.468 713.278 121.789 714.088 126.239 714.029Z" fill="#2A2427"/>
<path d="M57.2033 552.445L59.1745 524.169L53.7138 521.115L51.7427 549.391L57.2033 552.445Z" fill="#2E272A"/>
<path d="M59.1727 524.169L75.242 520.298L69.7887 517.243L53.7118 521.115L59.1727 524.169Z" fill="#2E272A"/>
<path d="M59.1737 524.169L75.2428 520.298L90.0883 526.204L84.4756 552.965L73.2714 548.564L57.2024 552.444L59.1737 524.169Z" fill="#241E21"/>
<path d="M35.2123 528.6L106.199 462.425L103.356 478.582L46.0233 532.246L45.3945 543.798L61.4341 567.762L58.7829 581.352L33.9788 543.514L35.2123 528.6Z" fill="#CB4B1F"/>
<path d="M33.9794 543.513L35.213 528.599L29.7598 525.545L28.5185 540.469L33.9794 543.513Z" fill="#F6891E"/>
<path d="M33.9805 543.514L58.7847 581.352L53.3317 578.307L28.5197 540.469L33.9805 543.514Z" fill="#E55D1B"/>
<path d="M35.2121 528.6L106.199 462.425L100.746 459.365L29.759 525.545L35.2121 528.6Z" fill="#F6891E"/>
<path d="M36.1361 538.639C36.1503 539.708 36.4817 540.509 37.0197 540.973C37.7634 541.61 40.1901 542.946 40.1901 542.946L45.7384 533.132L43.1601 531.566C42.4168 530.956 41.2981 530.955 40.0486 531.699C37.8602 533.004 36.1025 536.105 36.1361 538.639Z" fill="#270B12"/>
<path d="M38.9506 540.381C38.9842 542.915 40.7964 543.914 42.9847 542.603C45.1809 541.3 46.9309 538.19 46.8973 535.656C46.8636 533.116 45.0592 532.127 42.8629 533.429C40.6745 534.731 38.917 537.851 38.9506 540.381Z" fill="#533841"/>
<path d="M95.5935 477.091C95.6077 478.162 95.9387 478.946 96.4768 479.415C97.2205 480.055 99.6473 481.391 99.6473 481.391L105.195 471.578L102.617 470.003C101.874 469.393 100.755 469.392 99.5057 470.135C97.3174 471.441 95.5599 474.557 95.5935 477.091Z" fill="#270B12"/>
<path d="M98.4075 478.818C98.4412 481.358 100.254 482.36 102.442 481.049C104.638 479.746 106.388 476.633 106.354 474.103C106.321 471.563 104.516 470.57 102.32 471.875C100.132 473.177 98.374 476.288 98.4075 478.818Z" fill="#533841"/>
<path d="M103.006 412.175L102.301 412.083C100.499 411.873 99.1849 412.437 98.9023 413.536L72.0425 530.806C71.6059 532.687 72.9052 534.523 74.8169 534.764C77.0026 535.025 79.0406 533.59 79.5362 531.449L106.248 414.813C106.581 413.38 104.91 412.401 103.006 412.175Z" fill="#727A7E"/>
<path d="M96.0503 411.963C94.9482 410.844 94.4635 409.687 94.5435 408.645C94.6342 407.224 138.073 214.279 138.073 214.279L153.984 218.593C153.984 218.593 110.733 410.894 110.63 411.949C110.507 413.343 109.35 414.516 107.3 415.043C103.691 415.983 98.6508 414.603 96.0503 411.963Z" fill="#E55D1B"/>
<path d="M139.476 218.193C136.876 215.553 137.69 212.656 141.299 211.72C144.916 210.787 149.948 212.158 152.556 214.804C155.157 217.444 154.335 220.347 150.718 221.277C147.117 222.217 142.077 220.839 139.476 218.193Z" fill="#F6891E"/>
<path d="M95.4211 573.824L97.3844 545.549L91.9316 542.494L89.9527 570.77L95.4211 573.824Z" fill="#2E272A"/>
<path d="M97.3849 545.548L113.462 541.677L108.001 538.623L91.9318 542.494L97.3849 545.548Z" fill="#2E272A"/>
<path d="M128.308 547.584L113.462 541.677L108.001 538.623L122.847 544.539L128.308 547.584Z" fill="#2E272A"/>
<path d="M97.3848 545.548L113.462 541.677L128.308 547.583L122.695 574.344L111.491 569.943L95.4214 573.823L97.3848 545.548Z" fill="#241E21"/>
<path d="M191.843 137.464L217.588 151.87L175.309 211.806L149.549 197.401L191.843 137.464Z" fill="#FCCB27"/>
<path d="M62.5087 543.87L133.496 477.696L130.652 493.853L73.3198 547.517L72.6909 559.069L88.7228 583.033L86.0794 596.623L61.2754 558.785L62.5087 543.87Z" fill="#CB4B1F"/>
<path d="M62.5089 543.87L133.496 477.696L128.035 474.636L57.0559 540.816L62.5089 543.87Z" fill="#F6891E"/>
<path d="M122.89 492.362C122.905 493.433 123.236 494.217 123.774 494.685C124.518 495.326 126.952 496.661 126.952 496.661L132.493 486.849L129.914 485.273C129.171 484.663 128.052 484.663 126.803 485.406C124.607 486.712 122.857 489.828 122.89 492.362Z" fill="#270B12"/>
<path d="M125.704 494.089C125.738 496.63 127.55 497.631 129.738 496.32C131.935 495.018 133.685 491.904 133.651 489.374C133.617 486.834 131.813 485.841 129.617 487.146C127.428 488.448 125.671 491.559 125.704 494.089Z" fill="#533841"/>
<path d="M139.944 398.999L151.502 388.858L153.208 381.816L141.649 391.96L139.944 398.999Z" fill="#EE2C2F"/>
<path d="M136.252 414.173L147.819 404.03L149.524 396.996L137.966 407.141L136.252 414.173Z" fill="#EE2C2F"/>
<path d="M147.005 369.937L158.564 359.787L180.383 269.957L168.824 280.107L147.005 369.937Z" fill="#959DA7"/>
<path d="M165.45 294.012L177.009 283.862L178.722 276.819L167.164 286.969L165.45 294.012Z" fill="#EE2C2F"/>
<path d="M161.764 309.193L173.323 299.042L175.036 292.009L163.477 302.154L161.764 309.193Z" fill="#EE2C2F"/>
<path d="M158.071 324.369L169.63 314.225L171.351 307.192L159.792 317.336L158.071 324.369Z" fill="#EE2C2F"/>
<path d="M154.384 339.559L165.943 329.406L167.657 322.366L156.097 332.508L154.384 339.559Z" fill="#EE2C2F"/>
<path d="M150.7 354.732L162.259 344.591L163.972 337.548L152.405 347.699L150.7 354.732Z" fill="#EE2C2F"/>
<path d="M147.012 369.913L158.571 359.772L160.285 352.729L148.718 362.873L147.012 369.913Z" fill="#EE2C2F"/>
<path d="M101.747 558.326C101.767 559.841 102.236 560.961 103.003 561.623C104.055 562.525 107.491 564.415 107.491 564.415L115.347 550.524C115.347 550.524 112.487 548.944 111.696 548.298C110.644 547.427 109.056 547.426 107.287 548.482C104.183 550.328 101.699 554.73 101.747 558.326Z" fill="#727A7E"/>
<path d="M105.738 560.789C105.786 564.376 108.346 565.781 111.451 563.941C114.555 562.086 117.039 557.684 116.991 554.097C116.943 550.503 114.382 549.091 111.278 550.945C108.174 552.785 105.69 557.194 105.738 560.789Z" fill="#5D6062"/>
<path d="M223.344 163.511C223.358 164.574 223.689 165.366 224.235 165.83C224.971 166.467 232.942 171.225 232.942 171.225L238.49 161.411L230.368 156.423C229.632 155.813 228.506 155.812 227.256 156.556C225.068 157.861 223.31 160.971 223.344 163.511Z" fill="#270B12"/>
<path d="M231.711 168.653C231.745 171.202 233.542 172.186 235.738 170.883C237.934 169.581 239.676 166.476 239.642 163.936C239.609 161.396 237.812 160.404 235.616 161.715C233.42 163.018 231.678 166.122 231.711 168.653Z" fill="#533841"/>
<path d="M206.896 137.716L232.649 152.125L217.589 151.87L191.844 137.464L206.896 137.716Z" fill="#FABD22"/>
<path d="M148.207 217.686C148.474 217.197 174.712 168.597 182.442 158.107C184.846 154.838 193.604 144.068 205.202 142.702C211.151 141.937 217.021 143.984 222.527 148.631L225.746 144.821C219.133 139.251 211.992 136.915 204.62 137.746C191.023 139.358 181.133 151.471 178.429 155.149C170.492 165.917 144.903 213.312 143.819 215.32L148.207 217.686Z" fill="#270B12"/>
<path d="M68.0448 542.421L162.339 595.168L203.083 611.158L239.294 608.537L285.973 579.628L281.828 577.313L252.907 595.224L166.895 547.096L195.816 529.186L191.663 526.859L144.984 555.774L108.773 558.395L68.0448 542.421Z" fill="#3B3236"/>
<path d="M112.125 562.329L128.712 571.599L146.561 581.588L147.704 582.236L147.711 582.236L158.996 588.55L163.149 590.864L164.11 591.407L167.64 592.789L184.207 599.293L184.49 599.405L193.453 602.929L203.722 606.951L206.168 606.778L237.276 604.521L237.964 604.472L252.905 595.224L166.893 547.096L149.127 558.095L146.304 559.846L112.125 562.329Z" fill="#2A2427"/>
<path d="M128.697 571.599L147.704 582.235L147.712 582.235L158.996 588.549L163.141 590.873L163.149 590.863L172.975 580.406L212.387 538.471L197.267 547.835L197.259 547.841L165.708 567.38L162.884 569.13L128.713 571.599L128.697 571.599Z" fill="#241E21"/>
<path d="M147.712 582.236L158.997 588.549L163.142 590.873L163.15 590.863L164.111 591.406L167.641 592.788L184.208 599.292L191.99 591.022L231.387 549.092L216.266 558.456L216.259 558.462L184.707 578.001L181.883 579.751L172.976 580.407L147.712 582.236Z" fill="#241E21"/>
<path d="M167.641 592.789L184.207 599.293L184.49 599.405L193.454 602.929L203.722 606.951L206.168 606.778L250.385 559.713L235.265 569.083L235.258 569.092L203.706 588.631L200.89 590.379L191.99 591.022L167.641 592.789Z" fill="#241E21"/>
<path d="M193.454 602.929L203.723 606.951L237.277 604.521L269.393 570.349L254.264 579.704L254.257 579.713L222.706 599.258L219.889 600.999L193.454 602.929Z" fill="#241E21"/>
<path d="M50.8454 578.455L52.3508 569.291L49.0567 567.435L47.5435 576.6L50.8454 578.455Z" fill="#3B3236"/>
<path d="M52.3498 569.291L58.9267 564.492L55.6249 562.643L49.0557 567.435L52.3498 569.291Z" fill="#2E272A"/>
<path d="M52.3495 569.29L58.9264 564.492L66.2252 568.113L59.1043 577.9L56.8963 583.614L50.8442 578.455L52.3495 569.29Z" fill="#241E21"/>
<path d="M57.4408 582.151L58.9616 572.98L55.6598 571.131L54.1392 580.305L57.4408 582.151Z" fill="#3B3236"/>
<path d="M58.9633 572.98L65.5401 568.187L62.2382 566.338L55.6614 571.13L58.9633 572.98Z" fill="#4C4045"/>
<path d="M59.0632 577.659C59.0734 578.426 59.3157 578.999 59.7033 579.333L61.9906 580.756L66.003 573.683L64.1262 572.535C63.5964 572.103 62.7908 572.098 61.8828 572.635C60.2997 573.579 59.0388 575.825 59.0632 577.659Z" fill="#727A7E"/>
<path d="M61.0971 578.905C61.1214 580.734 62.4213 581.452 64.0044 580.519C65.5873 579.567 66.8557 577.32 66.8314 575.492C66.8073 573.672 65.4994 572.948 63.9165 573.891C62.3334 574.825 61.0728 577.07 61.0971 578.905Z" fill="#5D6062"/>
<path d="M73.9656 591.336L75.4864 582.162L72.1845 580.315L70.6638 589.49L73.9656 591.336Z" fill="#3B3236"/>
<path d="M75.4851 582.161L82.0622 577.378L78.7602 575.523L72.1832 580.315L75.4851 582.161Z" fill="#2E272A"/>
<path d="M75.4855 582.162L82.0626 577.378L89.3534 580.986L82.2405 590.78L80.0245 596.501L73.9646 591.336L75.4855 582.162Z" fill="#241E21"/>
<path d="M61.2755 558.784L62.5089 543.87L57.0557 540.816L55.8144 555.74L61.2755 558.784Z" fill="#F6891E"/>
<path d="M61.2756 558.785L86.0796 596.623L80.6266 593.578L55.8146 555.74L61.2756 558.785Z" fill="#E55D1B"/>
<path d="M63.434 553.91C63.4482 554.979 63.7795 555.78 64.3176 556.244C65.0613 556.881 67.488 558.217 67.488 558.217L73.0363 548.403L70.4578 546.837C69.7145 546.227 68.5959 546.22 67.3465 546.963C65.1504 548.275 63.4003 551.376 63.434 553.91Z" fill="#270B12"/>
<path d="M66.2482 555.653C66.2819 558.187 68.0942 559.18 70.2826 557.874C72.4789 556.572 74.2288 553.462 74.1951 550.922C74.1614 548.388 72.3572 547.398 70.1609 548.701C67.9724 550.003 66.2146 553.122 66.2482 555.653Z" fill="#533841"/>
<path d="M80.5775 595.025L82.0907 585.867L78.789 584.011L77.2681 593.176L80.5775 595.025Z" fill="#3B3236"/>
<path d="M82.0906 585.866L88.6674 581.065L85.3657 579.219L78.7888 584.011L82.0906 585.866Z" fill="#4C4045"/>
<path d="M82.0882 585.866L88.6651 581.065L95.956 584.69L88.843 594.476L86.6351 600.196L80.575 595.025L82.0882 585.866Z" fill="#241E21"/>
<path d="M125.188 459.743L136.747 449.602L158.574 359.772L147.015 369.913L125.188 459.743Z" fill="#959DA7"/>
<path d="M143.631 383.817L155.19 373.676L156.896 366.634L145.337 376.775L143.631 383.817Z" fill="#EE2C2F"/>
<path d="M132.566 429.364L144.125 419.22L145.838 412.172L134.272 422.322L132.566 429.364Z" fill="#EE2C2F"/>
<path d="M128.88 444.547L140.439 434.396L142.144 427.36L130.586 437.504L128.88 444.547Z" fill="#EE2C2F"/>
<path d="M125.194 459.721L136.753 449.577L138.458 442.535L126.9 452.685L125.194 459.721Z" fill="#EE2C2F"/>
<path d="M82.7146 590.532C82.7249 591.314 82.9594 591.888 83.355 592.228L85.6498 593.651L89.6773 586.538L87.8008 585.4C87.271 584.961 86.4574 584.956 85.5494 585.491C83.9586 586.443 82.6903 588.704 82.7146 590.532Z" fill="#727A7E"/>
<path d="M84.7561 591.795C84.7806 593.638 86.0885 594.357 87.6794 593.414C89.2702 592.461 90.5386 590.209 90.5142 588.366C90.4898 586.527 89.1818 585.803 87.591 586.755C86.0002 587.705 84.7317 589.96 84.7561 591.795Z" fill="#5D6062"/>
<path d="M191.78 244.027L221.384 220.959L266.147 203.3L266.792 251.865L228.234 263.259L188.846 259.864L191.78 244.027Z" fill="#CB4B1F"/>
<path d="M191.78 244.027L184.687 240.048L214.284 216.996L221.384 220.96L191.78 244.027Z" fill="#FCCB27"/>
<path d="M191.78 244.027L184.688 240.047L181.754 255.9L188.846 259.864L191.78 244.027Z" fill="#F6891E"/>
<path d="M211.483 246.455C211.51 248.479 212.132 249.989 213.161 250.873C214.569 252.081 219.17 254.607 219.17 254.607L229.686 236.021C229.686 236.021 225.857 233.898 224.797 233.03C223.39 231.882 221.254 231.88 218.895 233.28C214.744 235.759 211.419 241.657 211.483 246.455Z" fill="#270B12"/>
<path d="M216.831 249.746C216.894 254.551 220.306 256.435 224.474 253.974C228.625 251.495 231.942 245.597 231.878 240.789C231.814 235.993 228.395 234.1 224.243 236.57C220.075 239.047 216.767 244.947 216.831 249.746Z" fill="#533841"/>
</svg>
