<svg width="120" height="120" viewBox="0 0 120 120" fill="none" xmlns="http://www.w3.org/2000/svg">
<path d="M20 20V100C20 102.652 21.0536 105.196 22.9289 107.071C24.8043 108.946 27.3478 110 30 110H90C92.6522 110 95.1957 108.946 97.0711 107.071C98.9464 105.196 100 102.652 100 100V41.71C99.9998 40.3778 99.7335 39.0591 99.2166 37.8312C98.6997 36.6034 97.9427 35.4912 96.99 34.56L74.79 12.85C72.9218 11.0233 70.4129 10.0003 67.8 10H30C27.3478 10 24.8043 11.0536 22.9289 12.9289C21.0536 14.8043 20 17.3478 20 20V20Z" stroke="#62AACC" stroke-width="2" stroke-linecap="round" stroke-linejoin="round"/>
<path d="M70 10V30C70 32.6522 71.0536 35.1957 72.9289 37.0711C74.8043 38.9464 77.3478 40 80 40H100" stroke="#62AACC" stroke-width="2" stroke-linejoin="round"/>
</svg>
