<svg width="265" height="89" viewBox="0 0 265 89" fill="none" xmlns="http://www.w3.org/2000/svg">
<path d="M108.463 73.069C108.419 73.0397 108.388 73.0083 108.369 72.9759C108.351 72.943 108.342 72.8897 108.342 72.8164C108.342 72.6848 108.366 72.5472 108.413 72.4049C108.46 72.2625 108.521 72.1905 108.594 72.1905C108.624 72.1905 108.646 72.1984 108.66 72.213C108.675 72.2275 108.686 72.2354 108.693 72.2354C109.096 72.5493 109.605 72.7065 110.219 72.7065C110.593 72.7065 110.898 72.5952 111.136 72.3725C111.374 72.1487 111.493 71.8471 111.493 71.4664C111.493 71.1224 111.398 70.854 111.208 70.6591C111.017 70.4657 110.735 70.2738 110.362 70.0829C109.945 69.878 109.614 69.6918 109.369 69.5229C109.123 69.355 108.918 69.1376 108.753 68.8699C108.589 68.6028 108.507 68.2675 108.507 67.8656C108.507 67.1989 108.717 66.6735 109.138 66.2898C109.559 65.9055 110.106 65.7136 110.78 65.7136C111.299 65.7136 111.746 65.8234 112.119 66.043C112.171 66.0724 112.196 66.1158 112.196 66.1742C112.196 66.2699 112.161 66.4054 112.092 66.5804C112.022 66.7562 111.954 66.8445 111.889 66.8445C111.867 66.8445 111.819 66.8261 111.746 66.7891C111.467 66.6501 111.127 66.5804 110.724 66.5804C110.373 66.5804 110.077 66.6812 109.835 66.883C109.593 67.0843 109.473 67.375 109.473 67.7557C109.473 68.0851 109.573 68.3502 109.775 68.5515C109.976 68.7528 110.303 68.9702 110.758 69.2049C111.131 69.3953 111.433 69.5721 111.663 69.7372C111.894 69.902 112.086 70.1179 112.24 70.3845C112.394 70.6517 112.47 70.9875 112.47 71.3893C112.47 72.078 112.258 72.6133 111.834 72.9981C111.409 73.3819 110.86 73.5742 110.187 73.5742C109.506 73.5737 108.931 73.4058 108.463 73.069Z" fill="#5C5758"/>
<path d="M126.883 72.6075C126.414 71.9561 126.18 70.9719 126.18 69.6543C126.18 67.0639 127.095 65.7685 128.925 65.7685C130.763 65.7685 131.681 67.0637 131.681 69.6543C131.681 70.9719 131.447 71.9561 130.979 72.6075C130.51 73.2599 129.826 73.5848 128.925 73.5848C128.032 73.5848 127.351 73.2599 126.883 72.6075ZM130.671 69.6543C130.671 67.6204 130.093 66.6029 128.936 66.6029C128.358 66.6029 127.924 66.8496 127.635 67.3438C127.346 67.8378 127.201 68.6082 127.201 69.6543C127.201 71.719 127.78 72.7506 128.936 72.7506C130.093 72.7506 130.671 71.719 130.671 69.6543Z" fill="#5C5758"/>
<path d="M143.769 73.4428C143.721 73.391 143.698 73.3074 143.698 73.1897V66.0538C143.698 65.8933 143.837 65.8127 144.116 65.8127H144.27C144.547 65.8127 144.687 65.8933 144.687 66.0538V72.6848H146.971C147.051 72.6848 147.107 72.7108 147.141 72.7616C147.174 72.8129 147.19 72.8971 147.19 73.0142V73.1897C147.19 73.3074 147.174 73.391 147.141 73.4428C147.107 73.4936 147.051 73.5186 146.971 73.5186H143.995C143.892 73.5186 143.817 73.4936 143.769 73.4428Z" fill="#5C5758"/>
<path d="M161.653 73.0033C161.225 72.6152 161.011 72.0732 161.011 71.3787V66.0538C161.011 65.8933 161.15 65.8127 161.428 65.8127H161.582C161.86 65.8127 161.999 65.8933 161.999 66.0538V71.4111C161.999 71.8068 162.137 72.1283 162.411 72.3774C162.685 72.6266 163.038 72.7506 163.471 72.7506C163.895 72.7506 164.245 72.6246 164.519 72.3725C164.794 72.1194 164.931 71.7994 164.931 71.4111V66.0538C164.931 65.8933 165.07 65.8127 165.348 65.8127H165.502C165.781 65.8127 165.919 65.8933 165.919 66.0538V71.3787C165.919 72.0735 165.707 72.6152 165.283 73.0033C164.858 73.3911 164.254 73.5848 163.471 73.5848C162.687 73.5848 162.082 73.3911 161.653 73.0033Z" fill="#5C5758"/>
<path d="M179.963 73.2992V66.6692H178.382C178.243 66.6692 178.173 66.559 178.173 66.3393V66.1635C178.173 65.9448 178.243 65.8346 178.382 65.8346H182.511C182.591 65.8346 182.647 65.8601 182.681 65.9114C182.714 65.9632 182.73 66.0469 182.73 66.1635V66.3393C182.73 66.4564 182.714 66.5406 182.681 66.5919C182.647 66.6427 182.591 66.6692 182.511 66.6692H180.952V73.2992C180.952 73.4607 180.812 73.5409 180.534 73.5409H180.381C180.102 73.5411 179.963 73.4607 179.963 73.2992Z" fill="#5C5758"/>
<path d="M196.354 73.2992V66.0538C196.354 65.8933 196.493 65.8127 196.771 65.8127H196.936C197.207 65.8127 197.342 65.8933 197.342 66.0538V73.2992C197.342 73.4607 197.207 73.5409 196.936 73.5409H196.771C196.493 73.5411 196.354 73.4607 196.354 73.2992Z" fill="#5C5758"/>
<path d="M214.089 72.6075C213.62 71.9561 213.387 70.9719 213.387 69.6543C213.387 67.0639 214.301 65.7685 216.132 65.7685C217.969 65.7685 218.888 67.0637 218.888 69.6543C218.888 70.9719 218.653 71.9561 218.185 72.6075C217.716 73.2599 217.032 73.5848 216.132 73.5848C215.239 73.5848 214.558 73.2599 214.089 72.6075ZM217.877 69.6543C217.877 67.6204 217.299 66.6029 216.142 66.6029C215.564 66.6029 215.13 66.8496 214.841 67.3438C214.552 67.8378 214.408 68.6082 214.408 69.6543C214.408 71.719 214.986 72.7506 216.142 72.7506C217.299 72.7506 217.877 71.719 217.877 69.6543Z" fill="#5C5758"/>
<path d="M231.653 73.2992V66.0538C231.653 65.8933 231.792 65.8126 232.071 65.8126H232.334C232.444 65.8126 232.532 65.829 232.597 65.8619C232.663 65.8948 232.719 65.9512 232.761 66.0318L235.31 70.939C235.412 71.1293 235.507 71.3595 235.595 71.6302L235.65 71.6088C235.591 71.3521 235.562 71.1115 235.562 70.8841V66.0535C235.562 65.893 235.701 65.8124 235.979 65.8124H236.111C236.389 65.8124 236.528 65.893 236.528 66.0535V73.2989C236.528 73.4604 236.389 73.5405 236.111 73.5405H235.88C235.675 73.5405 235.544 73.4857 235.485 73.376L232.872 68.3037C232.77 68.1134 232.674 67.8832 232.587 67.6125L232.532 67.6344C232.59 67.8906 232.619 68.1317 232.619 68.3586V73.2987C232.619 73.4602 232.48 73.5403 232.202 73.5403H232.071C231.792 73.5411 231.653 73.4607 231.653 73.2992Z" fill="#5C5758"/>
<path d="M248.269 73.069C248.225 73.0397 248.194 73.0083 248.175 72.9759C248.158 72.943 248.148 72.8897 248.148 72.8164C248.148 72.6848 248.172 72.5472 248.219 72.4049C248.267 72.2622 248.327 72.1905 248.401 72.1905C248.43 72.1905 248.452 72.1984 248.466 72.213C248.48 72.2275 248.492 72.2354 248.5 72.2354C248.902 72.5493 249.41 72.7065 250.026 72.7065C250.4 72.7065 250.705 72.5952 250.943 72.3725C251.18 72.1487 251.3 71.8471 251.3 71.4664C251.3 71.1224 251.204 70.854 251.014 70.6591C250.824 70.4657 250.542 70.2738 250.169 70.0829C249.751 69.878 249.42 69.6918 249.175 69.5229C248.929 69.355 248.724 69.1376 248.56 68.8699C248.395 68.6028 248.313 68.2675 248.313 67.8656C248.313 67.1989 248.523 66.6735 248.944 66.2898C249.365 65.9055 249.912 65.7136 250.586 65.7136C251.105 65.7136 251.553 65.8234 251.925 66.043C251.977 66.0724 252.002 66.1158 252.002 66.1742C252.002 66.2699 251.968 66.4054 251.898 66.5804C251.828 66.7562 251.761 66.8445 251.695 66.8445C251.673 66.8445 251.625 66.8261 251.553 66.7891C251.273 66.6501 250.934 66.5804 250.531 66.5804C250.179 66.5804 249.883 66.6812 249.641 66.883C249.4 67.0843 249.279 67.375 249.279 67.7557C249.279 68.0851 249.38 68.3502 249.582 68.5515C249.782 68.7528 250.11 68.9702 250.564 69.2049C250.937 69.3953 251.239 69.5721 251.47 69.7372C251.701 69.9023 251.893 70.1179 252.046 70.3845C252.201 70.6517 252.277 70.9875 252.277 71.3893C252.277 72.078 252.065 72.6133 251.641 72.9981C251.216 73.3819 250.667 73.5742 249.993 73.5742C249.312 73.5737 248.737 73.4058 248.269 73.069Z" fill="#5C5758"/>
<path d="M238.737 54.4546V30.1717H244.297L261.107 46.9158V30.1717H264.012V54.4546H261.107L241.64 35.1133V54.4546H238.737V54.4546ZM201.359 54.4546L214.706 29.6764L228.614 54.4546H222.184L218.785 47.965H207.601L204.203 54.4546H201.359V54.4546ZM208.405 46.482H217.922L213.164 37.5863L208.405 46.482ZM181.616 54.4546H170.059V30.1717H179.7C181.739 30.1717 183.467 30.2967 184.767 30.4172C186.125 30.5424 187.176 30.7882 187.858 31.1002C189.217 31.5955 190.203 32.3324 191.007 33.2606C191.75 34.1894 192.119 35.2381 192.119 36.3536C192.119 37.7108 191.625 38.8223 190.697 39.7508C189.709 40.6122 188.351 41.2327 186.493 41.6032C188.659 42.0362 190.39 42.7772 191.503 43.8886C192.678 44.9384 193.296 46.2953 193.296 47.9653C193.296 50.1295 192.306 51.7985 190.39 52.8482C188.476 53.8969 185.571 54.4546 181.616 54.4546ZM176.115 31.7823V40.9834H179.142C181.677 40.9834 183.533 40.6122 184.642 39.872C185.818 39.1346 186.372 37.957 186.372 36.3534C186.372 34.7423 185.754 33.6309 184.458 32.8901C183.22 32.153 181.246 31.7823 178.588 31.7823H176.115ZM176.115 42.4656V52.8479H179.947C182.543 52.8479 184.458 52.4772 185.632 51.7326C186.806 50.9917 187.423 49.8215 187.423 48.2143C187.423 46.2953 186.684 44.8174 185.323 43.8884C183.963 42.9637 181.863 42.4656 179.019 42.4656H176.115ZM136.614 54.4546V30.1717H147.244C151.323 30.1717 154.352 30.7882 156.449 31.9657C158.49 33.1986 159.542 34.9299 159.542 37.2783C159.542 39.0095 158.8 40.367 157.317 41.42C155.897 42.4067 153.793 42.9637 151.075 43.0892L159.666 54.4546H152.928L144.153 42.1612C147.615 41.9742 150.024 41.4789 151.446 40.7375C152.866 39.934 153.545 38.7638 153.545 37.0943C153.545 35.3001 152.867 33.9432 151.446 33.0736C150.024 32.2109 147.923 31.7823 145.141 31.7823H142.671V54.4544H136.614V54.4546ZM108.344 55.0127C106.057 55.0127 103.894 54.7006 101.917 54.1431C99.9372 53.5272 98.1449 52.6022 96.539 51.428C94.934 50.2504 93.7574 48.8928 92.954 47.3491C92.0898 45.8036 91.7192 44.1346 91.7192 42.3406C91.7192 40.5504 92.1503 38.8853 92.954 37.3403C93.7574 35.7953 94.9947 34.4382 96.6018 33.2604C98.1449 32.153 100.001 31.2245 101.978 30.6047C104.017 29.9882 106.117 29.6762 108.343 29.6762C110.074 29.6762 111.805 29.8635 113.474 30.2965C115.141 30.667 116.748 31.2834 118.171 32.0872C120.391 33.2606 122.062 34.7426 123.237 36.5368C124.41 38.2647 124.965 40.2419 124.965 42.3406C124.965 44.1346 124.534 45.8038 123.73 47.3491C122.867 48.893 121.691 50.2504 120.088 51.428C118.478 52.6022 116.686 53.5272 114.707 54.1431C112.669 54.7009 110.569 55.0127 108.344 55.0127ZM120.558 42.3406C120.558 39.0685 119.633 36.3536 117.717 34.3137C115.86 32.2742 113.39 31.2247 110.424 31.2247C107.396 31.2247 104.986 32.2742 103.069 34.3137C101.153 36.3536 100.225 39.0685 100.225 42.3406C100.225 45.6796 101.153 48.3355 103.069 50.3747C104.986 52.4772 107.396 53.4649 110.424 53.4649C113.39 53.4649 115.801 52.4772 117.717 50.3747C119.633 48.3352 120.558 45.6796 120.558 42.3406Z" fill="#2AA0C8"/>
<path d="M242.841 20.8141V21.3902H236.078V13.4732H238.102V20.8141H242.841ZM211.828 21.39L216.28 13.3033L220.963 21.39H218.823L217.668 19.3107H213.909L212.752 21.39H211.828ZM214.198 18.7892H217.378L215.759 15.9028L214.198 18.7892ZM192.15 21.39H188.28V13.4732H191.516C192.21 13.4732 192.732 13.535 193.194 13.535C193.654 13.5901 194.001 13.6483 194.232 13.7651C194.694 13.9364 195.042 14.167 195.27 14.5133C195.563 14.8052 195.678 15.1514 195.678 15.4979C195.678 15.9582 195.503 16.3047 195.156 16.5964C194.87 16.8849 194.406 17.1143 193.771 17.2279C194.52 17.3447 195.1 17.5813 195.446 17.9829C195.852 18.3294 196.024 18.7346 196.024 19.311C196.024 20.004 195.736 20.5258 195.1 20.8723C194.464 21.2185 193.478 21.39 192.15 21.39ZM190.3 13.9953V16.998H191.285C192.15 16.998 192.786 16.8847 193.194 16.651C193.539 16.4216 193.771 16.0197 193.771 15.4977C193.771 14.9764 193.539 14.5732 193.078 14.3415C192.671 14.1114 192.035 13.9953 191.11 13.9953H190.3ZM190.3 17.5195V20.9271H191.573C192.438 20.9271 193.078 20.7585 193.478 20.5252C193.886 20.2951 194.059 19.8902 194.059 19.3689C194.059 18.7343 193.828 18.2743 193.364 17.9824C192.902 17.6361 192.209 17.5193 191.285 17.5193H190.3V17.5195ZM166.646 21.6204C165.839 21.6204 165.145 21.5071 164.451 21.3356C163.814 21.1055 163.179 20.8141 162.659 20.4127C162.138 20.0662 161.735 19.5993 161.444 19.0808C161.213 18.6177 161.041 18.041 161.041 17.4613C161.041 16.8849 161.213 16.3047 161.444 15.8449C161.735 15.3229 162.138 14.8595 162.716 14.5133C163.238 14.1116 163.814 13.8205 164.508 13.5904C165.201 13.4189 165.894 13.3033 166.645 13.3033C167.223 13.3033 167.803 13.36 168.38 13.535C168.901 13.6483 169.422 13.8205 169.941 14.1116C170.693 14.5133 171.214 14.9766 171.617 15.5566C172.022 16.133 172.196 16.7678 172.196 17.4613C172.196 18.041 172.08 18.6174 171.792 19.0808C171.502 19.5993 171.097 20.0662 170.576 20.4127C170.058 20.8141 169.422 21.1055 168.785 21.3356C168.092 21.5068 167.397 21.6204 166.646 21.6204ZM170.059 17.4613C170.059 16.3662 169.712 15.4979 169.076 14.8049C168.437 14.167 167.63 13.8205 166.646 13.8205C165.605 13.8205 164.798 14.167 164.161 14.8049C163.525 15.4977 163.239 16.3662 163.239 17.4613C163.239 18.5595 163.525 19.4271 164.161 20.1206C164.798 20.7587 165.605 21.1052 166.646 21.1052C167.63 21.1052 168.437 20.7587 169.076 20.1206C169.712 19.4271 170.059 18.5595 170.059 17.4613ZM145.391 20.8141V21.3902H138.627V13.4732H140.651V20.8141H145.391ZM122.267 17.6943V20.4125C121.571 20.8138 120.938 21.1052 120.242 21.2736C119.549 21.5068 118.856 21.6201 118.105 21.6201C116.485 21.6201 115.156 21.2185 114.116 20.4666C113.131 19.7151 112.614 18.6761 112.614 17.4611C112.614 16.2491 113.131 15.2665 114.175 14.513C115.156 13.7047 116.428 13.3031 117.931 13.3031C118.857 13.3031 119.663 13.4186 120.301 13.7047C120.994 13.9953 121.516 14.3982 121.978 14.9197L121.341 15.2667C120.994 14.8049 120.59 14.4587 120.07 14.1668C119.549 13.9364 118.971 13.8203 118.334 13.8203C117.239 13.8203 116.372 14.1668 115.734 14.8046C115.099 15.4974 114.809 16.3659 114.809 17.5193C114.809 18.6172 115.099 19.4268 115.678 20.0657C116.312 20.6416 117.178 20.9886 118.277 20.9886C118.681 20.9886 119.086 20.9269 119.431 20.8136C119.837 20.7585 120.127 20.5834 120.416 20.4122V17.6943H122.267Z" fill="#999999"/>
<path fill-rule="evenodd" clip-rule="evenodd" d="M42.6685 0C66.2338 0 85.3373 19.0987 85.3373 42.6582C85.3373 66.2181 66.2338 85.3165 42.6685 85.3165C19.1035 85.3165 0 66.2181 0 42.6582C0 19.0987 19.1033 0 42.6685 0Z" fill="#C2E013"/>
<path d="M41.4235 0.125298L38.7282 86.2858C32.152 85.4959 26.0533 83.2809 20.7471 79.9519L23.0438 5.26924C28.5886 2.26478 34.7667 0.43965 41.4235 0.125298Z" fill="#2BA0C8"/>
<path d="M102.731 88.9007L27.2427 43.2007L95.8403 5.10977L60.986 43.5202L102.731 88.9007Z" fill="#1A8CBD"/>
<path d="M102.731 88.9007L60.9863 43.5202L95.8407 5.10977L63.917 43.5202L102.731 88.9007Z" fill="#2387B6"/>
</svg>
