<svg width="334" height="685" viewBox="0 0 334 685" fill="none" xmlns="http://www.w3.org/2000/svg">
<path d="M236.889 22.6315V21.9555C236.889 18.9688 239.313 16.5476 242.303 16.5476H90.6968C93.6871 16.5476 96.1113 18.9688 96.1113 21.9555V22.6315C96.1113 30.8786 102.744 37.5033 111.001 37.5033H221.999C230.256 37.5033 236.889 30.8786 236.889 22.6315Z" fill="#343B4B"/>
<path d="M292 10H41C24.9837 10 12 22.9837 12 39V646C12 662.016 24.9837 675 41 675H292C308.016 675 321 662.016 321 646V39C321 22.9837 308.016 10 292 10Z" stroke="#343B4B" stroke-width="14"/>
<path d="M292 1.5H41C20.2893 1.5 3.5 18.2893 3.5 39V646C3.5 666.711 20.2893 683.5 41 683.5H292C312.711 683.5 329.5 666.711 329.5 646V39C329.5 18.2893 312.711 1.5 292 1.5Z" stroke="#343B4B" stroke-width="3"/>
<path opacity="0.4" d="M333 198.74V135.199C333 134.079 332.09 133.17 330.97 133.17V200.769C332.09 200.769 333 199.861 333 198.74Z" fill="white"/>
<path opacity="0.4" d="M2.03044 185.289V143.377C0.909744 143.377 0 144.286 0 145.407V183.26C0 184.38 0.909744 185.289 2.03044 185.289Z" fill="white"/>
<path opacity="0.4" d="M2.03044 132.562V90.6504C0.909744 90.6504 0 91.5589 0 92.6796V130.533C0 131.653 0.909744 132.562 2.03044 132.562Z" fill="white"/>
<path opacity="0.4" d="M2.03044 70.3707V48.739C0.909744 48.739 0 49.6475 0 50.7682V68.3415C0 69.4622 0.909744 70.3707 2.03044 70.3707Z" fill="white"/>
<path opacity="0.6" fill-rule="evenodd" clip-rule="evenodd" d="M122 659C122 657.895 122.752 657 123.679 657H210.321C211.248 657 212 657.895 212 659C212 660.105 211.248 661 210.321 661H123.679C122.752 661 122 660.105 122 659Z" fill="#5C5C5C"/>
<path d="M201.694 21.6316C201.694 24.245 199.573 26.3635 196.957 26.3635C194.34 26.3635 192.219 24.245 192.219 21.6316C192.219 19.0182 194.34 16.8997 196.957 16.8997C199.573 16.8997 201.694 19.0182 201.694 21.6316Z" fill="#596582"/>
<path d="M151.272 19.6036C150.15 19.6036 149.241 20.5116 149.241 21.6316C149.241 22.7516 150.15 23.6596 151.272 23.6596H181.052C182.173 23.6596 183.082 22.7516 183.082 21.6316C183.082 20.5116 182.173 19.6036 181.052 19.6036H151.272Z" fill="#596582"/>
</svg>
