<svg width="870" height="596" viewBox="0 0 870 596" fill="none" xmlns="http://www.w3.org/2000/svg">
<path d="M859.5 137.874L870 132.465L682.272 24.0814L671.775 29.4873L859.5 137.874Z" fill="#BCBBBB"/>
<path d="M859.499 167.64L869.999 162.231V132.465L859.499 137.874V167.64Z" fill="#828484"/>
<path d="M671.775 29.4877L859.5 137.874V167.64L671.775 59.257V29.4877Z" fill="#52554D"/>
<path d="M517.934 116.011C517.934 128.039 522.107 136.686 529.078 141.372C538.408 147.64 558.421 158.48 558.421 158.48C586.539 142.248 641.762 85.8643 641.762 57.7503C641.762 45.515 615.439 36.2718 608.249 31.6451C598.913 25.633 584.728 26.5474 568.846 35.7178C540.728 51.9462 517.934 87.8971 517.934 116.011Z" fill="url(#paint0_linear_594_60)"/>
<path d="M545.472 132.059C545.472 160.177 568.266 169.811 596.38 153.583C624.498 137.351 647.289 101.4 647.289 73.286C647.289 45.1686 624.498 35.5305 596.38 51.7623C568.266 67.9942 545.472 103.942 545.472 132.059Z" fill="#3C414E"/>
<path d="M550.448 134.373C550.448 146.397 554.618 155.041 561.593 159.73C570.922 165.998 590.936 176.838 590.936 176.838C619.053 160.606 674.277 104.222 674.277 76.1048C674.277 63.8729 647.954 54.6299 640.764 50.0031C631.427 43.9911 617.242 44.9052 601.357 54.0757C573.243 70.3041 550.448 106.255 550.448 134.373Z" fill="url(#paint1_linear_594_60)"/>
<path d="M577.985 150.418C577.985 178.536 600.776 188.17 628.894 171.938C657.011 155.71 679.802 119.759 679.802 91.6416C679.802 63.5276 657.011 53.8931 628.894 70.1214C600.776 86.3533 577.985 122.301 577.985 150.418Z" fill="#3C414E"/>
<path d="M593.024 139.018C593.024 157.678 608.152 164.071 626.811 153.3C645.471 142.53 660.598 118.672 660.598 100.009C660.598 81.3495 645.471 74.9566 626.811 85.7271C608.152 96.5009 593.024 120.359 593.024 139.018Z" fill="url(#paint2_linear_594_60)"/>
<path d="M595.107 140.534C595.107 159.194 610.235 165.59 628.894 154.816C647.554 144.046 662.681 120.188 662.681 101.529C662.681 82.8656 647.554 76.4726 628.894 87.2431C610.235 98.017 595.107 121.875 595.107 140.534Z" fill="#D9DADB"/>
<path d="M659.202 103.53C659.202 120.285 645.633 141.677 628.879 151.357C612.183 160.984 598.559 155.242 598.559 138.546C598.559 136.69 598.732 134.778 599.081 132.863C601.575 117.269 614.039 99.3536 628.879 90.7165C630.098 90.0204 631.317 89.3833 632.473 88.8639C647.549 81.9064 659.202 87.991 659.202 103.53Z" fill="url(#paint3_linear_594_60)"/>
<path d="M644.478 101.788V102.02C644.478 114.72 634.217 130.893 621.521 138.196C619.201 139.589 616.939 140.517 614.795 141.095C607.72 143.01 602.096 140.808 599.838 135.125C599.488 134.429 599.256 133.674 599.083 132.863C599.429 130.602 600.011 128.285 600.763 125.965C604.707 113.847 613.75 101.383 624.593 93.5564C625.981 92.5139 627.432 91.5857 628.88 90.7165C629.926 90.1381 630.909 89.6154 631.896 89.1513L632.475 88.8638C639.55 88.5729 644.36 93.21 644.478 101.788Z" fill="#E6E8E7"/>
<path d="M642.388 98.6014C642.388 111.006 626.676 133.673 614.212 141.039L614.038 141.153C614.038 141.153 613.865 141.094 613.516 140.98C612.937 140.866 612.414 140.748 611.891 140.457L611.254 140.225C608.532 139.242 604.068 137.503 599.836 135.124C599.486 134.428 599.254 133.673 599.081 132.863C599.427 130.601 600.009 128.284 600.761 125.964C604.705 113.846 613.748 101.382 624.591 93.5556C625.979 92.5132 627.431 91.585 628.878 90.7158C629.924 90.1374 630.908 89.6146 631.895 89.1506C635.894 92.0493 639.257 95.353 641.055 97.1504L641.114 97.2092C641.924 98.0785 642.388 98.6014 642.388 98.6014Z" fill="url(#paint4_linear_594_60)"/>
<path d="M645.295 106.942C645.295 117.871 636.443 131.828 625.513 138.145C614.618 144.423 605.731 140.68 605.731 129.785C605.731 128.576 605.842 127.326 606.071 126.079C607.695 115.904 615.83 104.216 625.513 98.578C626.306 98.1278 627.103 97.7088 627.858 97.3695C637.693 92.8293 645.295 96.8014 645.295 106.942Z" fill="#DCDDDD"/>
<path d="M635.901 113.47C635.901 118.796 631.59 125.598 626.26 128.676C620.954 131.738 616.622 129.913 616.622 124.604C616.622 124.015 616.677 123.405 616.788 122.796C617.581 117.84 621.543 112.143 626.26 109.397C626.648 109.179 627.036 108.974 627.403 108.808C632.196 106.595 635.901 108.531 635.901 113.47Z" fill="url(#paint5_linear_594_60)"/>
<path d="M627.654 114.758C627.654 116.891 625.926 119.616 623.796 120.849C621.67 122.072 619.935 121.341 619.935 119.215L620 118.491C620.319 116.506 621.905 114.228 623.796 113.126L624.253 112.891C626.172 112.008 627.654 112.78 627.654 114.758Z" fill="#E6E8E7"/>
<path d="M401.017 183.505C401.017 195.529 405.186 204.177 412.158 208.862C421.487 215.131 441.501 225.97 441.501 225.97C469.618 209.742 524.845 153.355 524.845 125.241C524.845 113.005 498.518 103.762 491.329 99.1353C481.992 93.1232 467.807 94.0376 451.925 103.208C423.808 119.44 401.017 155.387 401.017 183.505Z" fill="url(#paint6_linear_594_60)"/>
<path d="M428.554 199.55C428.554 227.668 451.348 237.302 479.466 221.07C507.58 204.842 530.374 168.891 530.374 140.773C530.374 112.659 507.58 103.025 479.466 119.253C451.348 135.485 428.554 171.436 428.554 199.55Z" fill="#3C414E"/>
<path d="M433.534 201.863C433.534 213.891 437.704 222.534 444.675 227.22C454.005 233.488 474.019 244.328 474.019 244.328C502.136 228.096 557.36 171.713 557.36 143.599C557.36 131.367 531.036 122.12 523.847 117.493C514.51 111.481 500.325 112.395 484.443 121.566C456.325 137.794 433.534 173.746 433.534 201.863Z" fill="url(#paint7_linear_594_60)"/>
<path d="M461.069 217.908C461.069 246.026 483.864 255.66 511.978 239.432C540.095 223.2 562.886 187.249 562.886 159.135C562.886 131.018 540.095 121.383 511.978 137.612C483.864 153.843 461.069 189.791 461.069 217.908Z" fill="#3C414E"/>
<path d="M476.104 206.508C476.104 225.167 491.232 231.564 509.891 220.793C528.551 210.019 543.678 186.162 543.678 167.502C543.678 148.839 528.551 142.446 509.891 153.217C491.232 163.991 476.104 187.848 476.104 206.508Z" fill="url(#paint8_linear_594_60)"/>
<path d="M478.19 208.024C478.19 226.684 493.318 233.08 511.977 222.306C530.637 211.536 545.764 187.678 545.764 169.018C545.764 150.359 530.637 143.962 511.977 154.733C493.318 165.507 478.19 189.365 478.19 208.024Z" fill="#D9DADB"/>
<path d="M542.289 171.02C542.289 187.775 528.724 209.167 511.969 218.85C495.273 228.474 481.646 222.732 481.646 206.036C481.646 204.18 481.822 202.268 482.168 200.353C484.662 184.759 497.126 166.847 511.969 158.207C513.185 157.511 514.404 156.873 515.564 156.354C530.635 149.396 542.289 155.481 542.289 171.02Z" fill="url(#paint9_linear_594_60)"/>
<path d="M527.562 169.282V169.514C527.562 182.21 517.301 198.383 504.605 205.691C502.285 207.079 500.023 208.008 497.879 208.589C490.808 210.501 485.183 208.298 482.922 202.615C482.572 201.919 482.34 201.168 482.167 200.354C482.517 198.096 483.095 195.776 483.85 193.455C487.791 181.341 496.833 168.877 507.677 161.047C509.069 160.005 510.516 159.076 511.968 158.207C513.01 157.629 513.997 157.106 514.98 156.642L515.562 156.354C522.634 156.064 527.448 160.701 527.562 169.282Z" fill="#E6E8E7"/>
<path d="M525.476 166.091C525.476 178.496 509.767 201.166 497.303 208.529L497.126 208.643C497.126 208.643 496.953 208.588 496.607 208.47C496.025 208.356 495.506 208.238 494.983 207.947L494.345 207.718C491.62 206.731 487.156 204.993 482.924 202.614C482.574 201.918 482.342 201.166 482.169 200.352C482.519 198.094 483.097 195.774 483.852 193.454C487.793 181.34 496.835 168.876 507.679 161.045C509.071 160.003 510.518 159.075 511.969 158.206C513.012 157.627 513.999 157.104 514.982 156.64C518.982 159.539 522.345 162.846 524.143 164.64L524.201 164.699C525.012 165.568 525.476 166.091 525.476 166.091Z" fill="url(#paint10_linear_594_60)"/>
<path d="M528.376 174.428C528.376 185.361 519.527 199.318 508.594 205.634C497.699 211.913 488.812 208.169 488.812 197.274C488.812 196.066 488.927 194.819 489.152 193.569C490.78 183.394 498.911 171.706 508.594 166.071C509.387 165.618 510.184 165.202 510.939 164.859C520.774 160.322 528.376 164.291 528.376 174.428Z" fill="#DCDDDD"/>
<path d="M518.985 180.964C518.985 186.291 514.674 193.089 509.347 196.168C504.038 199.229 499.706 197.404 499.706 192.095C499.706 191.506 499.761 190.896 499.872 190.29C500.665 185.331 504.627 179.638 509.347 176.891C509.732 176.67 510.12 176.466 510.49 176.299C515.28 174.09 518.985 176.022 518.985 180.964Z" fill="url(#paint11_linear_594_60)"/>
<path d="M510.74 182.252C510.74 184.381 509.015 187.107 506.882 188.336C504.756 189.562 503.021 188.832 503.021 186.709L503.09 185.985C503.405 184.001 504.991 181.718 506.882 180.62L507.339 180.385C509.258 179.498 510.74 180.274 510.74 182.252Z" fill="#E6E8E7"/>
<path d="M693.824 125.13L685.647 129.851V78.0349L693.824 73.3145V125.13Z" fill="#6B4D88"/>
<path d="M600.017 138.338C600.017 154.286 612.945 159.751 628.892 150.546C644.84 141.337 657.768 120.946 657.768 104.998C657.768 89.0504 644.84 83.5855 628.892 92.7906C612.945 101.999 600.017 122.39 600.017 138.338Z" fill="#ABD7B0"/>
<path d="M821.388 119.725L511.975 279.931L404.028 211.083L664.285 60.851L705.112 52.5705L821.388 119.725Z" fill="#818283"/>
<path d="M821.389 119.724L772.233 129.694L664.286 60.8501L705.113 52.5696L821.389 119.724Z" fill="#6D6E70"/>
<path d="M519.583 153.48L645.791 80.6255L718.008 121.667L591.804 194.522L519.583 153.48Z" fill="#A0A09F"/>
<path d="M667.828 128.617C667.828 144.091 648.558 156.634 624.784 156.634C601.013 156.634 581.74 144.091 581.74 128.617C581.74 113.144 601.013 100.597 624.784 100.597C648.558 100.597 667.828 113.144 667.828 128.617Z" fill="#818283"/>
<path d="M821.386 143.471L511.974 322.083V279.93L772.23 129.695L821.386 119.724V143.471Z" fill="#48484A"/>
<path d="M591.804 194.522L718.008 121.668L725.617 136.674L584.195 218.314L591.804 194.522Z" fill="#6D6E70"/>
<path d="M689.733 215.888C689.733 227.912 693.903 236.556 700.878 241.242C710.208 247.514 730.221 258.354 730.221 258.354C758.335 242.122 813.562 185.738 813.562 157.621C813.562 145.389 787.239 136.142 780.049 131.515C770.713 125.507 756.527 126.421 740.642 135.588C712.528 151.82 689.733 187.771 689.733 215.888Z" fill="url(#paint12_linear_594_60)"/>
<path d="M717.275 231.934C717.275 260.048 740.066 269.686 768.184 253.454C796.301 237.222 819.092 201.275 819.092 173.157C819.092 145.04 796.301 135.405 768.184 151.637C740.066 167.869 717.275 203.817 717.275 231.934Z" fill="#3C414E"/>
<path d="M722.252 234.244C722.252 246.272 726.422 254.916 733.396 259.601C742.726 265.873 762.74 276.713 762.74 276.713C790.854 260.481 846.081 204.097 846.081 175.98C846.081 163.748 819.757 154.505 812.568 149.875C803.231 143.866 789.046 144.78 773.16 153.947C745.046 170.179 722.252 206.13 722.252 234.244Z" fill="url(#paint13_linear_594_60)"/>
<path d="M749.791 250.293C749.791 278.407 772.582 288.045 800.7 271.813C828.813 255.581 851.608 219.633 851.608 191.516C851.608 163.398 828.813 153.764 800.7 169.996C772.582 186.224 749.791 222.175 749.791 250.293Z" fill="#3C414E"/>
<path d="M764.827 238.892C764.827 257.551 779.954 263.944 798.614 253.174C817.273 242.403 832.4 218.542 832.4 199.883C832.4 181.223 817.273 174.83 798.614 185.601C779.954 196.371 764.827 220.229 764.827 238.892Z" fill="url(#paint14_linear_594_60)"/>
<path d="M766.911 240.408C766.911 259.067 782.038 265.46 800.698 254.69C819.357 243.92 834.484 220.058 834.484 201.399C834.484 182.739 819.357 176.346 800.698 187.117C782.038 197.887 766.911 221.748 766.911 240.408Z" fill="#D9DADB"/>
<path d="M831.004 203.401C831.004 220.156 817.439 241.551 800.684 251.231C783.988 260.855 770.364 255.116 770.364 238.42C770.364 236.564 770.537 234.649 770.887 232.737C773.381 217.143 785.845 199.228 800.684 190.591C801.903 189.895 803.119 189.257 804.279 188.734C819.354 181.777 831.004 187.865 831.004 203.401Z" fill="url(#paint15_linear_594_60)"/>
<path d="M816.278 201.662V201.894C816.278 214.59 806.017 230.766 793.321 238.07C791.004 239.462 788.743 240.39 786.596 240.969C779.524 242.884 773.9 240.678 771.638 234.998C771.292 234.302 771.06 233.551 770.887 232.737C771.233 230.475 771.811 228.155 772.566 225.838C776.511 213.721 785.553 201.257 796.393 193.43C797.785 192.387 799.236 191.459 800.684 190.59C801.73 190.008 802.713 189.485 803.7 189.025L804.279 188.734C811.354 188.443 816.164 193.08 816.278 201.662Z" fill="#E6E8E7"/>
<path d="M814.193 198.473C814.193 210.881 798.48 233.551 786.016 240.91L785.843 241.028C785.843 241.028 785.67 240.969 785.32 240.855C784.742 240.737 784.219 240.623 783.696 240.332L783.059 240.1C780.333 239.113 775.869 237.374 771.637 234.998C771.291 234.302 771.059 233.551 770.886 232.737C771.232 230.476 771.81 228.155 772.565 225.838C776.51 213.721 785.552 201.257 796.392 193.43C797.784 192.388 799.235 191.46 800.683 190.59C801.729 190.008 802.712 189.486 803.699 189.025C807.699 191.924 811.062 195.227 812.859 197.025L812.918 197.084C813.728 197.953 814.193 198.473 814.193 198.473Z" fill="url(#paint16_linear_594_60)"/>
<path d="M817.097 206.813C817.097 217.742 808.245 231.702 797.312 238.019C786.42 244.298 777.53 240.554 777.53 229.659C777.53 228.447 777.645 227.2 777.873 225.953C779.497 215.775 787.632 204.087 797.312 198.453C798.108 197.999 798.902 197.583 799.66 197.244C809.492 192.704 817.097 196.676 817.097 206.813Z" fill="#DCDDDD"/>
<path d="M807.704 213.344C807.704 218.67 803.389 225.471 798.063 228.55C792.757 231.608 788.425 229.783 788.425 224.478C788.425 223.885 788.48 223.279 788.591 222.67C789.384 217.71 793.346 212.017 798.063 209.271C798.451 209.049 798.839 208.848 799.206 208.682C803.999 206.469 807.704 208.405 807.704 213.344Z" fill="url(#paint17_linear_594_60)"/>
<path d="M799.459 214.632C799.459 216.765 797.73 219.487 795.597 220.72C793.474 221.946 791.739 221.215 791.739 219.089L791.805 218.368C792.124 216.38 793.71 214.102 795.597 213L796.058 212.765C797.976 211.878 799.459 212.654 799.459 214.632Z" fill="#E6E8E7"/>
<path d="M572.821 283.376C572.821 295.404 576.991 304.048 583.962 308.737C593.292 315.005 613.306 325.845 613.306 325.845C641.423 309.613 696.647 253.23 696.647 225.112C696.647 212.88 670.323 203.637 663.134 199.007C653.797 192.998 639.612 193.912 623.73 203.079C595.612 219.311 572.821 255.262 572.821 283.376Z" fill="url(#paint18_linear_594_60)"/>
<path d="M600.358 299.425C600.358 327.542 623.153 337.177 651.267 320.945C679.384 304.716 702.175 268.765 702.175 240.648C702.175 212.534 679.384 202.896 651.267 219.128C623.153 235.356 600.358 271.307 600.358 299.425Z" fill="#3C414E"/>
<path d="M605.335 301.738C605.335 313.762 609.505 322.409 616.479 327.095C625.809 333.363 645.823 344.203 645.823 344.203C673.94 327.971 729.164 271.587 729.164 243.47C729.164 231.238 702.84 221.995 695.651 217.365C686.314 211.356 672.129 212.27 656.243 221.441C628.129 237.669 605.335 273.62 605.335 301.738Z" fill="url(#paint19_linear_594_60)"/>
<path d="M632.874 317.783C632.874 345.9 655.669 355.535 683.783 339.303C711.9 323.074 734.691 287.123 734.691 259.006C734.691 230.892 711.9 221.257 683.783 237.486C655.669 253.718 632.874 289.665 632.874 317.783Z" fill="#3C414E"/>
<path d="M647.91 306.381C647.91 325.04 663.037 331.434 681.697 320.663C700.356 309.893 715.483 286.031 715.483 267.372C715.483 248.712 700.356 242.319 681.697 253.09C663.037 263.86 647.91 287.721 647.91 306.381Z" fill="url(#paint20_linear_594_60)"/>
<path d="M649.996 307.898C649.996 326.557 665.123 332.95 683.783 322.18C702.442 311.409 717.569 287.548 717.569 268.889C717.569 250.229 702.442 243.836 683.783 254.606C665.123 265.377 649.996 289.238 649.996 307.898Z" fill="#D9DADB"/>
<path d="M714.092 270.895C714.092 287.646 700.523 309.041 683.768 318.721C667.072 328.345 653.448 322.607 653.448 305.911C653.448 304.054 653.621 302.143 653.971 300.228C656.465 284.633 668.929 266.718 683.768 258.081C684.987 257.385 686.206 256.748 687.363 256.225C702.438 249.267 714.092 255.355 714.092 270.895Z" fill="url(#paint21_linear_594_60)"/>
<path d="M699.368 269.153V269.385C699.368 282.081 689.106 298.257 676.41 305.561C674.09 306.953 671.829 307.881 669.685 308.459C662.61 310.375 656.989 308.172 654.728 302.489C654.378 301.793 654.146 301.041 653.973 300.228C654.319 297.966 654.901 295.649 655.656 293.329C659.597 281.211 668.639 268.747 679.482 260.921C680.875 259.878 682.322 258.95 683.77 258.081C684.816 257.499 685.799 256.979 686.786 256.515L687.365 256.225C694.44 255.937 699.25 260.574 699.368 269.153Z" fill="#E6E8E7"/>
<path d="M697.278 265.967C697.278 278.372 681.565 301.042 669.101 308.404L668.928 308.519C668.928 308.519 668.755 308.46 668.405 308.345C667.827 308.228 667.304 308.113 666.784 307.823L666.147 307.591C663.422 306.607 658.958 304.865 654.726 302.489C654.376 301.793 654.144 301.042 653.971 300.228C654.317 297.966 654.899 295.649 655.654 293.329C659.595 281.212 668.637 268.748 679.48 260.921C680.873 259.878 682.32 258.95 683.768 258.081C684.814 257.499 685.797 256.98 686.784 256.516C690.784 259.414 694.147 262.718 695.944 264.516L696.003 264.574C696.814 265.444 697.278 265.967 697.278 265.967Z" fill="url(#paint22_linear_594_60)"/>
<path d="M700.18 274.302C700.18 285.236 691.328 299.192 680.399 305.509C669.504 311.788 660.617 308.044 660.617 297.149C660.617 295.94 660.728 294.69 660.957 293.443C662.584 283.269 670.716 271.58 680.399 265.942C681.192 265.489 681.988 265.073 682.743 264.734C692.579 260.194 700.18 264.166 700.18 274.302Z" fill="#DCDDDD"/>
<path d="M690.79 280.836C690.79 286.162 686.478 292.964 681.152 296.042C675.843 299.1 671.511 297.275 671.511 291.97C671.511 291.381 671.566 290.771 671.677 290.162C672.47 285.206 676.432 279.509 681.152 276.763C681.537 276.541 681.924 276.34 682.292 276.174C687.085 273.961 690.79 275.897 690.79 280.836Z" fill="url(#paint23_linear_594_60)"/>
<path d="M682.542 282.122C682.542 284.255 680.814 286.977 678.684 288.21C676.557 289.436 674.822 288.705 674.822 286.579L674.888 285.859C675.207 283.871 676.793 281.592 678.684 280.491L679.141 280.255C681.059 279.369 682.542 280.145 682.542 282.122Z" fill="#E6E8E7"/>
<path d="M660.794 234.94C660.677 237.551 642.183 256.914 625.661 286.191C618.471 299.06 611.631 313.786 606.876 329.903L561.945 301.322C563.455 285.204 568.789 270.247 575.628 257.26C591.167 227.286 614.471 207.519 615.863 206.359L660.794 234.94Z" fill="#DB3538"/>
<path d="M660.793 234.939C660.675 237.551 642.182 256.913 625.659 286.191L575.627 257.26C591.166 227.286 614.47 207.518 615.862 206.358L660.793 234.939Z" fill="#F03F46"/>
<path d="M612.62 327.839L606.854 329.903C611.789 276.481 658.808 236.599 660.806 234.93L663.494 238.732C663.029 239.12 617.222 278.039 612.62 327.839Z" fill="#B12C22"/>
<path d="M519.582 153.481L591.803 194.522L584.194 218.314L511.974 177.269L519.582 153.481Z" fill="#48484A"/>
<path d="M519.879 142.321L529.406 189.724V240.692L545.499 231.404V259.666L529.406 268.955L524.966 271.517L510.352 279.954V147.82L519.879 142.321Z" fill="#BDC0C2"/>
<path d="M601.595 124.243V136.562C601.595 144.898 611.977 151.654 624.784 151.654C637.594 151.654 647.977 144.898 647.977 136.562V123.492L601.595 124.243Z" fill="url(#paint24_linear_594_60)"/>
<path d="M581.74 112.565V118.048C581.74 133.521 601.013 146.064 624.784 146.064C648.558 146.064 667.828 133.521 667.828 118.048V111.17L581.74 112.565Z" fill="url(#paint25_linear_594_60)"/>
<path d="M667.828 112.565C667.828 128.042 648.558 140.585 624.784 140.585C601.013 140.585 581.74 128.042 581.74 112.565C581.74 97.0917 601.013 84.5482 624.784 84.5482C648.558 84.5482 667.828 97.0917 667.828 112.565Z" fill="#BAB9B8"/>
<path d="M233.818 102.792V253.693C233.818 258.001 239.186 261.495 245.807 261.495C252.427 261.495 257.795 258.001 257.795 253.693V102.404L233.818 102.792Z" fill="url(#paint26_linear_594_60)"/>
<path d="M257.797 102.793C257.797 107.101 252.429 110.596 245.809 110.596C239.188 110.596 233.82 107.101 233.82 102.793C233.82 98.4849 239.188 94.9907 245.809 94.9907C252.429 94.9907 257.797 98.4849 257.797 102.793Z" fill="#E4F4F1"/>
<path d="M265.554 37.1596C266.305 45.6825 259.639 50.3821 259.639 50.3821L256.449 52.9897C253.668 55.1923 252.044 58.6105 252.044 62.1499V100.875C251.407 102.731 248.855 104.064 245.784 104.064C242.885 104.064 240.45 102.849 239.696 101.107V59.0192C239.696 52.8132 242.479 47.0158 247.233 43.1336L260.453 31.1892C260.453 31.1892 264.972 30.0879 265.554 37.1596Z" fill="#B9C7C4"/>
<path d="M242.233 103.097V61.0061C242.233 54.8036 245.016 49.0062 249.769 45.124L262.988 33.1796C262.988 33.1796 263.646 33.0272 264.494 33.2176C262.974 30.5787 260.453 31.1883 260.453 31.1883L247.233 43.1326C242.479 47.0148 239.696 52.8122 239.696 59.0182V101.106C240.129 102.103 241.153 102.897 242.464 103.416L242.233 103.097Z" fill="#E0E4E8"/>
<path d="M263.478 45.9688L256.41 52.355C251.658 56.2407 248.874 62.0379 248.874 68.2404V103.502C250.439 102.952 251.645 102.041 252.043 100.874V62.1488C252.043 58.6094 253.667 55.1912 256.448 52.9886L259.638 50.3809C259.638 50.3809 261.76 48.8224 263.478 45.9688Z" fill="#A4A7A8"/>
<path d="M119.148 302.447V308.421C119.148 315.022 127.369 320.372 137.509 320.372C147.649 320.372 155.869 315.022 155.869 308.421V301.848L119.148 302.447Z" fill="url(#paint27_linear_594_60)"/>
<path d="M117.091 292.99V299.639C117.091 306.981 126.234 312.931 137.513 312.931C148.791 312.931 157.935 306.981 157.935 299.639V292.328L117.091 292.99Z" fill="url(#paint28_linear_594_60)"/>
<path d="M157.933 292.993C157.933 300.335 148.789 306.285 137.511 306.285C126.232 306.285 117.089 300.335 117.089 292.993C117.089 285.651 126.232 279.698 137.511 279.698C148.789 279.698 157.933 285.651 157.933 292.993Z" fill="#BFCDC9"/>
<path d="M119.148 274.15V290.652C119.148 297.253 127.369 302.604 137.509 302.604C147.649 302.604 155.869 297.253 155.869 290.652V273.551L119.148 274.15Z" fill="url(#paint29_linear_594_60)"/>
<path d="M117.091 262.375V269.02C117.091 276.362 126.234 282.312 137.513 282.312C148.791 282.312 157.935 276.362 157.935 269.02V261.71L117.091 262.375Z" fill="url(#paint30_linear_594_60)"/>
<path d="M157.933 262.375C157.933 269.717 148.789 275.667 137.511 275.667C126.232 275.667 117.089 269.717 117.089 262.375C117.089 255.034 126.232 249.08 137.511 249.08C148.789 249.08 157.933 255.034 157.933 262.375Z" fill="#BFCDC9"/>
<path d="M119.148 254.978V260.956C119.148 267.557 127.369 272.907 137.509 272.907C147.649 272.907 155.869 267.557 155.869 260.956V254.383L119.148 254.978Z" fill="url(#paint31_linear_594_60)"/>
<path d="M155.871 254.98C155.871 261.578 147.651 266.928 137.511 266.928C127.372 266.928 107.694 263.115 107.694 256.514C107.694 249.914 127.372 243.029 137.511 243.029C147.651 243.029 155.871 248.38 155.871 254.98Z" fill="#E4F4F1"/>
<path d="M51.832 455.99C51.832 472.873 65.5184 478.656 82.4 468.914C99.2815 459.169 112.967 429.323 112.967 412.444C112.967 395.561 99.2815 398.034 82.4 407.779C87.4635 404.856 51.832 466.279 51.832 455.99Z" fill="#ABD7B0"/>
<path d="M171.496 383.27C166.451 354.748 155.031 340.254 137.581 340.14C136.595 340.14 135.552 340.195 134.508 340.313C132.711 337.182 114.201 341.175 111.598 342.893C110.294 343.752 88.3987 372.067 50.8601 438.345L16.5273 419.204C23.1939 384.129 68.5911 316.31 109.753 316.31H110.042C114.739 316.31 119.957 317.179 125.058 319.617C131.03 322.457 158.22 334.342 163.264 342.574L163.322 342.63C167.785 350.051 169.119 369.764 171.496 383.27Z" fill="#C52C27"/>
<path d="M49.3465 411.701V419.417C49.3465 420.788 48.5686 421.89 47.5027 422.44C46.5378 422.936 41.3826 426.801 40.3069 426.184L23.1591 405.453C20.3369 403.843 18.596 400.844 18.596 397.596L9.46191 393.835C9.46191 392.661 15.0179 390.254 15.8525 389.651L16.1718 389.447C17.1539 388.893 18.4093 388.817 19.5279 389.454L44.7834 403.843C47.6052 405.453 49.3465 408.453 49.3465 411.701Z" fill="url(#paint32_linear_594_60)"/>
<path d="M43.0565 415.392V423.108C43.0565 425.716 40.2399 427.35 37.9753 426.058L12.7199 411.669C9.89948 410.059 8.1582 407.06 8.1582 403.811V396.095C8.1582 393.487 10.9748 391.853 13.2394 393.144L38.4948 407.534C41.3152 409.144 43.0565 412.143 43.0565 415.392Z" fill="#7C7D7F"/>
<path d="M23.6455 409.054C23.6455 409.982 23.471 410.733 23.1233 411.315C22.137 413.113 19.7602 413.459 17.0357 411.835C13.3249 409.75 10.3691 405.054 10.3691 401.341C10.3691 398.734 11.876 397.286 14.1367 397.573C15.0067 397.632 15.9926 397.979 17.0357 398.56C20.6883 400.645 23.6455 405.341 23.6455 409.054Z" fill="#BFCFE1"/>
<path d="M38.4287 417.982C38.4287 418.91 38.2542 419.661 37.9068 420.243C36.8637 422.04 34.5451 422.387 31.7608 420.821C28.1095 418.678 25.1523 413.982 25.1523 410.328C25.1523 407.661 26.6595 406.269 28.8617 406.501C29.7317 406.56 30.718 406.906 31.7608 407.488C35.4715 409.632 38.4287 414.328 38.4287 417.982Z" fill="#BFCFE1"/>
<path d="M23.6449 409.055C23.6449 409.983 23.4704 410.734 23.1227 411.316C22.2527 411.257 21.2667 410.907 20.2236 410.329C16.571 408.241 13.6152 403.545 13.6152 399.836C13.6152 398.907 13.7884 398.156 14.1361 397.574C15.006 397.633 15.992 397.979 17.0351 398.561C20.6877 400.646 23.6449 405.342 23.6449 409.055Z" fill="#E5ECEE"/>
<path d="M38.4287 417.982C38.4287 418.91 38.2541 419.661 37.9068 420.243C37.0368 420.243 36.0519 419.893 35.0074 419.315C31.3562 417.168 28.3408 412.475 28.3408 408.822C28.3408 407.894 28.514 407.083 28.8617 406.501C29.7316 406.56 30.7179 406.907 31.7607 407.488C35.4715 409.632 38.4287 414.328 38.4287 417.982Z" fill="#E5ECEE"/>
<path d="M50.1357 441.178L399.146 222.299V168.042L50.1357 386.924V441.178Z" fill="#A95F1D"/>
<path d="M151.245 364.531L250.223 315.652V280.144L151.245 337.28V364.531Z" fill="#75CFA3"/>
<path d="M252.398 338.796L399.146 254.084V198.281L252.398 282.994V338.796Z" fill="#75CFA3"/>
<path d="M399.148 170.383L258.921 251.331V266.912L399.148 185.964V170.383Z" fill="#75CFA3"/>
<path d="M516.064 99.2334L430.136 218.647L258.921 251.332V106.111C258.921 94.2256 269.726 69.9142 276.905 60.4494C303.762 25.0316 316.437 13.2223 344.257 -4.57764e-05L516.064 99.2334Z" fill="#DB3538"/>
<path d="M388.707 192.755C388.707 180.872 399.755 152.305 406.2 142.321C430.836 104.139 451.283 91.8588 478.76 78.7299V72.2643L371.287 16.6563C343.468 29.8787 321.626 56.2195 306.931 93.6528C302.592 104.714 294.914 125.251 294.914 137.133L285.955 267.985L393.902 247.379L388.707 192.755Z" fill="#B12C22"/>
<path d="M388.707 186.293C388.707 174.411 399.755 145.843 406.2 135.859C430.836 97.6776 451.283 85.3973 478.76 72.265L371.287 10.1914C343.468 23.4137 321.626 49.7544 306.931 87.1877C302.592 98.2525 294.914 118.789 294.914 130.671L285.955 261.523L393.902 240.918L388.707 186.293Z" fill="#F03F46"/>
<path d="M196.794 549.069L519.583 360.05V324.421L196.794 498.005V549.069Z" fill="#48484A"/>
<path d="M473.209 417.013L549.461 371.905C559.615 366.042 560.543 348.643 551.539 333.045C542.531 317.447 526.999 309.555 516.845 315.414L439.679 361.055L473.209 417.013Z" fill="url(#paint33_linear_594_60)"/>
<path d="M440.595 360.524C450.749 354.661 466.281 362.554 475.285 378.152C484.293 393.753 483.362 411.149 473.208 417.012C463.054 422.875 447.521 414.982 438.517 399.384C429.509 383.783 430.441 366.387 440.595 360.524Z" fill="#898F94"/>
<path d="M440.18 368.275C448.308 363.583 460.741 369.903 467.951 382.388C475.161 394.876 474.413 408.801 466.285 413.497C458.157 418.186 445.724 411.869 438.518 399.385C431.307 386.897 432.052 372.968 440.18 368.275Z" fill="#7A8687"/>
<path d="M323.054 490.65L422.034 433.515V398.003L323.054 455.142V490.65Z" fill="#9BA8A7"/>
<path d="M416.546 421.466V405.162L404.837 411.323V430.841L416.546 435.305V421.466Z" fill="#7A8687"/>
<path d="M422.307 431.984L329.768 485.41L341.023 491.907L433.562 438.481L422.307 431.984Z" fill="#E0E4E8"/>
<path d="M410.778 391.415L318.239 444.845L329.495 451.342L422.034 397.916L410.778 391.415Z" fill="#BDC0C2"/>
<path d="M329.768 485.41L329.765 488.024L341.02 494.521L341.023 491.906L329.768 485.41Z" fill="#828484"/>
<path d="M433.559 441.095L341.02 494.521L341.023 491.906L433.562 438.48L433.559 441.095Z" fill="#BCBBBB"/>
<path d="M405.291 414.969L312.752 468.395L324.007 474.896L416.546 421.466L405.291 414.969Z" fill="#E0E4E8"/>
<path d="M416.544 424.081L324.005 477.511L324.008 474.896L416.548 421.467L416.544 424.081Z" fill="#BCBBBB"/>
<path d="M336.885 438.945L430.73 384.771V203.54L341.158 256.782L343.77 286.05L348.601 277.122L336.885 352.349V438.945Z" fill="#B12C22"/>
<path d="M186.617 501.953L336.882 438.944V352.345C302.465 334.059 186.617 419.779 186.617 419.779V501.953Z" fill="#A92122"/>
<path d="M363.964 494.625L336.37 479.494C334.281 467.899 331.21 458.621 326.978 451.667C328.02 451.55 329.062 451.491 330.049 451.491C347.5 451.608 358.922 466.102 363.964 494.625Z" fill="#353A3F"/>
<path d="M223.226 529.217C223.226 541.245 227.396 549.889 234.369 554.575C243.699 560.843 263.712 571.683 263.712 571.683C291.83 555.454 347.053 499.07 347.053 470.953C347.053 458.721 320.73 449.478 313.54 444.848C304.204 438.839 290.019 439.753 274.133 448.92C246.019 465.152 223.226 501.103 223.226 529.217Z" fill="url(#paint34_linear_594_60)"/>
<path d="M250.764 545.268C250.764 573.382 273.555 583.02 301.672 566.788C329.79 550.556 352.581 514.608 352.581 486.491C352.581 458.373 329.79 448.739 301.672 464.971C273.555 481.199 250.764 517.15 250.764 545.268Z" fill="#3C414E"/>
<path d="M265.799 533.867C265.799 552.526 280.926 558.919 299.585 548.149C318.245 537.375 333.372 513.517 333.372 494.858C333.372 476.198 318.245 469.802 299.585 480.576C280.926 491.346 265.799 515.204 265.799 533.867Z" fill="url(#paint35_linear_594_60)"/>
<path d="M267.885 535.383C267.885 554.043 283.012 560.436 301.671 549.666C320.331 538.895 335.458 515.034 335.458 496.374C335.458 477.715 320.331 471.318 301.671 482.092C283.012 492.863 267.885 516.72 267.885 535.383Z" fill="#D9DADB"/>
<path d="M331.978 498.376C331.978 515.13 318.41 536.522 301.655 546.205C284.959 555.83 271.335 550.091 271.335 533.392C271.335 531.539 271.508 529.624 271.858 527.712C274.351 512.118 286.815 494.202 301.655 485.565C302.874 484.869 304.093 484.232 305.25 483.709C320.325 476.752 331.978 482.84 331.978 498.376Z" fill="url(#paint36_linear_594_60)"/>
<path d="M317.255 496.638V496.87C317.255 509.566 306.993 525.742 294.294 533.046C291.977 534.438 289.715 535.366 287.572 535.945C280.497 537.856 274.872 535.654 272.614 529.974C272.265 529.278 272.033 528.523 271.859 527.713C272.206 525.451 272.788 523.131 273.539 520.814C277.484 508.697 286.526 496.233 297.369 488.406C298.758 487.36 300.209 486.435 301.656 485.566C302.702 484.984 303.686 484.461 304.673 484.001L305.251 483.71C312.326 483.419 317.137 488.06 317.255 496.638Z" fill="#E6E8E7"/>
<path d="M315.165 493.447C315.165 505.856 299.453 528.522 286.989 535.885L286.816 536.002C286.816 536.002 286.643 535.944 286.293 535.826C285.715 535.712 285.192 535.597 284.669 535.306L284.031 535.074C281.309 534.087 276.845 532.349 272.613 529.973C272.264 529.277 272.032 528.522 271.858 527.712C272.205 525.45 272.787 523.13 273.538 520.813C277.483 508.695 286.525 496.231 297.368 488.405C298.757 487.359 300.208 486.434 301.655 485.565C302.701 484.983 303.685 484.46 304.672 484C308.672 486.898 312.035 490.202 313.832 491.999L313.891 492.058C314.701 492.928 315.165 493.447 315.165 493.447Z" fill="url(#paint37_linear_594_60)"/>
<path d="M318.068 501.787C318.068 512.717 309.216 526.677 298.286 532.994C287.391 539.273 278.505 535.526 278.505 524.634C278.505 523.422 278.616 522.175 278.844 520.925C280.468 510.75 288.603 499.065 298.286 493.427C299.08 492.974 299.876 492.558 300.631 492.219C310.466 487.678 318.068 491.651 318.068 501.787Z" fill="#DCDDDD"/>
<path d="M308.676 508.319C308.676 513.645 304.364 520.447 299.034 523.526C293.729 526.584 289.396 524.759 289.396 519.453C289.396 518.861 289.452 518.251 289.563 517.645C290.356 512.686 294.318 506.993 299.034 504.246C299.422 504.025 299.81 503.824 300.177 503.658C304.97 501.445 308.676 503.381 308.676 508.319Z" fill="url(#paint38_linear_594_60)"/>
<path d="M300.431 509.607C300.431 511.741 298.703 514.463 296.573 515.695C294.447 516.921 292.712 516.191 292.712 514.064L292.778 513.341C293.096 511.356 294.682 509.077 296.573 507.976L297.03 507.741C298.949 506.854 300.431 507.63 300.431 509.607Z" fill="#E6E8E7"/>
<path d="M353.767 334.544C351.665 334.544 349.612 333.554 348.275 331.895C346.949 330.246 346.45 328.106 346.907 326.018L354.322 276.868C355.832 269.901 360.06 263.837 365.941 260.083L391.031 244.072C392.33 243.245 393.812 242.805 395.319 242.805C399.741 242.805 403.336 246.4 403.336 250.822V295.071C403.336 302.43 399.377 309.287 393.005 312.962L357.276 333.592C356.195 334.215 354.983 334.544 353.767 334.544Z" fill="#E0E4E8"/>
<path d="M356.114 331.583L391.847 310.953C397.523 307.677 401.018 301.627 401.018 295.075V250.819C401.018 246.331 396.058 243.615 392.277 246.029L367.189 262.036C361.783 265.485 357.977 270.947 356.613 277.212L349.171 326.51C348.301 330.499 352.578 333.623 356.114 331.583Z" fill="#6BABAE"/>
<path d="M355.719 400.345C352.076 400.345 349.115 397.384 349.115 393.741V359.944C349.115 356.484 350.978 353.256 353.977 351.528L367.598 343.66C368.609 343.081 369.745 342.77 370.888 342.77C374.524 342.77 377.485 345.731 377.485 349.374V383.171C377.485 386.638 375.626 389.858 372.63 391.586L359.006 399.455C357.998 400.033 356.862 400.345 355.719 400.345Z" fill="#E0E4E8"/>
<path d="M371.474 389.578L357.847 397.443C354.997 399.088 351.437 397.031 351.437 393.741V359.94C351.437 357.301 352.846 354.86 355.135 353.537L368.763 345.672C371.609 344.027 375.17 346.084 375.17 349.374V383.175C375.17 385.813 373.76 388.255 371.474 389.578Z" fill="#529AA1"/>
<path d="M516.065 320.029L430.729 369.192V225.367C430.729 212.495 433.15 197.787 438.085 185.894C447.844 162.369 489.053 106.754 516.065 99.2319V320.029Z" fill="#B12C22"/>
<path d="M515.853 315.268L411.889 375.711V391.292L415.619 393.612L519.583 317.592L515.853 315.268Z" fill="#E0E4E8"/>
<path d="M519.585 317.592L415.621 378.031V393.612L519.585 333.173V317.592Z" fill="#A4A7A8"/>
<path d="M440.215 371.119L440.183 373.605C440.17 374.713 439.557 375.745 438.59 376.306L428.028 382.454C427.176 382.949 426.126 382.339 426.137 381.362L426.147 380.663L434.989 375.524C435.955 374.959 436.571 373.931 436.585 372.822L436.606 371.035L438.324 370.045C439.176 369.55 440.225 370.159 440.215 371.119Z" fill="#7A8687"/>
<path d="M436.605 371.035L436.584 372.822C436.571 373.931 435.954 374.959 434.988 375.524L426.146 380.663L426.167 378.893C426.181 377.768 426.798 376.739 427.764 376.175L436.605 371.035Z" fill="#E4C517"/>
<path d="M514.676 327.094L514.645 329.58C514.631 330.688 514.015 331.717 513.052 332.278L502.49 338.429C501.638 338.924 500.588 338.314 500.599 337.338L500.609 336.638L509.451 331.495C510.417 330.934 511.03 329.902 511.044 328.798L511.068 327.01L512.786 326.02C513.637 325.525 514.687 326.134 514.676 327.094Z" fill="#7A8687"/>
<path d="M511.066 327.011L511.042 328.798C511.028 329.903 510.415 330.935 509.449 331.496L500.607 336.639L500.628 334.869C500.642 333.743 501.259 332.711 502.221 332.15L511.066 327.011Z" fill="#E4C517"/>
<path d="M489.855 341.769L489.824 344.255C489.81 345.364 489.194 346.396 488.227 346.957L477.668 353.104C476.816 353.603 475.767 352.989 475.777 352.013L475.788 351.313L484.629 346.174C485.595 345.61 486.212 344.581 486.226 343.473L486.247 341.686L487.964 340.695C488.816 340.2 489.866 340.81 489.855 341.769Z" fill="#7A8687"/>
<path d="M486.248 341.685L486.227 343.472C486.213 344.58 485.597 345.609 484.63 346.173L475.789 351.312L475.81 349.543C475.824 348.421 476.44 347.389 477.406 346.824L486.248 341.685Z" fill="#E4C517"/>
<path d="M465.034 356.445L465.003 358.932C464.989 360.037 464.372 361.069 463.41 361.63L452.847 367.777C451.995 368.275 450.946 367.666 450.956 366.689L450.967 365.99L459.808 360.847C460.774 360.286 461.387 359.254 461.401 358.149L461.425 356.362L463.146 355.372C463.995 354.873 465.044 355.483 465.034 356.445Z" fill="#7A8687"/>
<path d="M461.427 356.362L461.402 358.149C461.388 359.253 460.775 360.285 459.809 360.846L450.968 365.989L450.989 364.219C451.002 363.094 451.619 362.062 452.585 361.501L461.427 356.362Z" fill="#E4C517"/>
<path d="M171.962 168.187C174.224 217.738 356.978 315.233 343.769 267.424C339.891 253.385 430.73 205.991 430.73 205.991C430.73 205.991 332.521 172.004 258.922 106.754C258.922 106.754 170.747 141.597 171.962 168.187Z" fill="#F35C55"/>
<path d="M393.087 190.584C360.883 176.069 313.219 154.421 271.052 120.053C240.12 135.464 180.803 167.63 181.701 187.304C181.819 189.877 182.388 192.495 183.203 195.127C203.789 221.371 248.901 251.476 286.241 268.851C303.225 271.989 314.147 268.016 309.995 252.986C306.598 240.696 377.814 203.539 393.087 190.584Z" fill="#B12C22"/>
<path d="M393.087 190.584C360.883 176.07 313.219 151.401 271.052 117.033C240.12 132.444 180.803 164.61 181.701 184.284C181.819 186.857 182.388 189.475 183.203 192.107C203.789 218.351 248.901 248.457 286.241 265.835C303.225 268.969 314.147 264.997 309.995 249.967C306.598 237.679 375.802 199.82 393.087 190.584Z" fill="#F57564"/>
<path d="M335.15 352.688C300.453 362.464 198.273 410.665 198.273 410.665L66.1748 331.452C66.1748 331.452 114.634 295.75 165.053 253.087C202.694 221.236 329.179 344.92 336.542 351.992C336.078 352.165 335.614 352.456 335.15 352.688Z" fill="#F1454F"/>
<path d="M299.92 334.478L171.96 412.721L77 340.68L198.145 242.669L299.92 334.478Z" fill="#B12C22"/>
<path d="M313.191 326.014L171.96 407.835L77 335.791L198.145 237.783L313.191 326.014Z" fill="#F35C55"/>
<path d="M300.947 298.888L159.276 394.416L76.3838 356.778L216.174 250.843L300.947 298.888Z" fill="#F57564"/>
<path d="M112.966 365.38L134.351 348.667C116.258 336.466 93.2689 331.07 79.7137 328.809C72.7497 327.649 65.7219 330.322 61.1941 335.742L53.2559 345.245L112.966 365.38Z" fill="#C8D7D3"/>
<path d="M204.706 420.78V491.477L186.618 501.97L183.488 422.345L183.371 419.388L112.965 365.38L134.326 348.66C149.398 355.385 177.864 380.721 193.575 395.274C198.677 400.025 202.213 406.113 203.72 412.721C204.358 415.332 204.706 418.058 204.706 420.78Z" fill="#E4F4F1"/>
<path d="M204.706 420.78V491.477L186.618 501.97L183.487 422.345L203.719 412.721C204.358 415.332 204.706 418.058 204.706 420.78Z" fill="#D0DFDB"/>
<path d="M62.99 342.191L79.4469 345.297C104.756 353.844 128.39 366.72 149.294 383.354L179.645 411.731C184.093 415.89 186.617 421.708 186.617 427.8V544.325L50.1357 465.843V352.85C50.1357 346.056 56.3126 340.934 62.99 342.191Z" fill="#97AFB9"/>
<path d="M7.64273 412.61L224.867 537.966L238.323 535.656L244.955 539.483L229.112 549.222L0.0126953 417.012L7.64273 412.61Z" fill="#E4F4F1"/>
<path d="M244.943 539.481L240.071 590.788L236.072 593.226C233.694 594.674 231.028 595.37 228.362 595.197C226.158 595.138 223.955 594.559 222.043 593.455L5.04306 468.171C1.91271 466.433 0 463.129 0 459.534V417.041L222.043 545.164C223.955 546.266 226.158 546.844 228.362 546.903C231.028 547.076 233.694 546.38 236.072 544.932L244.943 539.481Z" fill="#97AFB9"/>
<path d="M244.943 539.481L240.071 590.788L236.072 593.226C233.694 594.674 231.028 595.37 228.361 595.197V546.903C231.028 547.076 233.694 546.38 236.072 544.932L244.943 539.481Z" fill="#D0DFDB"/>
<path d="M240.063 583.002L236.078 585.454C231.787 588.093 226.395 588.166 222.032 585.648L0.0126953 457.525V459.533C0.0126953 463.107 1.91986 466.411 5.01662 468.198L222.032 593.437C226.395 595.954 231.786 595.878 236.077 593.239L240.063 590.791L240.844 582.593L240.063 583.002Z" fill="#D93B3C"/>
<path d="M37.8793 487.027L16.6377 474.823V467.117L37.8793 479.325V487.027Z" fill="#E4F4F1"/>
<path d="M307.414 418.765V424.743C307.414 431.343 315.632 436.694 325.772 436.694C335.912 436.694 344.134 431.343 344.134 424.743V418.169L307.414 418.765Z" fill="url(#paint39_linear_594_60)"/>
<path d="M305.352 409.311V415.96C305.352 423.302 314.494 429.251 325.774 429.251C337.053 429.251 346.196 423.302 346.196 415.96V408.649L305.352 409.311Z" fill="url(#paint40_linear_594_60)"/>
<path d="M346.195 409.311C346.195 416.653 337.052 422.606 325.773 422.606C314.493 422.606 305.351 416.653 305.351 409.311C305.351 401.972 314.493 396.019 325.773 396.019C337.052 396.019 346.195 401.972 346.195 409.311Z" fill="#BFCDC9"/>
<path d="M307.414 390.471V406.973C307.414 413.574 315.632 418.924 325.772 418.924C335.912 418.924 344.134 413.574 344.134 406.973V389.872L307.414 390.471Z" fill="url(#paint41_linear_594_60)"/>
<path d="M305.352 378.692V385.342C305.352 392.684 314.494 398.633 325.774 398.633C337.053 398.633 346.196 392.684 346.196 385.342V378.031L305.352 378.692Z" fill="url(#paint42_linear_594_60)"/>
<path d="M346.195 378.693C346.195 386.035 337.052 391.988 325.773 391.988C314.493 391.988 305.351 386.035 305.351 378.693C305.351 371.355 314.493 365.402 325.773 365.402C337.052 365.402 346.195 371.355 346.195 378.693Z" fill="#BFCDC9"/>
<path d="M307.414 371.298V377.276C307.414 383.876 315.632 389.227 325.772 389.227C335.912 389.227 344.134 383.876 344.134 377.276V370.703L307.414 371.298Z" fill="url(#paint43_linear_594_60)"/>
<path d="M344.136 371.298C344.136 377.899 335.914 383.25 325.774 383.25C315.634 383.25 307.416 377.899 307.416 371.298C307.416 364.697 315.634 359.347 325.774 359.347C335.914 359.347 344.136 364.697 344.136 371.298Z" fill="#E4F4F1"/>
<path d="M363.963 494.608C361.934 483.359 358.976 474.258 354.976 467.418C349.006 456.866 340.601 451.533 330.048 451.474C329.061 451.474 328.019 451.533 326.976 451.651C325.179 448.52 306.686 452.52 304.075 454.258C303.146 454.837 285.813 463.765 262.97 490.261C252.304 502.725 240.362 519.075 228.361 540.235L184.821 516C187.72 500.81 202.273 482.317 221.289 466.144C246.275 444.866 278.856 427.647 302.222 427.647H302.509C307.205 427.647 312.424 428.517 317.526 430.951C323.496 433.791 350.689 445.677 355.731 453.912L355.79 453.968C357.006 455.938 357.934 458.722 358.748 462.085C361.006 471.36 362.225 484.637 363.963 494.608Z" fill="#DB3538"/>
<path d="M358.748 462.086C357.47 463.824 356.254 465.622 354.976 467.419C349.006 456.867 340.601 451.534 330.049 451.475C329.062 451.475 328.019 451.534 326.977 451.651C325.179 448.521 306.686 452.521 304.075 454.259C303.147 454.838 285.814 463.766 262.971 490.262L221.289 466.145C246.275 444.867 278.856 427.648 302.222 427.648H302.51C307.206 427.648 312.425 428.518 317.526 430.952C323.496 433.792 350.689 445.677 355.731 453.913L355.79 453.968C357.006 455.939 357.934 458.723 358.748 462.086Z" fill="#F03F46"/>
<path d="M291.461 439.675L282.554 444.79L275.434 440.696L284.351 435.574L291.461 439.675Z" fill="#AF2F24"/>
<path d="M372.545 493.119L363.963 494.626C358.921 466.103 347.499 451.61 330.048 451.492C329.061 451.492 328.019 451.551 326.977 451.669C291.729 454.796 244.18 504.988 238.324 535.657L228.361 540.253C234.565 507.727 281.235 451.61 320.829 443.724C323.905 443.146 326.918 442.796 329.875 442.796H330.107C338.222 442.855 347.614 445.348 355.731 453.93L355.79 453.986C362.98 461.521 369.064 473.757 372.545 493.119Z" fill="#B12C22"/>
<path d="M348.6 277.121L336.884 352.348L239.75 305.384L229.548 300.629L227.924 299.874L165.053 253.086L178.734 174.403L244.768 221.707L254.683 227.445L348.6 277.121Z" fill="#DB3538"/>
<path d="M343.904 278.87L332.832 344.046L239.734 298.987L229.53 294.232L229.298 294.118L171.546 250.766L182.561 185.704L190.792 190.459L227.375 211.619L244.768 221.648L254.683 227.386L343.904 278.87Z" fill="#528B94"/>
<path d="M251.306 285.439L241.101 280.688L240.869 280.57L183.116 237.222L172.781 243.466L171.546 250.766L229.298 294.118L229.53 294.232L239.734 298.987L332.832 344.046L335.835 326.357L251.306 285.439Z" fill="#73A2A7"/>
<path d="M227.373 211.619C226.504 212.37 225.576 213.066 224.532 213.648L188.763 234.285C185.226 236.314 180.935 233.243 181.805 229.243L189.285 195.037C189.633 193.472 190.095 191.906 190.79 190.459L227.373 211.619Z" fill="#B5DDC1"/>
<path d="M295.915 437.22L287.008 442.335L279.888 438.242L288.805 433.12L295.915 437.22Z" fill="#CB8D19"/>
<path d="M295.925 437.219V442.272L287.008 447.387V442.334L295.915 437.219H295.925Z" fill="#E4C517"/>
<path d="M287.008 442.334V447.387L279.888 443.297V438.241L287.008 442.334Z" fill="#AB611D"/>
<path d="M227.065 514.348V522.064C227.065 523.435 226.287 524.536 225.221 525.084C224.258 525.582 219.101 529.444 218.027 528.831L200.877 508.1C198.057 506.49 196.316 503.491 196.316 500.242L187.181 496.481C187.181 495.307 192.738 492.897 193.573 492.298L193.891 492.093C194.874 491.536 196.128 491.46 197.248 492.1L222.504 506.486C225.324 508.1 227.065 511.099 227.065 514.348Z" fill="url(#paint44_linear_594_60)"/>
<path d="M220.776 518.04V525.756C220.776 528.364 217.959 529.999 215.694 528.707L190.44 514.317C187.618 512.707 185.877 509.708 185.877 506.459V498.74C185.877 496.136 188.694 494.498 190.958 495.793L216.214 510.182C219.034 511.793 220.776 514.792 220.776 518.04Z" fill="#7C7D7F"/>
<path d="M201.365 511.699C201.365 512.627 201.192 513.382 200.843 513.96C199.858 515.757 197.481 516.107 194.757 514.483C191.046 512.395 188.089 507.699 188.089 503.99C188.089 501.382 189.596 499.931 191.858 500.222C192.727 500.281 193.712 500.627 194.757 501.205C198.409 503.294 201.365 507.99 201.365 511.699Z" fill="#BFCFE1"/>
<path d="M216.147 520.63C216.147 521.555 215.974 522.31 215.625 522.888C214.582 524.685 212.264 525.035 209.481 523.47C205.828 521.323 202.871 516.627 202.871 512.976C202.871 510.31 204.38 508.917 206.582 509.15C207.452 509.208 208.437 509.555 209.481 510.137C213.19 512.28 216.147 516.976 216.147 520.63Z" fill="#BFCFE1"/>
<path d="M201.365 511.7C201.365 512.628 201.191 513.383 200.842 513.961C199.974 513.902 198.988 513.556 197.945 512.977C194.292 510.889 191.335 506.193 191.335 502.484C191.335 501.556 191.51 500.801 191.857 500.223C192.727 500.281 193.712 500.628 194.756 501.206C198.408 503.294 201.365 507.991 201.365 511.7Z" fill="#E5ECEE"/>
<path d="M216.148 520.63C216.148 521.554 215.975 522.309 215.626 522.888C214.758 522.888 213.772 522.541 212.729 521.96C209.076 519.816 206.061 515.12 206.061 511.466C206.061 510.542 206.235 509.728 206.583 509.149C207.453 509.208 208.438 509.555 209.482 510.136C213.191 512.28 216.148 516.976 216.148 520.63Z" fill="#E5ECEE"/>
<path d="M254.684 227.387V227.446L239.735 298.988L238.111 304.612L227.907 299.857L229.531 294.233L244.769 221.708V221.649L254.684 227.387Z" fill="#DB3538"/>
<path d="M411.89 207.522V377.047C411.89 381.359 417.254 384.85 423.876 384.85C430.497 384.85 435.862 381.359 435.862 377.047V207.134L411.89 207.522Z" fill="url(#paint45_linear_594_60)"/>
<path d="M435.861 207.522C435.861 211.834 430.496 215.325 423.875 215.325C417.253 215.325 411.889 211.834 411.889 207.522C411.889 203.214 417.253 199.72 423.875 199.72C430.496 199.72 435.861 203.214 435.861 207.522Z" fill="#E4F4F1"/>
<path d="M443.62 141.892C444.375 150.415 437.708 155.111 437.708 155.111L434.518 157.719C431.738 159.921 430.113 163.343 430.113 166.879V205.604C429.476 207.46 426.924 208.793 423.852 208.793C420.953 208.793 418.519 207.578 417.764 205.839V163.748C417.764 157.546 420.548 151.748 425.3 147.863L438.518 135.922C438.518 135.922 443.041 134.82 443.62 141.892Z" fill="#B9C7C4"/>
<path d="M420.302 207.827V165.74C420.302 159.534 423.083 153.736 427.838 149.854L441.057 137.909C441.057 137.909 441.715 137.757 442.56 137.951C441.043 135.312 438.518 135.922 438.518 135.922L425.3 147.863C420.548 151.748 417.764 157.546 417.764 163.748V205.84C418.197 206.837 419.222 207.626 420.531 208.149L420.302 207.827Z" fill="#E0E4E8"/>
<path d="M441.548 150.702L434.479 157.088C429.724 160.97 426.943 166.767 426.943 172.973V208.231C428.509 207.681 429.71 206.77 430.112 205.603V166.878C430.112 163.342 431.736 159.92 434.517 157.718L437.707 155.11C437.707 155.11 439.83 153.555 441.548 150.702Z" fill="#A4A7A8"/>
<path d="M171.962 168.188C171.962 168.188 174.409 174.979 176.793 177.888C208.252 216.236 348.601 277.122 348.601 277.122L343.77 267.425C343.77 267.425 209.447 205.992 171.962 168.188Z" fill="#A52F32"/>
<path d="M231.487 158.369L226.853 161.33C225.58 162.113 225.497 163.515 224.176 162.753L222.105 161.119C220.684 160.298 219.137 157.275 220.51 156.433L225.168 153.486C226.44 152.703 231.48 150.477 232.798 151.238L233.332 151.47C234.753 152.291 232.854 157.527 231.487 158.369Z" fill="#A83034"/>
<path d="M238.07 159.014L230.65 163.734C229.221 164.617 227.427 164.631 225.946 163.775L224.177 162.754C222.581 161.833 224.669 155.263 226.208 154.318L231.499 153.846C232.926 152.97 235.103 150.688 236.583 151.543L237.804 152.468C239.398 153.389 239.605 158.065 238.07 159.014Z" fill="#ED7324"/>
<path d="M236.199 154.882L231.566 157.84C230.293 158.623 228.694 158.636 227.373 157.874L226.817 157.629C225.395 156.808 225.334 154.73 226.707 153.885L231.364 150.941C232.636 150.159 234.232 150.145 235.55 150.907L236.083 151.139C237.503 151.959 237.568 154.037 236.199 154.882Z" fill="#EAB839"/>
<path d="M273.874 182.944L269.24 185.901C267.969 186.687 267.886 188.09 266.566 187.328L264.495 185.693C263.072 184.873 261.524 181.849 262.899 181.008L267.557 178.057C268.828 177.278 273.87 175.051 275.186 175.81L275.719 176.045C277.139 176.866 275.242 182.099 273.874 182.944Z" fill="#A83034"/>
<path d="M280.459 183.587L273.041 188.307C271.61 189.187 269.816 189.204 268.334 188.349L266.568 187.327C264.971 186.406 267.06 179.833 268.597 178.888L273.889 178.417C275.316 177.54 277.494 175.262 278.973 176.117L280.192 177.038C281.788 177.959 281.993 182.638 280.459 183.587Z" fill="#ED7324"/>
<path d="M278.584 179.454L273.95 182.411C272.679 183.197 271.079 183.211 269.76 182.449L269.206 182.203C267.782 181.383 267.72 179.301 269.092 178.46L273.75 175.512C275.024 174.733 276.617 174.719 277.936 175.481L278.47 175.713C279.89 176.534 279.955 178.609 278.584 179.454Z" fill="#EAB839"/>
<path d="M316.264 207.518L311.63 210.475C310.355 211.258 310.276 212.664 308.953 211.899L306.882 210.264C305.462 209.443 303.914 206.42 305.285 205.578L309.947 202.631C311.218 201.852 316.257 199.622 317.576 200.384L318.109 200.619C319.529 201.436 317.632 206.673 316.264 207.518Z" fill="#A83034"/>
<path d="M322.848 208.16L315.427 212.884C314 213.763 312.206 213.78 310.724 212.922L308.954 211.9C307.361 210.982 309.446 204.409 310.987 203.464L316.275 202.993C317.705 202.117 319.88 199.834 321.359 200.69L322.582 201.614C324.175 202.536 324.382 207.211 322.848 208.16Z" fill="#ED7324"/>
<path d="M320.976 204.028L316.342 206.985C315.071 207.768 313.471 207.785 312.152 207.02L311.594 206.774C310.174 205.956 310.112 203.875 311.484 203.034L316.142 200.086C317.412 199.304 319.009 199.293 320.328 200.052L320.862 200.287C322.282 201.108 322.344 203.183 320.976 204.028Z" fill="#EAB839"/>
<path d="M125.99 379.015C125.99 379.943 125.715 380.664 125.165 381.169C123.515 382.755 119.847 382.627 115.447 380.494C109.671 377.599 104.996 372.3 104.996 368.646C104.996 365.98 107.38 364.896 110.863 365.578C112.238 365.814 113.796 366.364 115.447 367.157C121.313 370.063 125.99 375.365 125.99 379.015Z" fill="#D1452B"/>
<path d="M66.524 439.987L166.9 497.715C170.071 499.54 174.028 497.251 174.028 493.594V431.392C174.028 427.188 171.781 423.302 168.137 421.207L67.7607 363.479C64.5895 361.654 60.6328 363.943 60.6328 367.6V429.802C60.6328 434.006 62.8797 437.892 66.524 439.987Z" fill="#7594A4"/>
<path d="M169.317 496.628L68.9403 438.901C65.2942 436.805 63.0487 432.92 63.0487 428.716V366.514C63.0487 365.021 63.7278 363.778 64.7263 362.926C62.5199 363.248 60.6328 365.08 60.6328 367.601V429.803C60.6328 434.007 62.8797 437.893 66.524 439.988L166.9 497.715C168.775 498.796 170.907 498.412 172.351 497.182C171.355 497.328 170.301 497.196 169.317 496.628Z" fill="#D0DFDB"/>
<path d="M174.028 485.005V490.158C150.875 479.045 93.9737 449.518 60.6328 427.925V422.716C93.9737 444.309 150.875 473.833 174.028 485.005Z" fill="#6D7D8E"/>
<path d="M174.028 475.224V480.433C150.875 469.261 93.9737 439.734 60.6328 418.145V412.936C93.9737 434.525 150.875 464.052 174.028 475.224Z" fill="#6D7D8E"/>
<path d="M174.028 465.383V470.591C150.875 459.478 93.9737 429.954 60.6328 408.303V403.094C93.9737 424.742 150.875 454.269 174.028 465.383Z" fill="#6D7D8E"/>
<path d="M174.028 455.312V460.521C150.875 449.407 93.9737 419.88 60.6328 398.232V393.37C93.9737 414.904 150.875 444.257 174.028 455.312Z" fill="#6D7D8E"/>
<path d="M174.028 487.726V492.935C148.501 480.374 92.0634 450.56 60.6328 430.356V425.147C92.0634 445.348 148.501 475.166 174.028 487.726Z" fill="#97AFB9"/>
<path d="M174.028 477.885V483.097C150.875 471.925 93.9737 442.398 60.6328 420.808V415.596C93.9737 437.189 150.875 466.716 174.028 477.885Z" fill="#97AFB9"/>
<path d="M174.028 468.163V473.372C148.501 460.811 92.0634 430.993 60.6328 410.792V405.584C92.0634 425.784 148.501 455.599 174.028 468.163Z" fill="#97AFB9"/>
<path d="M174.028 457.975V463.184C150.875 452.071 93.9737 422.544 60.6328 400.896V395.687C93.9737 417.335 150.875 446.862 174.028 457.975Z" fill="#97AFB9"/>
<path d="M174.028 445.123V450.332C150.875 439.218 93.9737 409.695 60.6328 388.043V382.834C93.9737 404.483 150.875 434.01 174.028 445.123Z" fill="#6D7D8E"/>
<path d="M174.028 435.398V440.61C150.875 429.438 93.9737 399.911 60.6328 378.263V373.054C93.9737 394.703 150.875 424.23 174.028 435.398Z" fill="#6D7D8E"/>
<path d="M173.68 430.595C150.527 419.481 93.9729 390.069 60.8633 368.597C61.0943 367.842 61.5002 367.205 62.0792 366.686C62.715 366.107 63.4686 365.702 64.2208 365.584C65.8416 366.627 80.6019 375.749 87.8947 380.32L88.5319 380.725C100.109 387.381 111.743 393.75 122.798 399.596L123.667 400.057C138.6 407.409 169.165 424.69 169.165 424.69C170.323 425.386 171.307 426.252 172.059 427.353C172.811 428.281 173.39 429.438 173.68 430.595Z" fill="#6D7D8E"/>
<path d="M174.028 447.904V453.112C148.501 440.551 92.0634 410.734 60.6328 390.533V385.324C92.0634 405.525 148.501 435.343 174.028 447.904Z" fill="#97AFB9"/>
<path d="M174.028 438.061V443.27C150.875 432.101 93.9737 402.574 60.6328 380.926V375.714C93.9737 397.362 150.875 426.889 174.028 438.061Z" fill="#97AFB9"/>
<path d="M174.028 433.141V433.432C148.501 420.93 92.0634 391.112 60.6328 370.912V369.814C60.6328 369.409 60.691 369.003 60.8642 368.598C61.0951 367.843 61.501 367.206 62.0801 366.687C70.4149 372.013 79.0984 377.748 87.8955 382.842L88.5327 383.248C100.11 389.904 111.744 396.272 122.799 402.118L123.668 402.579C134.318 408.196 163.261 422.956 172.06 427.354C172.812 428.282 173.391 429.439 173.68 430.596C173.912 431.406 174.028 432.275 174.028 433.141Z" fill="#97AFB9"/>
<path d="M545.498 231.404L529.404 218.902V240.692L545.498 231.404Z" fill="#A4A7A8"/>
<path d="M519.878 142.32L516.065 136.966V144.52L519.878 142.32Z" fill="#A4A7A8"/>
<path d="M80.3633 511.442L59.123 499.234V491.529L80.3633 503.736V511.442Z" fill="#E4F4F1"/>
<path d="M122.85 535.854L101.607 523.647V515.945L122.85 528.149V535.854Z" fill="#E4F4F1"/>
<path d="M165.332 560.267L144.091 548.059V540.357L165.332 552.562V560.267Z" fill="#E4F4F1"/>
<path d="M207.816 584.678L186.574 572.474V564.769L207.816 576.973V584.678Z" fill="#E4F4F1"/>
<path d="M124.577 529.409L122.848 528.411V528.148L101.605 515.944V516.152L80.3618 503.892V503.736L72.1652 499.026C71.9854 498.32 71.8878 497.62 71.8878 496.955L71.8867 479.678C71.8867 477.333 73.0933 476 74.8612 476C75.6501 476 76.5495 476.267 77.5033 476.824L119.167 501.167C122.265 502.974 124.787 507.203 124.787 510.586L124.788 527.861C124.788 528.439 124.715 528.958 124.577 529.409Z" fill="#4C5961"/>
<path d="M122.85 531.366V528.412L124.579 529.41C124.278 530.4 123.666 531.072 122.85 531.366ZM101.607 520.461L80.3643 508.049V503.893L101.607 516.153V520.461Z" fill="#722323"/>
<path d="M80.3617 508.047L77.5059 506.378C75.0183 504.924 72.9023 501.911 72.165 499.026L80.3617 503.736V503.892V508.047Z" fill="#757F7F"/>
<path d="M121.812 531.542C121.024 531.542 120.126 531.279 119.172 530.721L101.607 520.46V516.152V515.944L122.85 528.148V528.411V531.365C122.533 531.483 122.185 531.542 121.812 531.542Z" fill="#757F7F"/>
<path d="M79.1464 503.477C76.0469 501.666 73.5268 497.441 73.5268 494.054L73.5254 476.776C73.524 473.393 76.0445 472.111 79.1437 473.923L120.807 498.265C123.904 500.077 126.425 504.302 126.425 507.685L126.428 524.959C126.428 528.35 123.906 529.631 120.81 527.82L79.1464 503.477Z" fill="#FBFEFE"/>
<path d="M77.5061 504.024C74.4083 502.21 71.8878 497.988 71.8878 494.598L71.8867 477.324C71.8867 473.937 74.4055 472.659 77.5033 474.47L119.168 498.812C122.265 500.62 124.787 504.849 124.787 508.232L124.788 525.506C124.789 528.893 122.267 530.175 119.171 528.367L77.5061 504.024Z" fill="#E3E2E0"/>
<path d="M119.173 527.21L77.5084 502.871C74.991 501.396 72.9467 497.971 72.9467 495.217L72.9453 477.94C72.9453 475.186 74.9882 474.147 77.507 475.623L119.171 499.965C121.691 501.437 123.734 504.862 123.734 507.616L123.735 524.893C123.736 527.643 121.692 528.685 119.173 527.21Z" fill="#FBFEFE"/>
<path d="M123.713 507.495C123.658 504.763 121.654 501.417 119.171 499.966L77.5071 475.624C75.0247 474.169 73.0226 475.177 72.9658 477.844L123.713 507.495Z" fill="#82B2E3"/>
<path d="M72.9658 495.339C73.024 498.072 75.0247 501.417 77.5071 502.868L119.172 527.211C121.656 528.662 123.659 527.658 123.713 524.991L72.9658 495.339Z" fill="#82B2E3"/>
<path d="M465.813 292.796C462.173 292.796 459.212 289.835 459.212 286.192V216.928C459.212 213.469 461.072 210.241 464.071 208.513L477.691 200.645C478.703 200.066 479.839 199.755 480.981 199.755C484.621 199.755 487.582 202.716 487.582 206.355V275.622C487.582 279.089 485.722 282.309 482.723 284.038L469.103 291.906C468.091 292.484 466.956 292.796 465.813 292.796Z" fill="#951A1F"/>
<path d="M482.022 282.029L468.395 289.894C465.544 291.539 461.984 289.482 461.984 286.192V216.925C461.984 214.286 463.394 211.845 465.683 210.522L479.311 202.657C482.157 201.012 485.717 203.069 485.717 206.359V275.622C485.717 278.265 484.308 280.706 482.022 282.029Z" fill="#B12C22"/>
<path d="M233.083 409.016L228.895 410.602C227.764 411.052 227.067 412.136 227.067 413.445V415.007C227.067 416.417 228.586 417.57 229.803 417.082L233.994 415.475C235.12 415.025 235.814 413.944 235.814 412.635V411.094C235.814 409.688 234.298 408.535 233.083 409.016Z" fill="#ED7324"/>
<path d="M234.163 410.166L229.975 411.749C228.844 412.199 228.147 413.283 228.147 414.592V416.154C228.147 417.564 229.666 418.717 230.883 418.232L235.074 416.625C236.2 416.172 236.894 415.091 236.894 413.782V412.244C236.894 410.835 235.378 409.682 234.163 410.166Z" fill="#EAB839"/>
<path d="M280.383 336.154L277.557 338.045C276.113 339.008 273.158 339.053 271.139 338.135L241.112 324.684C237.37 322.987 236.998 320.22 240.311 318.727L243.067 317.484C244.632 316.781 247.166 316.843 248.954 317.633L278.613 330.634C282.007 332.13 282.783 334.551 280.383 336.154Z" fill="#443940"/>
<path d="M267.354 337.516L269.76 338.24L282.411 331.04L280.423 329.97L267.354 337.516Z" fill="#F57564"/>
<path d="M260.957 335.085L263.364 335.805L276.015 328.609L274.027 327.539L260.957 335.085Z" fill="#F57564"/>
<path d="M254.56 332.653L256.966 333.374L269.621 326.174L267.633 325.107L254.56 332.653Z" fill="#F57564"/>
<path d="M248.167 330.219L250.57 330.942L263.225 323.742L261.237 322.672L248.167 330.219Z" fill="#F57564"/>
<path d="M242.175 327.576L244.58 328.296L257.234 321.097L255.247 320.03L242.175 327.576Z" fill="#F57564"/>
<path d="M237.124 324.359L239.53 325.079L252.181 317.883L250.193 316.812L237.124 324.359Z" fill="#F57564"/>
<path d="M174.346 276.005L177.213 274.194C178.679 273.269 181.211 273.449 182.716 274.592L205.124 291.35C207.912 293.463 207.564 296.465 204.377 297.813L201.727 298.935C200.221 299.572 198.073 299.309 196.736 298.322L174.531 282.073C171.996 280.203 171.915 277.543 174.346 276.005Z" fill="#443940"/>
<path d="M185.798 275.549L183.918 274.587L171.387 281.347L172.826 282.649L185.798 275.549Z" fill="#F57564"/>
<path d="M190.677 278.652L188.796 277.693L176.265 284.453L177.705 285.752L190.677 278.652Z" fill="#F57564"/>
<path d="M195.552 281.758L193.671 280.799L181.14 287.556L182.58 288.858L195.552 281.758Z" fill="#F57564"/>
<path d="M200.43 284.864L198.549 283.905L186.017 290.662L187.457 291.964L200.43 284.864Z" fill="#F57564"/>
<path d="M204.908 288.17L203.027 287.211L190.495 293.967L191.936 295.27L204.908 288.17Z" fill="#F57564"/>
<path d="M208.448 292.012L206.567 291.053L194.036 297.809L195.477 299.111L208.448 292.012Z" fill="#F57564"/>
<defs>
<linearGradient id="paint0_linear_594_60" x1="609.292" y1="31.2087" x2="541.346" y2="148.894" gradientUnits="userSpaceOnUse">
<stop stop-color="#606E79"/>
<stop offset="0.126147" stop-color="#606E79"/>
<stop offset="0.127231" stop-color="#65747E"/>
<stop offset="0.43781" stop-color="#65747E"/>
<stop offset="0.440691" stop-color="#49515A"/>
<stop offset="0.836743" stop-color="#49515A"/>
<stop offset="0.838664" stop-color="#363B40"/>
<stop offset="1" stop-color="#363B40"/>
</linearGradient>
<linearGradient id="paint1_linear_594_60" x1="641.806" y1="49.5667" x2="573.861" y2="167.252" gradientUnits="userSpaceOnUse">
<stop stop-color="#606E79"/>
<stop offset="0.126147" stop-color="#606E79"/>
<stop offset="0.127231" stop-color="#65747E"/>
<stop offset="0.43781" stop-color="#65747E"/>
<stop offset="0.440691" stop-color="#49515A"/>
<stop offset="0.836743" stop-color="#49515A"/>
<stop offset="0.838664" stop-color="#363B40"/>
<stop offset="1" stop-color="#363B40"/>
</linearGradient>
<linearGradient id="paint2_linear_594_60" x1="643.826" y1="140.379" x2="609.794" y2="98.6529" gradientUnits="userSpaceOnUse">
<stop stop-color="#DDE2E4"/>
<stop offset="0.126147" stop-color="#DDE2E4"/>
<stop offset="0.127231" stop-color="#E3E8EA"/>
<stop offset="0.43781" stop-color="#E3E8EA"/>
<stop offset="0.440691" stop-color="#C0C2C3"/>
<stop offset="0.836743" stop-color="#C0C2C3"/>
<stop offset="0.838664" stop-color="#A5A9AA"/>
<stop offset="1" stop-color="#A5A9AA"/>
</linearGradient>
<linearGradient id="paint3_linear_594_60" x1="648.615" y1="86.8864" x2="608.697" y2="156.027" gradientUnits="userSpaceOnUse">
<stop stop-color="#72767A"/>
<stop offset="0.161336" stop-color="#72767A"/>
<stop offset="0.163257" stop-color="#8D9192"/>
<stop offset="0.559309" stop-color="#8D9192"/>
<stop offset="0.56219" stop-color="#B0B3B5"/>
<stop offset="0.872769" stop-color="#B0B3B5"/>
<stop offset="0.873853" stop-color="#ABAEB0"/>
<stop offset="1" stop-color="#ABAEB0"/>
</linearGradient>
<linearGradient id="paint4_linear_594_60" x1="635.195" y1="91.0553" x2="607.273" y2="139.418" gradientUnits="userSpaceOnUse">
<stop stop-color="#72767A"/>
<stop offset="0.161336" stop-color="#72767A"/>
<stop offset="0.163257" stop-color="#8D9192"/>
<stop offset="0.559309" stop-color="#8D9192"/>
<stop offset="0.56219" stop-color="#B0B3B5"/>
<stop offset="0.872769" stop-color="#B0B3B5"/>
<stop offset="0.873853" stop-color="#ABAEB0"/>
<stop offset="1" stop-color="#ABAEB0"/>
</linearGradient>
<linearGradient id="paint5_linear_594_60" x1="632.646" y1="107.991" x2="619.897" y2="130.072" gradientUnits="userSpaceOnUse">
<stop stop-color="#72767A"/>
<stop offset="0.161336" stop-color="#72767A"/>
<stop offset="0.163257" stop-color="#8D9192"/>
<stop offset="0.559309" stop-color="#8D9192"/>
<stop offset="0.56219" stop-color="#B0B3B5"/>
<stop offset="0.872769" stop-color="#B0B3B5"/>
<stop offset="0.873853" stop-color="#ABAEB0"/>
<stop offset="1" stop-color="#ABAEB0"/>
</linearGradient>
<linearGradient id="paint6_linear_594_60" x1="492.371" y1="98.699" x2="424.426" y2="216.384" gradientUnits="userSpaceOnUse">
<stop stop-color="#606E79"/>
<stop offset="0.126147" stop-color="#606E79"/>
<stop offset="0.127231" stop-color="#65747E"/>
<stop offset="0.43781" stop-color="#65747E"/>
<stop offset="0.440691" stop-color="#49515A"/>
<stop offset="0.836743" stop-color="#49515A"/>
<stop offset="0.838664" stop-color="#363B40"/>
<stop offset="1" stop-color="#363B40"/>
</linearGradient>
<linearGradient id="paint7_linear_594_60" x1="524.889" y1="117.057" x2="456.943" y2="234.742" gradientUnits="userSpaceOnUse">
<stop stop-color="#606E79"/>
<stop offset="0.126147" stop-color="#606E79"/>
<stop offset="0.127231" stop-color="#65747E"/>
<stop offset="0.43781" stop-color="#65747E"/>
<stop offset="0.440691" stop-color="#49515A"/>
<stop offset="0.836743" stop-color="#49515A"/>
<stop offset="0.838664" stop-color="#363B40"/>
<stop offset="1" stop-color="#363B40"/>
</linearGradient>
<linearGradient id="paint8_linear_594_60" x1="526.909" y1="207.869" x2="492.878" y2="166.143" gradientUnits="userSpaceOnUse">
<stop stop-color="#DDE2E4"/>
<stop offset="0.126147" stop-color="#DDE2E4"/>
<stop offset="0.127231" stop-color="#E3E8EA"/>
<stop offset="0.43781" stop-color="#E3E8EA"/>
<stop offset="0.440691" stop-color="#C0C2C3"/>
<stop offset="0.836743" stop-color="#C0C2C3"/>
<stop offset="0.838664" stop-color="#A5A9AA"/>
<stop offset="1" stop-color="#A5A9AA"/>
</linearGradient>
<linearGradient id="paint9_linear_594_60" x1="531.706" y1="154.376" x2="491.787" y2="223.517" gradientUnits="userSpaceOnUse">
<stop stop-color="#72767A"/>
<stop offset="0.161336" stop-color="#72767A"/>
<stop offset="0.163257" stop-color="#8D9192"/>
<stop offset="0.559309" stop-color="#8D9192"/>
<stop offset="0.56219" stop-color="#B0B3B5"/>
<stop offset="0.872769" stop-color="#B0B3B5"/>
<stop offset="0.873853" stop-color="#ABAEB0"/>
<stop offset="1" stop-color="#ABAEB0"/>
</linearGradient>
<linearGradient id="paint10_linear_594_60" x1="518.283" y1="158.545" x2="490.361" y2="206.908" gradientUnits="userSpaceOnUse">
<stop stop-color="#72767A"/>
<stop offset="0.161336" stop-color="#72767A"/>
<stop offset="0.163257" stop-color="#8D9192"/>
<stop offset="0.559309" stop-color="#8D9192"/>
<stop offset="0.56219" stop-color="#B0B3B5"/>
<stop offset="0.872769" stop-color="#B0B3B5"/>
<stop offset="0.873853" stop-color="#ABAEB0"/>
<stop offset="1" stop-color="#ABAEB0"/>
</linearGradient>
<linearGradient id="paint11_linear_594_60" x1="515.73" y1="175.482" x2="502.981" y2="197.563" gradientUnits="userSpaceOnUse">
<stop stop-color="#72767A"/>
<stop offset="0.161336" stop-color="#72767A"/>
<stop offset="0.163257" stop-color="#8D9192"/>
<stop offset="0.559309" stop-color="#8D9192"/>
<stop offset="0.56219" stop-color="#B0B3B5"/>
<stop offset="0.872769" stop-color="#B0B3B5"/>
<stop offset="0.873853" stop-color="#ABAEB0"/>
<stop offset="1" stop-color="#ABAEB0"/>
</linearGradient>
<linearGradient id="paint12_linear_594_60" x1="781.088" y1="131.082" x2="713.143" y2="248.768" gradientUnits="userSpaceOnUse">
<stop stop-color="#606E79"/>
<stop offset="0.126147" stop-color="#606E79"/>
<stop offset="0.127231" stop-color="#65747E"/>
<stop offset="0.43781" stop-color="#65747E"/>
<stop offset="0.440691" stop-color="#49515A"/>
<stop offset="0.836743" stop-color="#49515A"/>
<stop offset="0.838664" stop-color="#363B40"/>
<stop offset="1" stop-color="#363B40"/>
</linearGradient>
<linearGradient id="paint13_linear_594_60" x1="813.607" y1="149.442" x2="745.661" y2="267.127" gradientUnits="userSpaceOnUse">
<stop stop-color="#606E79"/>
<stop offset="0.126147" stop-color="#606E79"/>
<stop offset="0.127231" stop-color="#65747E"/>
<stop offset="0.43781" stop-color="#65747E"/>
<stop offset="0.440691" stop-color="#49515A"/>
<stop offset="0.836743" stop-color="#49515A"/>
<stop offset="0.838664" stop-color="#363B40"/>
<stop offset="1" stop-color="#363B40"/>
</linearGradient>
<linearGradient id="paint14_linear_594_60" x1="820.962" y1="180.68" x2="776.267" y2="258.092" gradientUnits="userSpaceOnUse">
<stop stop-color="#DDE2E4"/>
<stop offset="0.126147" stop-color="#DDE2E4"/>
<stop offset="0.127231" stop-color="#E3E8EA"/>
<stop offset="0.43781" stop-color="#E3E8EA"/>
<stop offset="0.440691" stop-color="#C0C2C3"/>
<stop offset="0.836743" stop-color="#C0C2C3"/>
<stop offset="0.838664" stop-color="#A5A9AA"/>
<stop offset="1" stop-color="#A5A9AA"/>
</linearGradient>
<linearGradient id="paint15_linear_594_60" x1="820.421" y1="186.76" x2="780.502" y2="255.901" gradientUnits="userSpaceOnUse">
<stop stop-color="#72767A"/>
<stop offset="0.161336" stop-color="#72767A"/>
<stop offset="0.163257" stop-color="#8D9192"/>
<stop offset="0.559309" stop-color="#8D9192"/>
<stop offset="0.56219" stop-color="#B0B3B5"/>
<stop offset="0.872769" stop-color="#B0B3B5"/>
<stop offset="0.873853" stop-color="#ABAEB0"/>
<stop offset="1" stop-color="#ABAEB0"/>
</linearGradient>
<linearGradient id="paint16_linear_594_60" x1="806.996" y1="190.93" x2="779.074" y2="239.292" gradientUnits="userSpaceOnUse">
<stop stop-color="#ABAEB0"/>
<stop offset="0.126147" stop-color="#ABAEB0"/>
<stop offset="0.127231" stop-color="#B0B3B5"/>
<stop offset="0.43781" stop-color="#B0B3B5"/>
<stop offset="0.440691" stop-color="#8D9192"/>
<stop offset="0.836743" stop-color="#8D9192"/>
<stop offset="0.838664" stop-color="#72767A"/>
<stop offset="1" stop-color="#72767A"/>
</linearGradient>
<linearGradient id="paint17_linear_594_60" x1="804.445" y1="207.865" x2="791.697" y2="229.946" gradientUnits="userSpaceOnUse">
<stop stop-color="#72767A"/>
<stop offset="0.161336" stop-color="#72767A"/>
<stop offset="0.163257" stop-color="#8D9192"/>
<stop offset="0.559309" stop-color="#8D9192"/>
<stop offset="0.56219" stop-color="#B0B3B5"/>
<stop offset="0.872769" stop-color="#B0B3B5"/>
<stop offset="0.873853" stop-color="#ABAEB0"/>
<stop offset="1" stop-color="#ABAEB0"/>
</linearGradient>
<linearGradient id="paint18_linear_594_60" x1="664.176" y1="198.574" x2="596.23" y2="316.259" gradientUnits="userSpaceOnUse">
<stop stop-color="#606E79"/>
<stop offset="0.126147" stop-color="#606E79"/>
<stop offset="0.127231" stop-color="#65747E"/>
<stop offset="0.43781" stop-color="#65747E"/>
<stop offset="0.440691" stop-color="#49515A"/>
<stop offset="0.836743" stop-color="#49515A"/>
<stop offset="0.838664" stop-color="#363B40"/>
<stop offset="1" stop-color="#363B40"/>
</linearGradient>
<linearGradient id="paint19_linear_594_60" x1="696.693" y1="216.932" x2="628.748" y2="334.617" gradientUnits="userSpaceOnUse">
<stop stop-color="#606E79"/>
<stop offset="0.126147" stop-color="#606E79"/>
<stop offset="0.127231" stop-color="#65747E"/>
<stop offset="0.43781" stop-color="#65747E"/>
<stop offset="0.440691" stop-color="#49515A"/>
<stop offset="0.836743" stop-color="#49515A"/>
<stop offset="0.838664" stop-color="#363B40"/>
<stop offset="1" stop-color="#363B40"/>
</linearGradient>
<linearGradient id="paint20_linear_594_60" x1="704.045" y1="248.172" x2="659.35" y2="325.585" gradientUnits="userSpaceOnUse">
<stop stop-color="#DDE2E4"/>
<stop offset="0.126147" stop-color="#DDE2E4"/>
<stop offset="0.127231" stop-color="#E3E8EA"/>
<stop offset="0.43781" stop-color="#E3E8EA"/>
<stop offset="0.440691" stop-color="#C0C2C3"/>
<stop offset="0.836743" stop-color="#C0C2C3"/>
<stop offset="0.838664" stop-color="#A5A9AA"/>
<stop offset="1" stop-color="#A5A9AA"/>
</linearGradient>
<linearGradient id="paint21_linear_594_60" x1="703.505" y1="254.251" x2="663.586" y2="323.391" gradientUnits="userSpaceOnUse">
<stop stop-color="#72767A"/>
<stop offset="0.161336" stop-color="#72767A"/>
<stop offset="0.163257" stop-color="#8D9192"/>
<stop offset="0.559309" stop-color="#8D9192"/>
<stop offset="0.56219" stop-color="#B0B3B5"/>
<stop offset="0.872769" stop-color="#B0B3B5"/>
<stop offset="0.873853" stop-color="#ABAEB0"/>
<stop offset="1" stop-color="#ABAEB0"/>
</linearGradient>
<linearGradient id="paint22_linear_594_60" x1="690.085" y1="258.42" x2="662.162" y2="306.783" gradientUnits="userSpaceOnUse">
<stop stop-color="#ABAEB0"/>
<stop offset="0.126147" stop-color="#ABAEB0"/>
<stop offset="0.127231" stop-color="#B0B3B5"/>
<stop offset="0.43781" stop-color="#B0B3B5"/>
<stop offset="0.440691" stop-color="#8D9192"/>
<stop offset="0.836743" stop-color="#8D9192"/>
<stop offset="0.838664" stop-color="#72767A"/>
<stop offset="1" stop-color="#72767A"/>
</linearGradient>
<linearGradient id="paint23_linear_594_60" x1="687.535" y1="275.357" x2="674.786" y2="297.438" gradientUnits="userSpaceOnUse">
<stop stop-color="#72767A"/>
<stop offset="0.161336" stop-color="#72767A"/>
<stop offset="0.163257" stop-color="#8D9192"/>
<stop offset="0.559309" stop-color="#8D9192"/>
<stop offset="0.56219" stop-color="#B0B3B5"/>
<stop offset="0.872769" stop-color="#B0B3B5"/>
<stop offset="0.873853" stop-color="#ABAEB0"/>
<stop offset="1" stop-color="#ABAEB0"/>
</linearGradient>
<linearGradient id="paint24_linear_594_60" x1="601.595" y1="137.573" x2="647.975" y2="137.573" gradientUnits="userSpaceOnUse">
<stop stop-color="#464749"/>
<stop offset="0.161336" stop-color="#464749"/>
<stop offset="0.163257" stop-color="#5C6064"/>
<stop offset="0.559309" stop-color="#5C6064"/>
<stop offset="0.56219" stop-color="#7F8487"/>
<stop offset="0.872769" stop-color="#7F8487"/>
<stop offset="0.873853" stop-color="#7A7F82"/>
<stop offset="1" stop-color="#7A7F82"/>
</linearGradient>
<linearGradient id="paint25_linear_594_60" x1="581.74" y1="128.617" x2="667.829" y2="128.617" gradientUnits="userSpaceOnUse">
<stop stop-color="#72767A"/>
<stop offset="0.161336" stop-color="#72767A"/>
<stop offset="0.163257" stop-color="#8D9192"/>
<stop offset="0.559309" stop-color="#8D9192"/>
<stop offset="0.56219" stop-color="#B0B3B5"/>
<stop offset="0.872769" stop-color="#B0B3B5"/>
<stop offset="0.873853" stop-color="#ABAEB0"/>
<stop offset="1" stop-color="#ABAEB0"/>
</linearGradient>
<linearGradient id="paint26_linear_594_60" x1="233.819" y1="181.95" x2="257.794" y2="181.95" gradientUnits="userSpaceOnUse">
<stop stop-color="#A4A8A9"/>
<stop offset="0.161336" stop-color="#A4A8A9"/>
<stop offset="0.163257" stop-color="#BEC1C3"/>
<stop offset="0.559309" stop-color="#BEC1C3"/>
<stop offset="0.56219" stop-color="#E1E5E9"/>
<stop offset="0.872769" stop-color="#E1E5E9"/>
<stop offset="0.873853" stop-color="#DCE1E4"/>
<stop offset="1" stop-color="#DCE1E4"/>
</linearGradient>
<linearGradient id="paint27_linear_594_60" x1="119.149" y1="311.112" x2="155.869" y2="311.112" gradientUnits="userSpaceOnUse">
<stop stop-color="#A4A8A9"/>
<stop offset="0.161336" stop-color="#A4A8A9"/>
<stop offset="0.163257" stop-color="#BEC1C3"/>
<stop offset="0.559309" stop-color="#BEC1C3"/>
<stop offset="0.56219" stop-color="#E1E5E9"/>
<stop offset="0.872769" stop-color="#E1E5E9"/>
<stop offset="0.873853" stop-color="#DCE1E4"/>
<stop offset="1" stop-color="#DCE1E4"/>
</linearGradient>
<linearGradient id="paint28_linear_594_60" x1="117.091" y1="302.631" x2="157.934" y2="302.631" gradientUnits="userSpaceOnUse">
<stop stop-color="#BCBFC0"/>
<stop offset="0.161336" stop-color="#BCBFC0"/>
<stop offset="0.163257" stop-color="#D5D8DB"/>
<stop offset="0.559309" stop-color="#D5D8DB"/>
<stop offset="0.56219" stop-color="#F6FAFE"/>
<stop offset="0.872769" stop-color="#F6FAFE"/>
<stop offset="0.873853" stop-color="#F2F6FA"/>
<stop offset="1" stop-color="#F2F6FA"/>
</linearGradient>
<linearGradient id="paint29_linear_594_60" x1="119.149" y1="288.079" x2="155.869" y2="288.079" gradientUnits="userSpaceOnUse">
<stop stop-color="#A4A8A9"/>
<stop offset="0.161336" stop-color="#A4A8A9"/>
<stop offset="0.163257" stop-color="#BEC1C3"/>
<stop offset="0.559309" stop-color="#BEC1C3"/>
<stop offset="0.56219" stop-color="#E1E5E9"/>
<stop offset="0.872769" stop-color="#E1E5E9"/>
<stop offset="0.873853" stop-color="#DCE1E4"/>
<stop offset="1" stop-color="#DCE1E4"/>
</linearGradient>
<linearGradient id="paint30_linear_594_60" x1="117.091" y1="272.013" x2="157.934" y2="272.013" gradientUnits="userSpaceOnUse">
<stop stop-color="#BCBFC0"/>
<stop offset="0.161336" stop-color="#BCBFC0"/>
<stop offset="0.163257" stop-color="#D5D8DB"/>
<stop offset="0.559309" stop-color="#D5D8DB"/>
<stop offset="0.56219" stop-color="#F6FAFE"/>
<stop offset="0.872769" stop-color="#F6FAFE"/>
<stop offset="0.873853" stop-color="#F2F6FA"/>
<stop offset="1" stop-color="#F2F6FA"/>
</linearGradient>
<linearGradient id="paint31_linear_594_60" x1="119.149" y1="263.643" x2="155.869" y2="263.643" gradientUnits="userSpaceOnUse">
<stop stop-color="#A4A8A9"/>
<stop offset="0.161336" stop-color="#A4A8A9"/>
<stop offset="0.163257" stop-color="#BEC1C3"/>
<stop offset="0.559309" stop-color="#BEC1C3"/>
<stop offset="0.56219" stop-color="#E1E5E9"/>
<stop offset="0.872769" stop-color="#E1E5E9"/>
<stop offset="0.873853" stop-color="#DCE1E4"/>
<stop offset="1" stop-color="#DCE1E4"/>
</linearGradient>
<linearGradient id="paint32_linear_594_60" x1="30.0927" y1="402.749" x2="43.4406" y2="425.868" gradientUnits="userSpaceOnUse">
<stop stop-color="#DCE1E4"/>
<stop offset="0.126147" stop-color="#DCE1E4"/>
<stop offset="0.127231" stop-color="#E1E5E9"/>
<stop offset="0.43781" stop-color="#E1E5E9"/>
<stop offset="0.440691" stop-color="#BEC1C3"/>
<stop offset="0.836743" stop-color="#BEC1C3"/>
<stop offset="0.838664" stop-color="#A4A8A9"/>
<stop offset="1" stop-color="#A4A8A9"/>
</linearGradient>
<linearGradient id="paint33_linear_594_60" x1="520.305" y1="389.824" x2="487.221" y2="332.521" gradientUnits="userSpaceOnUse">
<stop stop-color="#A4A8A9"/>
<stop offset="0.161336" stop-color="#A4A8A9"/>
<stop offset="0.163257" stop-color="#BEC1C3"/>
<stop offset="0.559309" stop-color="#BEC1C3"/>
<stop offset="0.56219" stop-color="#E1E5E9"/>
<stop offset="0.872769" stop-color="#E1E5E9"/>
<stop offset="0.873853" stop-color="#DCE1E4"/>
<stop offset="1" stop-color="#DCE1E4"/>
</linearGradient>
<linearGradient id="paint34_linear_594_60" x1="314.583" y1="444.415" x2="246.637" y2="562.1" gradientUnits="userSpaceOnUse">
<stop stop-color="#606E79"/>
<stop offset="0.126147" stop-color="#606E79"/>
<stop offset="0.127231" stop-color="#65747E"/>
<stop offset="0.43781" stop-color="#65747E"/>
<stop offset="0.440691" stop-color="#49515A"/>
<stop offset="0.836743" stop-color="#49515A"/>
<stop offset="0.838664" stop-color="#363B40"/>
<stop offset="1" stop-color="#363B40"/>
</linearGradient>
<linearGradient id="paint35_linear_594_60" x1="321.933" y1="475.655" x2="277.239" y2="553.067" gradientUnits="userSpaceOnUse">
<stop stop-color="#DDE2E4"/>
<stop offset="0.126147" stop-color="#DDE2E4"/>
<stop offset="0.127231" stop-color="#E3E8EA"/>
<stop offset="0.43781" stop-color="#E3E8EA"/>
<stop offset="0.440691" stop-color="#C0C2C3"/>
<stop offset="0.836743" stop-color="#C0C2C3"/>
<stop offset="0.838664" stop-color="#A5A9AA"/>
<stop offset="1" stop-color="#A5A9AA"/>
</linearGradient>
<linearGradient id="paint36_linear_594_60" x1="321.392" y1="481.735" x2="281.473" y2="550.876" gradientUnits="userSpaceOnUse">
<stop stop-color="#72767A"/>
<stop offset="0.161336" stop-color="#72767A"/>
<stop offset="0.163257" stop-color="#8D9192"/>
<stop offset="0.559309" stop-color="#8D9192"/>
<stop offset="0.56219" stop-color="#B0B3B5"/>
<stop offset="0.872769" stop-color="#B0B3B5"/>
<stop offset="0.873853" stop-color="#ABAEB0"/>
<stop offset="1" stop-color="#ABAEB0"/>
</linearGradient>
<linearGradient id="paint37_linear_594_60" x1="307.972" y1="485.904" x2="280.05" y2="534.267" gradientUnits="userSpaceOnUse">
<stop stop-color="#ABAEB0"/>
<stop offset="0.126147" stop-color="#ABAEB0"/>
<stop offset="0.127231" stop-color="#B0B3B5"/>
<stop offset="0.43781" stop-color="#B0B3B5"/>
<stop offset="0.440691" stop-color="#8D9192"/>
<stop offset="0.836743" stop-color="#8D9192"/>
<stop offset="0.838664" stop-color="#72767A"/>
<stop offset="1" stop-color="#72767A"/>
</linearGradient>
<linearGradient id="paint38_linear_594_60" x1="305.421" y1="502.84" x2="292.672" y2="524.922" gradientUnits="userSpaceOnUse">
<stop stop-color="#72767A"/>
<stop offset="0.161336" stop-color="#72767A"/>
<stop offset="0.163257" stop-color="#8D9192"/>
<stop offset="0.559309" stop-color="#8D9192"/>
<stop offset="0.56219" stop-color="#B0B3B5"/>
<stop offset="0.872769" stop-color="#B0B3B5"/>
<stop offset="0.873853" stop-color="#ABAEB0"/>
<stop offset="1" stop-color="#ABAEB0"/>
</linearGradient>
<linearGradient id="paint39_linear_594_60" x1="307.414" y1="427.433" x2="344.134" y2="427.433" gradientUnits="userSpaceOnUse">
<stop stop-color="#A4A8A9"/>
<stop offset="0.161336" stop-color="#A4A8A9"/>
<stop offset="0.163257" stop-color="#BEC1C3"/>
<stop offset="0.559309" stop-color="#BEC1C3"/>
<stop offset="0.56219" stop-color="#E1E5E9"/>
<stop offset="0.872769" stop-color="#E1E5E9"/>
<stop offset="0.873853" stop-color="#DCE1E4"/>
<stop offset="1" stop-color="#DCE1E4"/>
</linearGradient>
<linearGradient id="paint40_linear_594_60" x1="305.352" y1="418.949" x2="346.194" y2="418.949" gradientUnits="userSpaceOnUse">
<stop stop-color="#BCBFC0"/>
<stop offset="0.161336" stop-color="#BCBFC0"/>
<stop offset="0.163257" stop-color="#D5D8DB"/>
<stop offset="0.559309" stop-color="#D5D8DB"/>
<stop offset="0.56219" stop-color="#F6FAFE"/>
<stop offset="0.872769" stop-color="#F6FAFE"/>
<stop offset="0.873853" stop-color="#F2F6FA"/>
<stop offset="1" stop-color="#F2F6FA"/>
</linearGradient>
<linearGradient id="paint41_linear_594_60" x1="307.414" y1="404.4" x2="344.134" y2="404.4" gradientUnits="userSpaceOnUse">
<stop stop-color="#A4A8A9"/>
<stop offset="0.161336" stop-color="#A4A8A9"/>
<stop offset="0.163257" stop-color="#BEC1C3"/>
<stop offset="0.559309" stop-color="#BEC1C3"/>
<stop offset="0.56219" stop-color="#E1E5E9"/>
<stop offset="0.872769" stop-color="#E1E5E9"/>
<stop offset="0.873853" stop-color="#DCE1E4"/>
<stop offset="1" stop-color="#DCE1E4"/>
</linearGradient>
<linearGradient id="paint42_linear_594_60" x1="305.352" y1="388.33" x2="346.194" y2="388.33" gradientUnits="userSpaceOnUse">
<stop stop-color="#BCBFC0"/>
<stop offset="0.161336" stop-color="#BCBFC0"/>
<stop offset="0.163257" stop-color="#D5D8DB"/>
<stop offset="0.559309" stop-color="#D5D8DB"/>
<stop offset="0.56219" stop-color="#F6FAFE"/>
<stop offset="0.872769" stop-color="#F6FAFE"/>
<stop offset="0.873853" stop-color="#F2F6FA"/>
<stop offset="1" stop-color="#F2F6FA"/>
</linearGradient>
<linearGradient id="paint43_linear_594_60" x1="307.414" y1="379.963" x2="344.134" y2="379.963" gradientUnits="userSpaceOnUse">
<stop stop-color="#A4A8A9"/>
<stop offset="0.161336" stop-color="#A4A8A9"/>
<stop offset="0.163257" stop-color="#BEC1C3"/>
<stop offset="0.559309" stop-color="#BEC1C3"/>
<stop offset="0.56219" stop-color="#E1E5E9"/>
<stop offset="0.872769" stop-color="#E1E5E9"/>
<stop offset="0.873853" stop-color="#DCE1E4"/>
<stop offset="1" stop-color="#DCE1E4"/>
</linearGradient>
<linearGradient id="paint44_linear_594_60" x1="207.812" y1="505.395" x2="221.16" y2="528.515" gradientUnits="userSpaceOnUse">
<stop stop-color="#DCE1E4"/>
<stop offset="0.126147" stop-color="#DCE1E4"/>
<stop offset="0.127231" stop-color="#E1E5E9"/>
<stop offset="0.43781" stop-color="#E1E5E9"/>
<stop offset="0.440691" stop-color="#BEC1C3"/>
<stop offset="0.836743" stop-color="#BEC1C3"/>
<stop offset="0.838664" stop-color="#A4A8A9"/>
<stop offset="1" stop-color="#A4A8A9"/>
</linearGradient>
<linearGradient id="paint45_linear_594_60" x1="411.89" y1="295.992" x2="435.864" y2="295.992" gradientUnits="userSpaceOnUse">
<stop stop-color="#A4A8A9"/>
<stop offset="0.161336" stop-color="#A4A8A9"/>
<stop offset="0.163257" stop-color="#BEC1C3"/>
<stop offset="0.559309" stop-color="#BEC1C3"/>
<stop offset="0.56219" stop-color="#E1E5E9"/>
<stop offset="0.872769" stop-color="#E1E5E9"/>
<stop offset="0.873853" stop-color="#DCE1E4"/>
<stop offset="1" stop-color="#DCE1E4"/>
</linearGradient>
</defs>
</svg>
