<svg width="108" height="86" viewBox="0 0 108 86" fill="none" xmlns="http://www.w3.org/2000/svg">
<path d="M86.4 37.625V48.375H108V37.625H86.4ZM75.6 73.1537C80.784 76.97 87.534 82.0225 92.88 86C95.04 83.1512 97.2 80.2487 99.36 77.4C94.014 73.4225 87.264 68.37 82.08 64.5C79.92 67.4025 77.76 70.305 75.6 73.1537ZM99.36 8.6C97.2 5.75125 95.04 2.84875 92.88 0C87.534 3.9775 80.784 9.03 75.6 12.9C77.76 15.7487 79.92 18.6512 82.08 21.5C87.264 17.63 94.014 12.6312 99.36 8.6ZM10.8 26.875C4.86 26.875 0 31.7125 0 37.625V48.375C0 54.2875 4.86 59.125 10.8 59.125H16.2V80.625H27V59.125H32.4L59.4 75.25V10.75L32.4 26.875H10.8ZM72.9 43C72.9 35.8512 69.768 29.4012 64.8 24.9937V60.9525C69.768 56.5988 72.9 50.1488 72.9 43Z" fill="#03A9F4" fill-opacity="0.72"/>
</svg>
